solid CATIA STL
  facet normal -2.817713e-001  8.234899e-003  9.594462e-001
    outer loop
      vertex -1.728345e+001  2.595740e+001 -9.229984e-001
      vertex -1.786522e+001  2.491863e+001 -1.084940e+000
      vertex -1.560145e+001  2.332092e+001 -4.063987e-001
    endloop
  endfacet
  facet normal -3.323784e-001  1.566836e-002  9.430160e-001
    outer loop
      vertex -1.960945e+001  2.106406e+001 -1.585864e+000
      vertex -1.934380e+001  2.301904e+001 -1.524712e+000
      vertex -2.325221e+001  1.821901e+001 -2.822531e+000
    endloop
  endfacet
  facet normal -2.869737e-001  9.033025e-003  9.578958e-001
    outer loop
      vertex -1.560145e+001  2.332092e+001 -4.063987e-001
      vertex -1.934380e+001  2.301904e+001 -1.524712e+000
      vertex -1.960945e+001  2.106406e+001 -1.585864e+000
    endloop
  endfacet
  facet normal -2.863986e-001  1.110922e-003  9.581099e-001
    outer loop
      vertex -1.934380e+001  2.301904e+001 -1.524712e+000
      vertex -1.560145e+001  2.332092e+001 -4.063987e-001
      vertex -1.786522e+001  2.491863e+001 -1.084940e+000
    endloop
  endfacet
  facet normal -2.196669e-001  1.193993e-002  9.755018e-001
    outer loop
      vertex -1.000000e+001  1.000000e+002  0.000000e+000
      vertex -1.260915e+001  7.597740e+001 -2.935060e-001
      vertex -9.067348e+000  2.556890e+001  1.121038e+000
    endloop
  endfacet
  facet normal -1.775678e-001  1.259587e-002  9.840279e-001
    outer loop
      vertex -1.000000e+001  1.000000e+002  0.000000e+000
      vertex -9.067348e+000  2.556890e+001  1.121038e+000
      vertex -5.645742e+000  2.615395e+001  1.730978e+000
    endloop
  endfacet
  facet normal -1.402560e-001  1.493597e-002  9.900026e-001
    outer loop
      vertex -1.000000e+001  1.000000e+002  0.000000e+000
      vertex -5.645742e+000  2.615395e+001  1.730978e+000
      vertex -2.172130e+000  2.636457e+001  2.219915e+000
    endloop
  endfacet
  facet normal -1.566539e-001  1.311934e-002  9.875665e-001
    outer loop
      vertex -1.000000e+001  1.000000e+002  0.000000e+000
      vertex -2.172130e+000  2.636457e+001  2.219915e+000
      vertex -5.524866e-001  1.000000e+002  1.498623e+000
    endloop
  endfacet
  facet normal -2.784085e-001  1.056801e-002  9.604046e-001
    outer loop
      vertex -1.728345e+001  2.595740e+001 -9.229984e-001
      vertex -1.560145e+001  2.332092e+001 -4.063987e-001
      vertex -1.718940e+001  2.634113e+001 -8.999577e-001
    endloop
  endfacet
  facet normal -2.383490e-001  3.329783e-002  9.706086e-001
    outer loop
      vertex -1.718940e+001  2.634113e+001 -8.999577e-001
      vertex -1.560145e+001  2.332092e+001 -4.063987e-001
      vertex -9.067348e+000  2.556890e+001  1.121038e+000
    endloop
  endfacet
  facet normal -2.405269e-001  1.033636e-002  9.705874e-001
    outer loop
      vertex -1.718940e+001  2.634113e+001 -8.999577e-001
      vertex -9.067348e+000  2.556890e+001  1.121038e+000
      vertex -1.260915e+001  7.597740e+001 -2.935060e-001
    endloop
  endfacet
  facet normal -2.984166e-002  1.221156e-002  9.994800e-001
    outer loop
      vertex  9.000000e+000  2.436374e+001  2.924117e+000
      vertex  9.000000e+000  1.000000e+002  2.000000e+000
      vertex  3.501894e+000  2.588192e+001  2.741410e+000
    endloop
  endfacet
  facet normal -5.240940e-002  1.387613e-002  9.985293e-001
    outer loop
      vertex  3.501894e+000  2.588192e+001  2.741410e+000
      vertex  9.000000e+000  1.000000e+002  2.000000e+000
      vertex -5.524866e-001  1.000000e+002  1.498623e+000
    endloop
  endfacet
  facet normal -9.052632e-002  1.174573e-002  9.958248e-001
    outer loop
      vertex  3.501894e+000  2.588192e+001  2.741410e+000
      vertex -5.524866e-001  1.000000e+002  1.498623e+000
      vertex -2.172130e+000  2.636457e+001  2.219915e+000
    endloop
  endfacet
  facet normal  8.161328e-001  8.577904e-002  5.714623e-001
    outer loop
      vertex  3.400415e+001 -1.365741e-014 -1.000000e+001
      vertex  3.326108e+001  7.069860e+000 -1.000000e+001
      vertex  2.000000e+001  0.000000e+000  1.000000e+001
    endloop
  endfacet
  facet normal  8.108794e-001  1.067544e-001  5.753937e-001
    outer loop
      vertex  3.326108e+001  7.069860e+000 -1.000000e+001
      vertex  1.931852e+001  5.176381e+000  1.000000e+001
      vertex  2.000000e+001  0.000000e+000  1.000000e+001
    endloop
  endfacet
  facet normal -8.108794e-001  1.067544e-001  5.753937e-001
    outer loop
      vertex -1.931852e+001  5.176381e+000  1.000000e+001
      vertex -3.326108e+001  7.069860e+000 -1.000000e+001
      vertex -2.000000e+001  2.449213e-015  1.000000e+001
    endloop
  endfacet
  facet normal -8.161328e-001  8.577904e-002  5.714623e-001
    outer loop
      vertex -3.326108e+001  7.069860e+000 -1.000000e+001
      vertex -3.400415e+001  7.163439e-015 -1.000000e+001
      vertex -2.000000e+001  2.449213e-015  1.000000e+001
    endloop
  endfacet
  facet normal  2.775452e-001  7.713506e-001  5.727016e-001
    outer loop
      vertex  1.063889e+001  2.769855e+001 -3.812275e+000
      vertex  1.050786e+001  3.233987e+001 -1.000000e+001
      vertex  9.478987e+000  2.825888e+001 -4.004851e+000
    endloop
  endfacet
  facet normal  2.279898e-001  7.862356e-001  5.743294e-001
    outer loop
      vertex  1.050786e+001  3.233987e+001 -1.000000e+001
      vertex  7.107231e+000  2.894022e+001 -3.996065e+000
      vertex  9.478987e+000  2.825888e+001 -4.004851e+000
    endloop
  endfacet
  facet normal  7.819672e-001  2.540766e-001  5.691858e-001
    outer loop
      vertex  3.326108e+001  7.069860e+000 -1.000000e+001
      vertex  3.106434e+001  1.383073e+001 -1.000000e+001
      vertex  1.931852e+001  5.176381e+000  1.000000e+001
    endloop
  endfacet
  facet normal  7.125106e-001  4.113681e-001  5.684232e-001
    outer loop
      vertex  3.106434e+001  1.383073e+001 -1.000000e+001
      vertex  2.750994e+001  1.998714e+001 -1.000000e+001
      vertex  1.732051e+001  1.000000e+001  1.000000e+001
    endloop
  endfacet
  facet normal  7.539630e-001  3.123014e-001  5.779340e-001
    outer loop
      vertex  1.931852e+001  5.176381e+000  1.000000e+001
      vertex  3.106434e+001  1.383073e+001 -1.000000e+001
      vertex  1.732051e+001  1.000000e+001  1.000000e+001
    endloop
  endfacet
  facet normal  6.110203e-001  5.501652e-001  5.691857e-001
    outer loop
      vertex  2.750994e+001  1.998714e+001 -1.000000e+001
      vertex  2.275322e+001  2.527001e+001 -1.000000e+001
      vertex  1.414214e+001  1.414214e+001  1.000000e+001
    endloop
  endfacet
  facet normal  6.474425e-001  4.968002e-001  5.779340e-001
    outer loop
      vertex  1.732051e+001  1.000000e+001  1.000000e+001
      vertex  2.750994e+001  1.998714e+001 -1.000000e+001
      vertex  1.414214e+001  1.414214e+001  1.000000e+001
    endloop
  endfacet
  facet normal  4.978918e-001  6.488650e-001  5.753937e-001
    outer loop
      vertex  1.414214e+001  1.414214e+001  1.000000e+001
      vertex  2.275322e+001  2.527001e+001 -1.000000e+001
      vertex  1.000000e+001  1.732051e+001  1.000000e+001
    endloop
  endfacet
  facet normal  1.987484e-001  8.040154e-001  5.604090e-001
    outer loop
      vertex  3.170465e+000  2.428184e+001  3.590540e+000
      vertex  5.176381e+000  1.931852e+001  1.000000e+001
      vertex  8.432803e+000  2.285118e+001  3.776815e+000
    endloop
  endfacet
  facet normal  1.725967e-001  8.120051e-001  5.575465e-001
    outer loop
      vertex  1.050786e+001  3.233987e+001 -1.000000e+001
      vertex  3.554402e+000  3.381787e+001 -1.000000e+001
      vertex  7.107231e+000  2.894022e+001 -3.996065e+000
    endloop
  endfacet
  facet normal  1.055800e-001  8.019592e-001  5.879748e-001
    outer loop
      vertex  1.224606e-015  2.000000e+001  1.000000e+001
      vertex  5.176381e+000  1.931852e+001  1.000000e+001
      vertex  3.170465e+000  2.428184e+001  3.590540e+000
    endloop
  endfacet
  facet normal  1.739463e-002  8.273973e-001  5.613475e-001
    outer loop
      vertex -2.265309e+000  2.475752e+001  3.057861e+000
      vertex  1.224606e-015  2.000000e+001  1.000000e+001
      vertex  3.170465e+000  2.428184e+001  3.590540e+000
    endloop
  endfacet
  facet normal  -0.000000e+000  8.299932e-001  5.577734e-001
    outer loop
      vertex  3.554402e+000  3.381787e+001 -1.000000e+001
      vertex -3.554402e+000  3.381787e+001 -1.000000e+001
      vertex  9.988659e-001  2.977586e+001 -3.985289e+000
    endloop
  endfacet
  facet normal  1.108110e-001  8.024476e-001  5.863436e-001
    outer loop
      vertex  7.107231e+000  2.894022e+001 -3.996065e+000
      vertex  3.554402e+000  3.381787e+001 -1.000000e+001
      vertex  9.988659e-001  2.977586e+001 -3.985289e+000
    endloop
  endfacet
  facet normal -1.058242e-001  8.038135e-001  5.853932e-001
    outer loop
      vertex -5.176381e+000  1.931852e+001  1.000000e+001
      vertex  1.224606e-015  2.000000e+001  1.000000e+001
      vertex -2.265309e+000  2.475752e+001  3.057861e+000
    endloop
  endfacet
  facet normal -1.725376e-001  8.117272e-001  5.579693e-001
    outer loop
      vertex -3.554402e+000  3.381787e+001 -1.000000e+001
      vertex -1.050786e+001  3.233987e+001 -1.000000e+001
      vertex -5.151399e+000  2.934779e+001 -3.990809e+000
    endloop
  endfacet
  facet normal -5.677965e-002  8.082259e-001  5.861286e-001
    outer loop
      vertex  9.988659e-001  2.977586e+001 -3.985289e+000
      vertex -3.554402e+000  3.381787e+001 -1.000000e+001
      vertex -5.151399e+000  2.934779e+001 -3.990809e+000
    endloop
  endfacet
  facet normal -3.107010e-001  7.500992e-001  5.837945e-001
    outer loop
      vertex -8.891456e+000  2.405664e+001  1.934939e+000
      vertex -1.000000e+001  1.732051e+001  1.000000e+001
      vertex -5.176381e+000  1.931852e+001  1.000000e+001
    endloop
  endfacet
  facet normal -1.803066e-001  8.095593e-001  5.586620e-001
    outer loop
      vertex -5.176381e+000  1.931852e+001  1.000000e+001
      vertex -2.265309e+000  2.475752e+001  3.057861e+000
      vertex -8.891456e+000  2.405664e+001  1.934939e+000
    endloop
  endfacet
  facet normal -3.374875e-001  7.580088e-001  5.581442e-001
    outer loop
      vertex -1.050786e+001  3.233987e+001 -1.000000e+001
      vertex -1.700208e+001  2.944846e+001 -1.000000e+001
      vertex -1.108514e+001  2.767400e+001 -4.012393e+000
    endloop
  endfacet
  facet normal -2.219762e-001  7.793695e-001  5.859264e-001
    outer loop
      vertex -5.151399e+000  2.934779e+001 -3.990809e+000
      vertex -1.050786e+001  3.233987e+001 -1.000000e+001
      vertex -1.108514e+001  2.767400e+001 -4.012393e+000
    endloop
  endfacet
  facet normal -3.788414e-001  7.352555e-001  5.620308e-001
    outer loop
      vertex -8.891456e+000  2.405664e+001  1.934939e+000
      vertex -1.520366e+001  2.199763e+001  3.737724e-001
      vertex -1.000000e+001  1.732051e+001  1.000000e+001
    endloop
  endfacet
  facet normal -4.876470e-001  6.711884e-001  5.583068e-001
    outer loop
      vertex -1.700208e+001  2.944846e+001 -1.000000e+001
      vertex -2.275322e+001  2.527001e+001 -1.000000e+001
      vertex -1.655370e+001  2.482419e+001 -4.049140e+000
    endloop
  endfacet
  facet normal -3.776582e-001  7.171435e-001  5.857301e-001
    outer loop
      vertex -1.108514e+001  2.767400e+001 -4.012393e+000
      vertex -1.700208e+001  2.944846e+001 -1.000000e+001
      vertex -1.655370e+001  2.482419e+001 -4.049140e+000
    endloop
  endfacet
  facet normal -4.953085e-001  6.454983e-001  5.813789e-001
    outer loop
      vertex -1.414214e+001  1.414214e+001  1.000000e+001
      vertex -1.000000e+001  1.732051e+001  1.000000e+001
      vertex -1.520366e+001  2.199763e+001  3.737724e-001
    endloop
  endfacet
  facet normal -6.160331e-001  5.546788e-001  5.593161e-001
    outer loop
      vertex -2.275322e+001  2.527001e+001 -1.000000e+001
      vertex -2.750994e+001  1.998714e+001 -1.000000e+001
      vertex -2.119280e+001  2.105146e+001 -4.097782e+000
    endloop
  endfacet
  facet normal -5.157396e-001  6.266426e-001  5.842360e-001
    outer loop
      vertex -1.655370e+001  2.482419e+001 -4.049140e+000
      vertex -2.275322e+001  2.527001e+001 -1.000000e+001
      vertex -2.119280e+001  2.105146e+001 -4.097782e+000
    endloop
  endfacet
  facet normal -7.171592e-001  4.140520e-001  5.605743e-001
    outer loop
      vertex -2.750994e+001  1.998714e+001 -1.000000e+001
      vertex -3.106434e+001  1.383073e+001 -1.000000e+001
      vertex -2.499476e+001  1.643329e+001 -4.157316e+000
    endloop
  endfacet
  facet normal -6.309372e-001  5.119104e-001  5.829802e-001
    outer loop
      vertex -2.119280e+001  2.105146e+001 -4.097782e+000
      vertex -2.750994e+001  1.998714e+001 -1.000000e+001
      vertex -2.499476e+001  1.643329e+001 -4.157316e+000
    endloop
  endfacet
  facet normal -6.926119e-001  4.389465e-001  5.723764e-001
    outer loop
      vertex -1.732051e+001  1.000000e+001  1.000000e+001
      vertex -2.331062e+001  1.665121e+001 -2.349117e+000
      vertex -2.556994e+001  1.426444e+001 -3.252670e+000
    endloop
  endfacet
  facet normal  4.939873e-001  7.183757e-001  4.898091e-001
    outer loop
      vertex  1.050786e+001  3.233987e+001 -1.000000e+001
      vertex  1.224248e+001  2.616231e+001 -2.689130e+000
      vertex  1.296953e+001  2.470902e+001 -1.290922e+000
    endloop
  endfacet
  facet normal  3.550993e-001  7.538892e-001  5.527708e-001
    outer loop
      vertex  1.050786e+001  3.233987e+001 -1.000000e+001
      vertex  1.134733e+001  2.716005e+001 -3.474838e+000
      vertex  1.224248e+001  2.616231e+001 -2.689130e+000
    endloop
  endfacet
  facet normal  3.107174e-001  7.635173e-001  5.661235e-001
    outer loop
      vertex  1.050786e+001  3.233987e+001 -1.000000e+001
      vertex  1.063889e+001  2.769855e+001 -3.812275e+000
      vertex  1.134733e+001  2.716005e+001 -3.474838e+000
    endloop
  endfacet
  facet normal -7.213352e-001  3.748630e-001  5.823687e-001
    outer loop
      vertex -2.785345e+001  1.104040e+001 -4.226827e+000
      vertex -2.499476e+001  1.643329e+001 -4.157316e+000
      vertex -3.106434e+001  1.383073e+001 -1.000000e+001
    endloop
  endfacet
  facet normal -7.870724e-001  2.557353e-001  5.613524e-001
    outer loop
      vertex -2.785345e+001  1.104040e+001 -4.226827e+000
      vertex -3.106434e+001  1.383073e+001 -1.000000e+001
      vertex -3.326108e+001  7.069860e+000 -1.000000e+001
    endloop
  endfacet
  facet normal -7.854369e-001  2.404737e-001  5.703167e-001
    outer loop
      vertex -2.785345e+001  1.104040e+001 -4.226827e+000
      vertex -3.326108e+001  7.069860e+000 -1.000000e+001
      vertex -1.931852e+001  5.176381e+000  1.000000e+001
    endloop
  endfacet
  facet normal -7.526091e-001  3.117407e-001  5.799976e-001
    outer loop
      vertex -2.785345e+001  1.104040e+001 -4.226827e+000
      vertex -1.931852e+001  5.176381e+000  1.000000e+001
      vertex -1.732051e+001  1.000000e+001  1.000000e+001
    endloop
  endfacet
  facet normal -7.401441e-001  3.509017e-001  5.736328e-001
    outer loop
      vertex -2.785345e+001  1.104040e+001 -4.226827e+000
      vertex -1.732051e+001  1.000000e+001  1.000000e+001
      vertex -2.556994e+001  1.426444e+001 -3.252670e+000
    endloop
  endfacet
  facet normal  3.976394e-001  7.160679e-001  5.736982e-001
    outer loop
      vertex  1.000000e+001  1.732051e+001  1.000000e+001
      vertex  1.290634e+001  2.281487e+001  1.127723e+000
      vertex  1.200331e+001  2.211137e+001  2.631704e+000
    endloop
  endfacet
  facet normal  3.671864e-001  7.310188e-001  5.751396e-001
    outer loop
      vertex  1.000000e+001  1.732051e+001  1.000000e+001
      vertex  1.200331e+001  2.211137e+001  2.631704e+000
      vertex  1.016778e+001  2.219883e+001  3.692400e+000
    endloop
  endfacet
  facet normal  3.267937e-001  7.433689e-001  5.836168e-001
    outer loop
      vertex  1.000000e+001  1.732051e+001  1.000000e+001
      vertex  1.016778e+001  2.219883e+001  3.692400e+000
      vertex  9.369699e+000  2.247960e+001  3.781658e+000
    endloop
  endfacet
  facet normal  2.943817e-001  7.499586e-001  5.923694e-001
    outer loop
      vertex  1.000000e+001  1.732051e+001  1.000000e+001
      vertex  9.369699e+000  2.247960e+001  3.781658e+000
      vertex  8.432803e+000  2.285118e+001  3.776815e+000
    endloop
  endfacet
  facet normal  3.098686e-001  7.480894e-001  5.868081e-001
    outer loop
      vertex  1.000000e+001  1.732051e+001  1.000000e+001
      vertex  8.432803e+000  2.285118e+001  3.776815e+000
      vertex  5.176381e+000  1.931852e+001  1.000000e+001
    endloop
  endfacet
  facet normal  3.354846e-001  7.535104e-001  5.653956e-001
    outer loop
      vertex  1.700208e+001  2.944846e+001 -1.000000e+001
      vertex  1.050786e+001  3.233987e+001 -1.000000e+001
      vertex  1.296953e+001  2.470902e+001 -1.290922e+000
    endloop
  endfacet
  facet normal  3.909922e-001  7.202690e-001  5.730074e-001
    outer loop
      vertex  1.700208e+001  2.944846e+001 -1.000000e+001
      vertex  1.296953e+001  2.470902e+001 -1.290922e+000
      vertex  1.311686e+001  2.359235e+001  1.219103e-002
    endloop
  endfacet
  facet normal  4.014792e-001  7.141045e-001  5.734712e-001
    outer loop
      vertex  1.700208e+001  2.944846e+001 -1.000000e+001
      vertex  1.311686e+001  2.359235e+001  1.219103e-002
      vertex  1.290634e+001  2.281487e+001  1.127723e+000
    endloop
  endfacet
  facet normal  4.064593e-001  7.111999e-001  5.735727e-001
    outer loop
      vertex  1.700208e+001  2.944846e+001 -1.000000e+001
      vertex  1.290634e+001  2.281487e+001  1.127723e+000
      vertex  1.000000e+001  1.732051e+001  1.000000e+001
    endloop
  endfacet
  facet normal  4.823532e-001  6.639023e-001  5.714623e-001
    outer loop
      vertex  1.700208e+001  2.944846e+001 -1.000000e+001
      vertex  1.000000e+001  1.732051e+001  1.000000e+001
      vertex  2.275322e+001  2.527001e+001 -1.000000e+001
    endloop
  endfacet
  facet normal -5.427566e-001  6.204076e-001  5.661359e-001
    outer loop
      vertex -1.520366e+001  2.199763e+001  3.737724e-001
      vertex -2.080226e+001  1.873621e+001 -1.419564e+000
      vertex -1.414214e+001  1.414214e+001  1.000000e+001
    endloop
  endfacet
  facet normal -6.378055e-001  5.099986e-001  5.771530e-001
    outer loop
      vertex -1.414214e+001  1.414214e+001  1.000000e+001
      vertex -2.080226e+001  1.873621e+001 -1.419564e+000
      vertex -2.331062e+001  1.665121e+001 -2.349117e+000
    endloop
  endfacet
  facet normal -6.460610e-001  4.957402e-001  5.803851e-001
    outer loop
      vertex -1.414214e+001  1.414214e+001  1.000000e+001
      vertex -2.331062e+001  1.665121e+001 -2.349117e+000
      vertex -1.732051e+001  1.000000e+001  1.000000e+001
    endloop
  endfacet
  facet normal  -0.000000e+000  1.221700e-002  9.999253e-001
    outer loop
      vertex  1.000000e+001  1.000000e+002  2.000000e+000
      vertex  9.000000e+000  1.000000e+002  2.000000e+000
      vertex  1.000000e+001  2.396737e+001  2.928960e+000
    endloop
  endfacet
  facet normal  3.213210e-008  1.221700e-002  9.999254e-001
    outer loop
      vertex  1.000000e+001  2.396737e+001  2.928960e+000
      vertex  9.000000e+000  1.000000e+002  2.000000e+000
      vertex  9.000000e+000  2.436374e+001  2.924117e+000
    endloop
  endfacet
  facet normal  9.437799e-001  1.116757e-002 -3.303855e-001
    outer loop
      vertex  1.191476e+001  2.499980e+001  1.077973e+000
      vertex  1.142474e+001  2.762175e+001 -2.331812e-001
      vertex  1.100000e+001  1.000000e+002  1.000000e+000
    endloop
  endfacet
  facet normal  9.238136e-001  1.194099e-002 -3.826563e-001
    outer loop
      vertex  1.100000e+001  1.000000e+002  1.000000e+000
      vertex  1.142474e+001  2.762175e+001 -2.331812e-001
      vertex  1.070711e+001  1.000000e+002  2.928932e-001
    endloop
  endfacet
  facet normal  3.826591e-001  1.128716e-002  9.238207e-001
    outer loop
      vertex  1.070711e+001  1.000000e+002  1.707107e+000
      vertex  1.000000e+001  1.000000e+002  2.000000e+000
      vertex  1.000000e+001  2.396737e+001  2.928960e+000
    endloop
  endfacet
  facet normal  1.107169e-001  1.493984e-002  9.937397e-001
    outer loop
      vertex  1.070711e+001  1.000000e+002  1.707107e+000
      vertex  1.000000e+001  2.396737e+001  2.928960e+000
      vertex  1.041775e+001  2.366389e+001  2.886979e+000
    endloop
  endfacet
  facet normal  3.490128e-001  1.315998e-002  9.370255e-001
    outer loop
      vertex  1.070711e+001  1.000000e+002  1.707107e+000
      vertex  1.041775e+001  2.366389e+001  2.886979e+000
      vertex  1.091827e+001  2.346624e+001  2.703325e+000
    endloop
  endfacet
  facet normal  5.975258e-001  1.208493e-002  8.017587e-001
    outer loop
      vertex  1.070711e+001  1.000000e+002  1.707107e+000
      vertex  1.091827e+001  2.346624e+001  2.703325e+000
      vertex  1.136928e+001  2.352677e+001  2.366293e+000
    endloop
  endfacet
  facet normal  7.691284e-001  1.216768e-002  6.389785e-001
    outer loop
      vertex  1.070711e+001  1.000000e+002  1.707107e+000
      vertex  1.136928e+001  2.352677e+001  2.366293e+000
      vertex  1.159221e+001  2.371717e+001  2.094328e+000
    endloop
  endfacet
  facet normal  8.928678e-001  1.264485e-002  4.501411e-001
    outer loop
      vertex  1.070711e+001  1.000000e+002  1.707107e+000
      vertex  1.159221e+001  2.371717e+001  2.094328e+000
      vertex  1.182154e+001  2.421639e+001  1.625433e+000
    endloop
  endfacet
  facet normal  9.821384e-001  1.424054e-002  1.876203e-001
    outer loop
      vertex  1.070711e+001  1.000000e+002  1.707107e+000
      vertex  1.182154e+001  2.421639e+001  1.625433e+000
      vertex  1.191476e+001  2.499980e+001  1.077973e+000
    endloop
  endfacet
  facet normal  9.238166e-001  1.166539e-002  3.826576e-001
    outer loop
      vertex  1.070711e+001  1.000000e+002  1.707107e+000
      vertex  1.191476e+001  2.499980e+001  1.077973e+000
      vertex  1.100000e+001  1.000000e+002  1.000000e+000
    endloop
  endfacet
  facet normal  5.561135e-001  1.155414e-002 -8.310261e-001
    outer loop
      vertex  1.142474e+001  2.762175e+001 -2.331812e-001
      vertex  1.059176e+001  2.920349e+001 -7.686132e-001
      vertex  1.070711e+001  1.000000e+002  2.928932e-001
    endloop
  endfacet
  facet normal  1.631005e-001  1.452565e-002 -9.865026e-001
    outer loop
      vertex  1.070711e+001  1.000000e+002  2.928932e-001
      vertex  1.059176e+001  2.920349e+001 -7.686132e-001
      vertex  1.000000e+001  2.978770e+001 -8.578478e-001
    endloop
  endfacet
  facet normal  3.826592e-001  1.128716e-002 -9.238207e-001
    outer loop
      vertex  1.070711e+001  1.000000e+002  2.928932e-001
      vertex  1.000000e+001  2.978770e+001 -8.578478e-001
      vertex  1.000000e+001  1.000000e+002  0.000000e+000
    endloop
  endfacet
  facet normal -2.756754e-009  1.221700e-002 -9.999254e-001
    outer loop
      vertex  1.000000e+001  1.000000e+002  0.000000e+000
      vertex  1.000000e+001  2.978770e+001 -8.578478e-001
      vertex  7.497961e+000  3.050681e+001 -8.490617e-001
    endloop
  endfacet
  facet normal  3.971751e-010  1.221700e-002 -9.999254e-001
    outer loop
      vertex  1.000000e+001  1.000000e+002  0.000000e+000
      vertex  7.497961e+000  3.050681e+001 -8.490617e-001
      vertex  1.053794e+000  3.138881e+001 -8.382856e-001
    endloop
  endfacet
  facet normal  2.840480e-009  1.221700e-002 -9.999254e-001
    outer loop
      vertex  1.000000e+001  1.000000e+002  0.000000e+000
      vertex  1.053794e+000  3.138881e+001 -8.382856e-001
      vertex -1.260915e+001  7.597740e+001 -2.935060e-001
    endloop
  endfacet
  facet normal  0.000000e+000  1.221700e-002 -9.999254e-001
    outer loop
      vertex  1.000000e+001  1.000000e+002  0.000000e+000
      vertex -1.260915e+001  7.597740e+001 -2.935060e-001
      vertex -1.000000e+001  1.000000e+002  0.000000e+000
    endloop
  endfacet
  facet normal  4.420012e-009  1.221700e-002 -9.999253e-001
    outer loop
      vertex -1.260915e+001  7.597740e+001 -2.935060e-001
      vertex  1.053794e+000  3.138881e+001 -8.382856e-001
      vertex -5.434639e+000  3.093699e+001 -8.438058e-001
    endloop
  endfacet
  facet normal  3.097894e-009  1.221700e-002 -9.999253e-001
    outer loop
      vertex -1.260915e+001  7.597740e+001 -2.935060e-001
      vertex -5.434639e+000  3.093699e+001 -8.438058e-001
      vertex -1.154258e+001  2.923018e+001 -8.646595e-001
    endloop
  endfacet
  facet normal -2.331163e-010  1.221700e-002 -9.999254e-001
    outer loop
      vertex -1.260915e+001  7.597740e+001 -2.935060e-001
      vertex -1.154258e+001  2.923018e+001 -8.646595e-001
      vertex -1.718940e+001  2.634113e+001 -8.999577e-001
    endloop
  endfacet
  facet normal -8.172083e-001 -6.884813e-002  5.722154e-001
    outer loop
      vertex -3.400415e+001  7.163439e-015 -1.000000e+001
      vertex -3.352485e+001 -5.689130e+000 -1.000000e+001
      vertex -2.000000e+001  2.449213e-015  1.000000e+001
    endloop
  endfacet
  facet normal -8.093283e-001 -1.065502e-001  5.776112e-001
    outer loop
      vertex -3.352485e+001 -5.689130e+000 -1.000000e+001
      vertex -1.931852e+001 -5.176381e+000  1.000000e+001
      vertex -2.000000e+001  2.449213e-015  1.000000e+001
    endloop
  endfacet
  facet normal  8.089530e-001 -1.065008e-001  5.781458e-001
    outer loop
      vertex  1.931852e+001 -5.176381e+000  1.000000e+001
      vertex  3.377626e+001 -3.930164e+000 -1.000000e+001
      vertex  2.000000e+001  0.000000e+000  1.000000e+001
    endloop
  endfacet
  facet normal  8.182296e-001 -4.744413e-002  5.729305e-001
    outer loop
      vertex  3.377626e+001 -3.930164e+000 -1.000000e+001
      vertex  3.400415e+001 -1.365741e-014 -1.000000e+001
      vertex  2.000000e+001  0.000000e+000  1.000000e+001
    endloop
  endfacet
  facet normal -6.473476e-001 -4.967275e-001  5.781028e-001
    outer loop
      vertex -2.660265e+001 -2.117974e+001 -1.000000e+001
      vertex -1.414214e+001 -1.414214e+001  1.000000e+001
      vertex -1.732051e+001 -1.000000e+001  1.000000e+001
    endloop
  endfacet
  facet normal -6.826729e-001 -4.554486e-001  5.714231e-001
    outer loop
      vertex -1.732051e+001 -1.000000e+001  1.000000e+001
      vertex -2.977119e+001 -1.643040e+001 -1.000000e+001
      vertex -2.660265e+001 -2.117974e+001 -1.000000e+001
    endloop
  endfacet
  facet normal -5.973189e-001 -5.636883e-001  5.704958e-001
    outer loop
      vertex -1.414214e+001 -1.414214e+001  1.000000e+001
      vertex -2.660265e+001 -2.117974e+001 -1.000000e+001
      vertex -2.268416e+001 -2.533201e+001 -1.000000e+001
    endloop
  endfacet
  facet normal -2.505087e-001 -7.818625e-001  5.709085e-001
    outer loop
      vertex -1.305726e+001 -3.139729e+001 -1.000000e+001
      vertex -7.620230e+000 -3.313932e+001 -1.000000e+001
      vertex -5.176381e+000 -1.931852e+001  1.000000e+001
    endloop
  endfacet
  facet normal -3.122159e-001 -7.537564e-001  5.782496e-001
    outer loop
      vertex -1.000000e+001 -1.732051e+001  1.000000e+001
      vertex -1.305726e+001 -3.139729e+001 -1.000000e+001
      vertex -5.176381e+000 -1.931852e+001  1.000000e+001
    endloop
  endfacet
  facet normal -1.067185e-001 -8.106065e-001  5.757848e-001
    outer loop
      vertex -1.968383e+000 -3.394713e+001 -1.000000e+001
      vertex -3.673819e-015 -2.000000e+001  1.000000e+001
      vertex -5.176381e+000 -1.931852e+001  1.000000e+001
    endloop
  endfacet
  facet normal -1.158389e-001 -8.104655e-001  5.742187e-001
    outer loop
      vertex -7.620230e+000 -3.313932e+001 -1.000000e+001
      vertex -1.968383e+000 -3.394713e+001 -1.000000e+001
      vertex -5.176381e+000 -1.931852e+001  1.000000e+001
    endloop
  endfacet
  facet normal  1.583801e-001 -8.051541e-001  5.715264e-001
    outer loop
      vertex  3.738953e+000 -3.379797e+001 -1.000000e+001
      vertex  9.340885e+000 -3.269602e+001 -1.000000e+001
      vertex  5.176381e+000 -1.931852e+001  1.000000e+001
    endloop
  endfacet
  facet normal  1.065095e-001 -8.090187e-001  5.780523e-001
    outer loop
      vertex -3.673819e-015 -2.000000e+001  1.000000e+001
      vertex  3.738953e+000 -3.379797e+001 -1.000000e+001
      vertex  5.176381e+000 -1.931852e+001  1.000000e+001
    endloop
  endfacet
  facet normal  2.145830e-002 -8.210502e-001  5.704527e-001
    outer loop
      vertex -3.673819e-015 -2.000000e+001  1.000000e+001
      vertex -1.968383e+000 -3.394713e+001 -1.000000e+001
      vertex  3.738953e+000 -3.379797e+001 -1.000000e+001
    endloop
  endfacet
  facet normal  3.125762e-001 -7.546264e-001  5.769185e-001
    outer loop
      vertex  1.467950e+001 -3.067237e+001 -1.000000e+001
      vertex  1.000000e+001 -1.732051e+001  1.000000e+001
      vertex  5.176381e+000 -1.931852e+001  1.000000e+001
    endloop
  endfacet
  facet normal  2.904772e-001 -7.663122e-001  5.730520e-001
    outer loop
      vertex  9.340885e+000 -3.269602e+001 -1.000000e+001
      vertex  1.467950e+001 -3.067237e+001 -1.000000e+001
      vertex  5.176381e+000 -1.931852e+001  1.000000e+001
    endloop
  endfacet
  facet normal  6.475712e-001 -4.968990e-001  5.777048e-001
    outer loop
      vertex  1.414214e+001 -1.414214e+001  1.000000e+001
      vertex  2.767267e+001 -1.976121e+001 -1.000000e+001
      vertex  1.732051e+001 -1.000000e+001  1.000000e+001
    endloop
  endfacet
  facet normal  6.251053e-001 -5.309994e-001  5.720866e-001
    outer loop
      vertex  1.414214e+001 -1.414214e+001  1.000000e+001
      vertex  2.397643e+001 -2.411251e+001 -1.000000e+001
      vertex  2.767267e+001 -1.976121e+001 -1.000000e+001
    endloop
  endfacet
  facet normal  8.043830e-001 -1.629621e-001  5.713241e-001
    outer loop
      vertex  1.931852e+001 -5.176381e+000  1.000000e+001
      vertex  3.264264e+001 -9.525771e+000 -1.000000e+001
      vertex  3.377626e+001 -3.930164e+000 -1.000000e+001
    endloop
  endfacet
  facet normal -7.954693e-001 -2.049358e-001  5.702893e-001
    outer loop
      vertex -3.352485e+001 -5.689130e+000 -1.000000e+001
      vertex -3.210049e+001 -1.121788e+001 -1.000000e+001
      vertex -1.931852e+001 -5.176381e+000  1.000000e+001
    endloop
  endfacet
  facet normal -7.455844e-001 -3.331758e-001  5.771461e-001
    outer loop
      vertex -1.931852e+001 -5.176381e+000  1.000000e+001
      vertex -3.210049e+001 -1.121788e+001 -1.000000e+001
      vertex -2.977119e+001 -1.643040e+001 -1.000000e+001
    endloop
  endfacet
  facet normal -7.575163e-001 -3.137733e-001  5.724642e-001
    outer loop
      vertex -1.931852e+001 -5.176381e+000  1.000000e+001
      vertex -2.977119e+001 -1.643040e+001 -1.000000e+001
      vertex -1.732051e+001 -1.000000e+001  1.000000e+001
    endloop
  endfacet
  facet normal -3.778115e-001 -7.289758e-001  5.708351e-001
    outer loop
      vertex -1.305726e+001 -3.139729e+001 -1.000000e+001
      vertex -1.000000e+001 -1.732051e+001  1.000000e+001
      vertex -1.812620e+001 -2.877018e+001 -1.000000e+001
    endloop
  endfacet
  facet normal -4.983590e-001 -6.494739e-001  5.743012e-001
    outer loop
      vertex -1.812620e+001 -2.877018e+001 -1.000000e+001
      vertex -1.000000e+001 -1.732051e+001  1.000000e+001
      vertex -1.414214e+001 -1.414214e+001  1.000000e+001
    endloop
  endfacet
  facet normal -4.924490e-001 -6.528375e-001  5.755842e-001
    outer loop
      vertex -1.812620e+001 -2.877018e+001 -1.000000e+001
      vertex -1.414214e+001 -1.414214e+001  1.000000e+001
      vertex -2.268416e+001 -2.533201e+001 -1.000000e+001
    endloop
  endfacet
  facet normal  4.155717e-001 -7.085797e-001  5.702764e-001
    outer loop
      vertex  1.467950e+001 -3.067237e+001 -1.000000e+001
      vertex  1.960429e+001 -2.778406e+001 -1.000000e+001
      vertex  1.000000e+001 -1.732051e+001  1.000000e+001
    endloop
  endfacet
  facet normal  5.244923e-001 -6.245742e-001  5.786319e-001
    outer loop
      vertex  1.000000e+001 -1.732051e+001  1.000000e+001
      vertex  1.960429e+001 -2.778406e+001 -1.000000e+001
      vertex  2.397643e+001 -2.411251e+001 -1.000000e+001
    endloop
  endfacet
  facet normal  4.999262e-001 -6.515163e-001  5.706141e-001
    outer loop
      vertex  1.000000e+001 -1.732051e+001  1.000000e+001
      vertex  2.397643e+001 -2.411251e+001 -1.000000e+001
      vertex  1.414214e+001 -1.414214e+001  1.000000e+001
    endloop
  endfacet
  facet normal  7.061983e-001 -4.195644e-001  5.703067e-001
    outer loop
      vertex  2.767267e+001 -1.976121e+001 -1.000000e+001
      vertex  3.058881e+001 -1.485285e+001 -1.000000e+001
      vertex  1.732051e+001 -1.000000e+001  1.000000e+001
    endloop
  endfacet
  facet normal  7.621297e-001 -2.938350e-001  5.769051e-001
    outer loop
      vertex  1.732051e+001 -1.000000e+001  1.000000e+001
      vertex  3.058881e+001 -1.485285e+001 -1.000000e+001
      vertex  3.264264e+001 -9.525771e+000 -1.000000e+001
    endloop
  endfacet
  facet normal  7.573282e-001 -3.136954e-001  5.727558e-001
    outer loop
      vertex  1.732051e+001 -1.000000e+001  1.000000e+001
      vertex  3.264264e+001 -9.525771e+000 -1.000000e+001
      vertex  1.931852e+001 -5.176381e+000  1.000000e+001
    endloop
  endfacet
  facet normal -3.039398e-001  3.106302e-001 -9.006273e-001
    outer loop
      vertex -1.673295e+001  2.506361e+001 -1.417050e+000
      vertex -1.786522e+001  2.491863e+001 -1.084940e+000
      vertex -1.728345e+001  2.595740e+001 -9.229984e-001
    endloop
  endfacet
  facet normal -8.825603e-001  4.671426e-001  5.352801e-002
    outer loop
      vertex -2.674915e+001  1.309212e+001 -3.924804e+000
      vertex -2.499476e+001  1.643329e+001 -4.157316e+000
      vertex -2.785345e+001  1.104040e+001 -4.226827e+000
    endloop
  endfacet
  facet normal -3.043055e-001  4.332597e-001 -8.483419e-001
    outer loop
      vertex -1.673295e+001  2.506361e+001 -1.417050e+000
      vertex -1.934380e+001  2.301904e+001 -1.524712e+000
      vertex -1.786522e+001  2.491863e+001 -1.084940e+000
    endloop
  endfacet
  facet normal -5.367193e-001  7.094256e-001 -4.567796e-001
    outer loop
      vertex -1.673295e+001  2.506361e+001 -1.417050e+000
      vertex -1.636917e+001  2.452785e+001 -2.676580e+000
      vertex -1.934380e+001  2.301904e+001 -1.524712e+000
    endloop
  endfacet
  facet normal -7.201966e-001  6.511508e-001 -2.394150e-001
    outer loop
      vertex -2.325221e+001  1.821901e+001 -2.822531e+000
      vertex -1.934380e+001  2.301904e+001 -1.524712e+000
      vertex -2.095517e+001  2.079577e+001 -2.724223e+000
    endloop
  endfacet
  facet normal -7.283141e-001  6.399010e-001  2.451230e-001
    outer loop
      vertex -2.325221e+001  1.821901e+001 -2.822531e+000
      vertex -2.095517e+001  2.079577e+001 -2.724223e+000
      vertex -2.119280e+001  2.105146e+001 -4.097782e+000
    endloop
  endfacet
  facet normal -7.632717e-001  6.263280e-001  1.585228e-001
    outer loop
      vertex -2.325221e+001  1.821901e+001 -2.822531e+000
      vertex -2.119280e+001  2.105146e+001 -4.097782e+000
      vertex -2.499476e+001  1.643329e+001 -4.157316e+000
    endloop
  endfacet
  facet normal -7.852308e-001  4.424565e-001  4.331799e-001
    outer loop
      vertex -2.325221e+001  1.821901e+001 -2.822531e+000
      vertex -2.499476e+001  1.643329e+001 -4.157316e+000
      vertex -2.674915e+001  1.309212e+001 -3.924804e+000
    endloop
  endfacet
  facet normal -9.651492e-002  3.534518e-001 -9.304605e-001
    outer loop
      vertex -5.207705e+000  2.963922e+001 -1.360327e+000
      vertex -1.120589e+001  2.794607e+001 -1.381317e+000
      vertex -5.434639e+000  3.093699e+001 -8.438058e-001
    endloop
  endfacet
  facet normal -9.465961e-002  3.501315e-001 -9.319053e-001
    outer loop
      vertex -5.434639e+000  3.093699e+001 -8.438058e-001
      vertex -1.120589e+001  2.794607e+001 -1.381317e+000
      vertex -1.154258e+001  2.923018e+001 -8.646595e-001
    endloop
  endfacet
  facet normal -1.770256e-001  3.270727e-001 -9.282700e-001
    outer loop
      vertex -1.120589e+001  2.794607e+001 -1.381317e+000
      vertex -1.728345e+001  2.595740e+001 -9.229984e-001
      vertex -1.154258e+001  2.923018e+001 -8.646595e-001
    endloop
  endfacet
  facet normal -2.790383e-002  6.672572e-002 -9.973811e-001
    outer loop
      vertex -1.154258e+001  2.923018e+001 -8.646595e-001
      vertex -1.728345e+001  2.595740e+001 -9.229984e-001
      vertex -1.718940e+001  2.634113e+001 -8.999577e-001
    endloop
  endfacet
  facet normal  9.782101e-002  3.517267e-001 -9.309776e-001
    outer loop
      vertex  9.582363e+000  2.853770e+001 -1.373983e+000
      vertex  7.497961e+000  3.050681e+001 -8.490617e-001
      vertex  1.000000e+001  2.978770e+001 -8.578478e-001
    endloop
  endfacet
  facet normal  9.778341e-002  3.516915e-001 -9.309949e-001
    outer loop
      vertex  7.497961e+000  3.050681e+001 -8.490617e-001
      vertex  9.582363e+000  2.853770e+001 -1.373983e+000
      vertex  7.184849e+000  2.922692e+001 -1.365438e+000
    endloop
  endfacet
  facet normal  2.443620e-001  8.556943e-001 -4.561519e-001
    outer loop
      vertex  7.184849e+000  2.922692e+001 -1.365438e+000
      vertex  9.582363e+000  2.853770e+001 -1.373983e+000
      vertex  9.373889e+000  2.792598e+001 -2.633200e+000
    endloop
  endfacet
  facet normal  2.442659e-001  8.556548e-001 -4.562773e-001
    outer loop
      vertex  7.184849e+000  2.922692e+001 -1.365438e+000
      vertex  9.373889e+000  2.792598e+001 -2.633200e+000
      vertex  7.028513e+000  2.860011e+001 -2.624593e+000
    endloop
  endfacet
  facet normal  2.685508e-001  9.311718e-001  2.465755e-001
    outer loop
      vertex  7.028513e+000  2.860011e+001 -2.624593e+000
      vertex  9.373889e+000  2.792598e+001 -2.633200e+000
      vertex  9.478987e+000  2.825888e+001 -4.004851e+000
    endloop
  endfacet
  facet normal  2.684372e-001  9.312640e-001  2.463511e-001
    outer loop
      vertex  7.028513e+000  2.860011e+001 -2.624593e+000
      vertex  9.478987e+000  2.825888e+001 -4.004851e+000
      vertex  7.107231e+000  2.894022e+001 -3.996065e+000
    endloop
  endfacet
  facet normal -5.379388e-001  6.675920e-001 -5.147260e-001
    outer loop
      vertex -1.934380e+001  2.301904e+001 -1.524712e+000
      vertex -1.636917e+001  2.452785e+001 -2.676580e+000
      vertex -2.095517e+001  2.079577e+001 -2.724223e+000
    endloop
  endfacet
  facet normal -6.135554e-001  7.508168e-001  2.445892e-001
    outer loop
      vertex -2.095517e+001  2.079577e+001 -2.724223e+000
      vertex -1.636917e+001  2.452785e+001 -2.676580e+000
      vertex -1.655370e+001  2.482419e+001 -4.049140e+000
    endloop
  endfacet
  facet normal -6.131287e-001  7.507594e-001  2.458322e-001
    outer loop
      vertex -2.095517e+001  2.079577e+001 -2.724223e+000
      vertex -1.655370e+001  2.482419e+001 -4.049140e+000
      vertex -2.119280e+001  2.105146e+001 -4.097782e+000
    endloop
  endfacet
  facet normal -1.928673e-001  3.810281e-001 -9.042233e-001
    outer loop
      vertex -1.728345e+001  2.595740e+001 -9.229984e-001
      vertex -1.120589e+001  2.794607e+001 -1.381317e+000
      vertex -1.673295e+001  2.506361e+001 -1.417050e+000
    endloop
  endfacet
  facet normal -4.094073e-001  7.906726e-001 -4.552169e-001
    outer loop
      vertex -1.673295e+001  2.506361e+001 -1.417050e+000
      vertex -1.120589e+001  2.794607e+001 -1.381317e+000
      vertex -1.096212e+001  2.734729e+001 -2.640587e+000
    endloop
  endfacet
  facet normal -4.094141e-001  7.909688e-001 -4.546961e-001
    outer loop
      vertex -1.673295e+001  2.506361e+001 -1.417050e+000
      vertex -1.096212e+001  2.734729e+001 -2.640587e+000
      vertex -1.636917e+001  2.452785e+001 -2.676580e+000
    endloop
  endfacet
  facet normal -4.495577e-001  8.590240e-001  2.448988e-001
    outer loop
      vertex -1.636917e+001  2.452785e+001 -2.676580e+000
      vertex -1.096212e+001  2.734729e+001 -2.640587e+000
      vertex -1.108514e+001  2.767400e+001 -4.012393e+000
    endloop
  endfacet
  facet normal -4.492546e-001  8.589141e-001  2.458388e-001
    outer loop
      vertex -1.636917e+001  2.452785e+001 -2.676580e+000
      vertex -1.108514e+001  2.767400e+001 -4.012393e+000
      vertex -1.655370e+001  2.482419e+001 -4.049140e+000
    endloop
  endfacet
  facet normal -2.404782e-001  8.575630e-001 -4.547042e-001
    outer loop
      vertex -5.207705e+000  2.963922e+001 -1.360327e+000
      vertex -5.094381e+000  2.900337e+001 -2.619445e+000
      vertex -1.120589e+001  2.794607e+001 -1.381317e+000
    endloop
  endfacet
  facet normal -2.404457e-001  8.577345e-001 -4.543978e-001
    outer loop
      vertex -1.120589e+001  2.794607e+001 -1.381317e+000
      vertex -5.094381e+000  2.900337e+001 -2.619445e+000
      vertex -1.096212e+001  2.734729e+001 -2.640587e+000
    endloop
  endfacet
  facet normal -2.641473e-001  9.327804e-001  2.452488e-001
    outer loop
      vertex -5.094381e+000  2.900337e+001 -2.619445e+000
      vertex -5.151399e+000  2.934779e+001 -3.990809e+000
      vertex -1.096212e+001  2.734729e+001 -2.640587e+000
    endloop
  endfacet
  facet normal -2.639852e-001  9.326813e-001  2.457995e-001
    outer loop
      vertex -1.096212e+001  2.734729e+001 -2.640587e+000
      vertex -5.151399e+000  2.934779e+001 -3.990809e+000
      vertex -1.108514e+001  2.767400e+001 -4.012393e+000
    endloop
  endfacet
  facet normal -2.468919e-002  3.659224e-001 -9.303178e-001
    outer loop
      vertex  1.009793e+000  3.007225e+001 -1.354959e+000
      vertex -5.434639e+000  3.093699e+001 -8.438058e-001
      vertex  1.053794e+000  3.138881e+001 -8.382856e-001
    endloop
  endfacet
  facet normal -2.468445e-002  3.659511e-001 -9.303066e-001
    outer loop
      vertex -5.434639e+000  3.093699e+001 -8.438058e-001
      vertex  1.009793e+000  3.007225e+001 -1.354959e+000
      vertex -5.207705e+000  2.963922e+001 -1.360327e+000
    endloop
  endfacet
  facet normal -6.150166e-002  8.886716e-001 -4.544012e-001
    outer loop
      vertex -5.207705e+000  2.963922e+001 -1.360327e+000
      vertex  1.009793e+000  3.007225e+001 -1.354959e+000
      vertex  9.878172e-001  2.942693e+001 -2.614038e+000
    endloop
  endfacet
  facet normal -6.148470e-002  8.887121e-001 -4.543242e-001
    outer loop
      vertex -5.207705e+000  2.963922e+001 -1.360327e+000
      vertex  9.878172e-001  2.942693e+001 -2.614038e+000
      vertex -5.094381e+000  2.900337e+001 -2.619445e+000
    endloop
  endfacet
  facet normal -6.756104e-002  9.670330e-001  2.455254e-001
    outer loop
      vertex -5.094381e+000  2.900337e+001 -2.619445e+000
      vertex  9.878172e-001  2.942693e+001 -2.614038e+000
      vertex  9.988659e-001  2.977586e+001 -3.985289e+000
    endloop
  endfacet
  facet normal -6.752489e-002  9.669994e-001  2.456677e-001
    outer loop
      vertex -5.094381e+000  2.900337e+001 -2.619445e+000
      vertex  9.988659e-001  2.977586e+001 -3.985289e+000
      vertex -5.151399e+000  2.934779e+001 -3.990809e+000
    endloop
  endfacet
  facet normal  4.820236e-002  3.635512e-001 -9.303263e-001
    outer loop
      vertex  7.184849e+000  2.922692e+001 -1.365438e+000
      vertex  1.053794e+000  3.138881e+001 -8.382856e-001
      vertex  7.497961e+000  3.050681e+001 -8.490617e-001
    endloop
  endfacet
  facet normal  4.818203e-002  3.634987e-001 -9.303478e-001
    outer loop
      vertex  1.053794e+000  3.138881e+001 -8.382856e-001
      vertex  7.184849e+000  2.922692e+001 -1.365438e+000
      vertex  1.009793e+000  3.007225e+001 -1.354959e+000
    endloop
  endfacet
  facet normal  1.200666e-001  8.827081e-001 -4.543241e-001
    outer loop
      vertex  1.009793e+000  3.007225e+001 -1.354959e+000
      vertex  7.184849e+000  2.922692e+001 -1.365438e+000
      vertex  7.028513e+000  2.860011e+001 -2.624593e+000
    endloop
  endfacet
  facet normal  1.200170e-001  8.826365e-001 -4.544762e-001
    outer loop
      vertex  1.009793e+000  3.007225e+001 -1.354959e+000
      vertex  7.028513e+000  2.860011e+001 -2.624593e+000
      vertex  9.878172e-001  2.942693e+001 -2.614038e+000
    endloop
  endfacet
  facet normal  1.318746e-001  9.603283e-001  2.457205e-001
    outer loop
      vertex  9.878172e-001  2.942693e+001 -2.614038e+000
      vertex  7.028513e+000  2.860011e+001 -2.624593e+000
      vertex  7.107231e+000  2.894022e+001 -3.996065e+000
    endloop
  endfacet
  facet normal  1.318188e-001  9.604063e-001  2.454457e-001
    outer loop
      vertex  9.878172e-001  2.942693e+001 -2.614038e+000
      vertex  7.107231e+000  2.894022e+001 -3.996065e+000
      vertex  9.988659e-001  2.977586e+001 -3.985289e+000
    endloop
  endfacet
  facet normal -1.504668e-001  2.448395e-001  9.578170e-001
    outer loop
      vertex -2.194797e+000  2.545992e+001  2.447604e+000
      vertex -2.172130e+000  2.636457e+001  2.219915e+000
      vertex -5.583065e+000  2.527316e+001  1.963070e+000
    endloop
  endfacet
  facet normal -1.496128e-001  2.419672e-001  9.586803e-001
    outer loop
      vertex -5.583065e+000  2.527316e+001  1.963070e+000
      vertex -2.172130e+000  2.636457e+001  2.219915e+000
      vertex -5.645742e+000  2.615395e+001  1.730978e+000
    endloop
  endfacet
  facet normal -9.900475e-002  2.469584e-001  9.639551e-001
    outer loop
      vertex -5.583065e+000  2.527316e+001  1.963070e+000
      vertex -5.645742e+000  2.615395e+001  1.730978e+000
      vertex -8.891456e+000  2.405664e+001  1.934939e+000
    endloop
  endfacet
  facet normal -2.300004e-001  4.403375e-001  8.678725e-001
    outer loop
      vertex -8.891456e+000  2.405664e+001  1.934939e+000
      vertex -5.645742e+000  2.615395e+001  1.730978e+000
      vertex -9.067348e+000  2.556890e+001  1.121038e+000
    endloop
  endfacet
  facet normal -3.434933e-001  4.137945e-001  8.430815e-001
    outer loop
      vertex -8.891456e+000  2.405664e+001  1.934939e+000
      vertex -9.067348e+000  2.556890e+001  1.121038e+000
      vertex -1.520366e+001  2.199763e+001  3.737724e-001
    endloop
  endfacet
  facet normal -3.370605e-001  4.009046e-001  8.518601e-001
    outer loop
      vertex -1.520366e+001  2.199763e+001  3.737724e-001
      vertex -9.067348e+000  2.556890e+001  1.121038e+000
      vertex -1.560145e+001  2.332092e+001 -4.063987e-001
    endloop
  endfacet
  facet normal -4.619286e-001  3.432814e-001  8.177896e-001
    outer loop
      vertex -1.520366e+001  2.199763e+001  3.737724e-001
      vertex -1.560145e+001  2.332092e+001 -4.063987e-001
      vertex -2.080226e+001  1.873621e+001 -1.419564e+000
    endloop
  endfacet
  facet normal -4.094366e-001  2.720109e-001  8.708456e-001
    outer loop
      vertex -2.080226e+001  1.873621e+001 -1.419564e+000
      vertex -1.560145e+001  2.332092e+001 -4.063987e-001
      vertex -1.960945e+001  2.106406e+001 -1.585864e+000
    endloop
  endfacet
  facet normal -5.632499e-001  3.423380e-001  7.520335e-001
    outer loop
      vertex -2.080226e+001  1.873621e+001 -1.419564e+000
      vertex -1.960945e+001  2.106406e+001 -1.585864e+000
      vertex -2.331062e+001  1.665121e+001 -2.349117e+000
    endloop
  endfacet
  facet normal -4.910598e-001  2.685293e-001  8.287051e-001
    outer loop
      vertex -2.331062e+001  1.665121e+001 -2.349117e+000
      vertex -1.960945e+001  2.106406e+001 -1.585864e+000
      vertex -2.325221e+001  1.821901e+001 -2.822531e+000
    endloop
  endfacet
  facet normal -5.793033e-001  2.553254e-001  7.740908e-001
    outer loop
      vertex -2.331062e+001  1.665121e+001 -2.349117e+000
      vertex -2.325221e+001  1.821901e+001 -2.822531e+000
      vertex -2.556994e+001  1.426444e+001 -3.252670e+000
    endloop
  endfacet
  facet normal -6.976686e-001  3.403244e-001  6.304266e-001
    outer loop
      vertex -2.556994e+001  1.426444e+001 -3.252670e+000
      vertex -2.325221e+001  1.821901e+001 -2.822531e+000
      vertex -2.674915e+001  1.309212e+001 -3.924804e+000
    endloop
  endfacet
  facet normal -6.528509e-001  2.459192e-001  7.164562e-001
    outer loop
      vertex -2.556994e+001  1.426444e+001 -3.252670e+000
      vertex -2.674915e+001  1.309212e+001 -3.924804e+000
      vertex -2.785345e+001  1.104040e+001 -4.226827e+000
    endloop
  endfacet
  facet normal -1.513806e-001  3.906918e-001  9.079888e-001
    outer loop
      vertex -5.583065e+000  2.527316e+001  1.963070e+000
      vertex -8.891456e+000  2.405664e+001  1.934939e+000
      vertex -2.194797e+000  2.545992e+001  2.447604e+000
    endloop
  endfacet
  facet normal -1.931090e-001  6.544872e-001  7.309961e-001
    outer loop
      vertex -2.194797e+000  2.545992e+001  2.447604e+000
      vertex -8.891456e+000  2.405664e+001  1.934939e+000
      vertex -2.265309e+000  2.475752e+001  3.057861e+000
    endloop
  endfacet
  facet normal  3.648833e-002  2.486263e-001  9.679120e-001
    outer loop
      vertex  9.000000e+000  2.436374e+001  2.924117e+000
      vertex  3.501894e+000  2.588192e+001  2.741410e+000
      vertex  8.681222e+000  2.351061e+001  3.155275e+000
    endloop
  endfacet
  facet normal  3.073751e-002  2.366245e-001  9.711148e-001
    outer loop
      vertex  8.681222e+000  2.351061e+001  3.155275e+000
      vertex  3.501894e+000  2.588192e+001  2.741410e+000
      vertex  3.330312e+000  2.497761e+001  2.967188e+000
    endloop
  endfacet
  facet normal  1.511870e-001  6.472503e-001  7.471342e-001
    outer loop
      vertex  8.681222e+000  2.351061e+001  3.155275e+000
      vertex  3.330312e+000  2.497761e+001  2.967188e+000
      vertex  8.432803e+000  2.285118e+001  3.776815e+000
    endloop
  endfacet
  facet normal  1.475901e-001  6.409510e-001  7.532589e-001
    outer loop
      vertex  8.432803e+000  2.285118e+001  3.776815e+000
      vertex  3.330312e+000  2.497761e+001  2.967188e+000
      vertex  3.170465e+000  2.428184e+001  3.590540e+000
    endloop
  endfacet
  facet normal -6.711251e-002  2.536547e-001  9.649639e-001
    outer loop
      vertex  3.501894e+000  2.588192e+001  2.741410e+000
      vertex -2.172130e+000  2.636457e+001  2.219915e+000
      vertex  3.330312e+000  2.497761e+001  2.967188e+000
    endloop
  endfacet
  facet normal -6.953919e-002  2.451219e-001  9.669951e-001
    outer loop
      vertex  3.330312e+000  2.497761e+001  2.967188e+000
      vertex -2.172130e+000  2.636457e+001  2.219915e+000
      vertex -2.194797e+000  2.545992e+001  2.447604e+000
    endloop
  endfacet
  facet normal -1.153918e-002  6.687084e-001  7.434351e-001
    outer loop
      vertex  3.330312e+000  2.497761e+001  2.967188e+000
      vertex -2.194797e+000  2.545992e+001  2.447604e+000
      vertex  3.170465e+000  2.428184e+001  3.590540e+000
    endloop
  endfacet
  facet normal -1.641795e-002  6.567070e-001  7.539670e-001
    outer loop
      vertex  3.170465e+000  2.428184e+001  3.590540e+000
      vertex -2.194797e+000  2.545992e+001  2.447604e+000
      vertex -2.265309e+000  2.475752e+001  3.057861e+000
    endloop
  endfacet
  facet normal  8.658008e-002  2.302759e-001  9.692662e-001
    outer loop
      vertex  9.000000e+000  2.436374e+001  2.924117e+000
      vertex  8.681222e+000  2.351061e+001  3.155275e+000
      vertex  1.000000e+001  2.396737e+001  2.928960e+000
    endloop
  endfacet
  facet normal  8.656118e-002  2.303255e-001  9.692561e-001
    outer loop
      vertex  1.000000e+001  2.396737e+001  2.928960e+000
      vertex  8.681222e+000  2.351061e+001  3.155275e+000
      vertex  9.645731e+000  2.312814e+001  3.160026e+000
    endloop
  endfacet
  facet normal  2.406538e-001  6.161855e-001  7.499341e-001
    outer loop
      vertex  8.681222e+000  2.351061e+001  3.155275e+000
      vertex  8.432803e+000  2.285118e+001  3.776815e+000
      vertex  9.645731e+000  2.312814e+001  3.160026e+000
    endloop
  endfacet
  facet normal  2.405708e-001  6.163350e-001  7.498379e-001
    outer loop
      vertex  9.645731e+000  2.312814e+001  3.160026e+000
      vertex  8.432803e+000  2.285118e+001  3.776815e+000
      vertex  9.369699e+000  2.247960e+001  3.781658e+000
    endloop
  endfacet
  facet normal  4.456050e-001  3.717000e-001  8.144171e-001
    outer loop
      vertex  1.016778e+001  2.219883e+001  3.692400e+000
      vertex  1.091827e+001  2.346624e+001  2.703325e+000
      vertex  1.041775e+001  2.366389e+001  2.886979e+000
    endloop
  endfacet
  facet normal -2.758576e-002  4.851795e-001  8.739793e-001
    outer loop
      vertex  1.041775e+001  2.366389e+001  2.886979e+000
      vertex  9.645731e+000  2.312814e+001  3.160026e+000
      vertex  1.016778e+001  2.219883e+001  3.692400e+000
    endloop
  endfacet
  facet normal  9.704297e-001  2.250332e-001  8.732803e-002
    outer loop
      vertex  1.200863e+001  2.520936e+001 -5.051817e-001
      vertex  1.142474e+001  2.762175e+001 -2.331812e-001
      vertex  1.191476e+001  2.499980e+001  1.077973e+000
    endloop
  endfacet
  facet normal  9.441108e-001  3.148307e-001  9.765399e-002
    outer loop
      vertex  1.200863e+001  2.520936e+001 -5.051817e-001
      vertex  1.191476e+001  2.499980e+001  1.077973e+000
      vertex  1.226052e+001  2.416303e+001  4.328444e-001
    endloop
  endfacet
  facet normal  7.698454e-001  2.002884e-001 -6.059890e-001
    outer loop
      vertex  1.055419e+001  2.770243e+001 -1.312465e+000
      vertex  1.059176e+001  2.920349e+001 -7.686132e-001
      vertex  1.142474e+001  2.762175e+001 -2.331812e-001
    endloop
  endfacet
  facet normal  6.989875e-001  4.826155e-001 -5.277296e-001
    outer loop
      vertex  1.055419e+001  2.770243e+001 -1.312465e+000
      vertex  1.142474e+001  2.762175e+001 -2.331812e-001
      vertex  1.128876e+001  2.651958e+001 -1.421241e+000
    endloop
  endfacet
  facet normal  2.208252e-001  1.711487e-001  9.601794e-001
    outer loop
      vertex  1.000000e+001  2.396737e+001  2.928960e+000
      vertex  9.645731e+000  2.312814e+001  3.160026e+000
      vertex  1.041775e+001  2.366389e+001  2.886979e+000
    endloop
  endfacet
  facet normal  2.927229e-001  5.937952e-001  7.494802e-001
    outer loop
      vertex  9.369699e+000  2.247960e+001  3.781658e+000
      vertex  1.016778e+001  2.219883e+001  3.692400e+000
      vertex  9.645731e+000  2.312814e+001  3.160026e+000
    endloop
  endfacet
  facet normal  9.037279e-001  2.573130e-001 -3.421489e-001
    outer loop
      vertex  1.142474e+001  2.762175e+001 -2.331812e-001
      vertex  1.200863e+001  2.520936e+001 -5.051817e-001
      vertex  1.128876e+001  2.651958e+001 -1.421241e+000
    endloop
  endfacet
  facet normal  8.314785e-001  5.312971e-001 -1.623793e-001
    outer loop
      vertex  1.070370e+001  2.713316e+001 -2.409503e+000
      vertex  1.055419e+001  2.770243e+001 -1.312465e+000
      vertex  1.128876e+001  2.651958e+001 -1.421241e+000
    endloop
  endfacet
  facet normal  5.808927e-001  5.456480e-001  6.040131e-001
    outer loop
      vertex  1.200331e+001  2.211137e+001  2.631704e+000
      vertex  1.290634e+001  2.281487e+001  1.127723e+000
      vertex  1.219346e+001  2.342398e+001  1.263060e+000
    endloop
  endfacet
  facet normal  8.954113e-001  2.525946e-001  3.666534e-001
    outer loop
      vertex  1.200331e+001  2.211137e+001  2.631704e+000
      vertex  1.219346e+001  2.342398e+001  1.263060e+000
      vertex  1.182154e+001  2.421639e+001  1.625433e+000
    endloop
  endfacet
  facet normal  5.949603e-001  3.878944e-001  7.039604e-001
    outer loop
      vertex  1.200331e+001  2.211137e+001  2.631704e+000
      vertex  1.182154e+001  2.421639e+001  1.625433e+000
      vertex  1.159221e+001  2.371717e+001  2.094328e+000
    endloop
  endfacet
  facet normal  5.606323e-001  3.882843e-001  7.313868e-001
    outer loop
      vertex  1.200331e+001  2.211137e+001  2.631704e+000
      vertex  1.159221e+001  2.371717e+001  2.094328e+000
      vertex  1.136928e+001  2.352677e+001  2.366293e+000
    endloop
  endfacet
  facet normal  5.214100e-001  3.771033e-001  7.654572e-001
    outer loop
      vertex  1.200331e+001  2.211137e+001  2.631704e+000
      vertex  1.136928e+001  2.352677e+001  2.366293e+000
      vertex  1.091827e+001  2.346624e+001  2.703325e+000
    endloop
  endfacet
  facet normal  4.821109e-001  3.434895e-001  8.059677e-001
    outer loop
      vertex  1.200331e+001  2.211137e+001  2.631704e+000
      vertex  1.091827e+001  2.346624e+001  2.703325e+000
      vertex  1.016778e+001  2.219883e+001  3.692400e+000
    endloop
  endfacet
  facet normal  3.883675e-001  8.882456e-001  2.453377e-001
    outer loop
      vertex  9.478987e+000  2.825888e+001 -4.004851e+000
      vertex  9.373889e+000  2.792598e+001 -2.633200e+000
      vertex  1.063889e+001  2.769855e+001 -3.812275e+000
    endloop
  endfacet
  facet normal  3.712008e-001  9.010156e-001  2.244568e-001
    outer loop
      vertex  1.063889e+001  2.769855e+001 -3.812275e+000
      vertex  9.373889e+000  2.792598e+001 -2.633200e+000
      vertex  9.668209e+000  2.780769e+001 -2.645091e+000
    endloop
  endfacet
  facet normal  4.735947e-001  8.217065e-001  3.170274e-001
    outer loop
      vertex  1.063889e+001  2.769855e+001 -3.812275e+000
      vertex  9.668209e+000  2.780769e+001 -2.645091e+000
      vertex  1.134733e+001  2.716005e+001 -3.474838e+000
    endloop
  endfacet
  facet normal  4.701419e-001  8.282369e-001  3.049430e-001
    outer loop
      vertex  1.134733e+001  2.716005e+001 -3.474838e+000
      vertex  9.668209e+000  2.780769e+001 -2.645091e+000
      vertex  1.070370e+001  2.713316e+001 -2.409503e+000
    endloop
  endfacet
  facet normal  5.446396e-001  7.629238e-001  3.483028e-001
    outer loop
      vertex  1.134733e+001  2.716005e+001 -3.474838e+000
      vertex  1.070370e+001  2.713316e+001 -2.409503e+000
      vertex  1.224248e+001  2.616231e+001 -2.689130e+000
    endloop
  endfacet
  facet normal  4.073769e-001  2.798551e-001 -8.693246e-001
    outer loop
      vertex  1.000000e+001  2.978770e+001 -8.578478e-001
      vertex  1.059176e+001  2.920349e+001 -7.686132e-001
      vertex  9.782439e+000  2.841069e+001 -1.403090e+000
    endloop
  endfacet
  facet normal  3.832793e-001  3.061347e-001 -8.714234e-001
    outer loop
      vertex  9.782439e+000  2.841069e+001 -1.403090e+000
      vertex  1.059176e+001  2.920349e+001 -7.686132e-001
      vertex  1.055419e+001  2.770243e+001 -1.312465e+000
    endloop
  endfacet
  facet normal  6.493319e-001  6.589626e-001 -3.796532e-001
    outer loop
      vertex  9.782439e+000  2.841069e+001 -1.403090e+000
      vertex  1.055419e+001  2.770243e+001 -1.312465e+000
      vertex  9.668209e+000  2.780769e+001 -2.645091e+000
    endloop
  endfacet
  facet normal  5.672480e-001  7.600522e-001 -3.170966e-001
    outer loop
      vertex  9.668209e+000  2.780769e+001 -2.645091e+000
      vertex  1.055419e+001  2.770243e+001 -1.312465e+000
      vertex  1.070370e+001  2.713316e+001 -2.409503e+000
    endloop
  endfacet
  facet normal  3.200786e-001  8.403553e-001 -4.374386e-001
    outer loop
      vertex  9.668209e+000  2.780769e+001 -2.645091e+000
      vertex  9.373889e+000  2.792598e+001 -2.633200e+000
      vertex  9.782439e+000  2.841069e+001 -1.403090e+000
    endloop
  endfacet
  facet normal  4.306467e-001  7.817228e-001 -4.510576e-001
    outer loop
      vertex  9.782439e+000  2.841069e+001 -1.403090e+000
      vertex  9.373889e+000  2.792598e+001 -2.633200e+000
      vertex  9.582363e+000  2.853770e+001 -1.373983e+000
    endloop
  endfacet
  facet normal  8.957546e-002  3.544048e-001 -9.307918e-001
    outer loop
      vertex  9.782439e+000  2.841069e+001 -1.403090e+000
      vertex  9.582363e+000  2.853770e+001 -1.373983e+000
      vertex  1.000000e+001  2.978770e+001 -8.578478e-001
    endloop
  endfacet
  facet normal  9.328764e-001  1.250465e-001  3.377943e-001
    outer loop
      vertex  1.191476e+001  2.499980e+001  1.077973e+000
      vertex  1.182154e+001  2.421639e+001  1.625433e+000
      vertex  1.226052e+001  2.416303e+001  4.328444e-001
    endloop
  endfacet
  facet normal  9.053565e-001  2.782268e-001  3.208106e-001
    outer loop
      vertex  1.226052e+001  2.416303e+001  4.328444e-001
      vertex  1.182154e+001  2.421639e+001  1.625433e+000
      vertex  1.219346e+001  2.342398e+001  1.263060e+000
    endloop
  endfacet
  facet normal  6.338963e-001  5.515500e-001  5.421882e-001
    outer loop
      vertex  1.226052e+001  2.416303e+001  4.328444e-001
      vertex  1.219346e+001  2.342398e+001  1.263060e+000
      vertex  1.311686e+001  2.359235e+001  1.219103e-002
    endloop
  endfacet
  facet normal  6.073241e-001  5.934249e-001  5.282087e-001
    outer loop
      vertex  1.311686e+001  2.359235e+001  1.219103e-002
      vertex  1.219346e+001  2.342398e+001  1.263060e+000
      vertex  1.290634e+001  2.281487e+001  1.127723e+000
    endloop
  endfacet
  facet normal  6.371145e-001  5.938599e-001  4.913404e-001
    outer loop
      vertex  1.226052e+001  2.416303e+001  4.328444e-001
      vertex  1.311686e+001  2.359235e+001  1.219103e-002
      vertex  1.200863e+001  2.520936e+001 -5.051817e-001
    endloop
  endfacet
  facet normal  6.701190e-001  5.993626e-001  4.378415e-001
    outer loop
      vertex  1.200863e+001  2.520936e+001 -5.051817e-001
      vertex  1.311686e+001  2.359235e+001  1.219103e-002
      vertex  1.296953e+001  2.470902e+001 -1.290922e+000
    endloop
  endfacet
  facet normal  6.580480e-001  6.394866e-001  3.975295e-001
    outer loop
      vertex  1.200863e+001  2.520936e+001 -5.051817e-001
      vertex  1.296953e+001  2.470902e+001 -1.290922e+000
      vertex  1.128876e+001  2.651958e+001 -1.421241e+000
    endloop
  endfacet
  facet normal  6.806568e-001  6.554204e-001  3.273078e-001
    outer loop
      vertex  1.128876e+001  2.651958e+001 -1.421241e+000
      vertex  1.296953e+001  2.470902e+001 -1.290922e+000
      vertex  1.224248e+001  2.616231e+001 -2.689130e+000
    endloop
  endfacet
  facet normal  5.481369e-001  8.162804e-001  1.822976e-001
    outer loop
      vertex  1.128876e+001  2.651958e+001 -1.421241e+000
      vertex  1.224248e+001  2.616231e+001 -2.689130e+000
      vertex  1.070370e+001  2.713316e+001 -2.409503e+000
    endloop
  endfacet
  facet normal  0.000000e+000  0.000000e+000 -1.000000e+000
    outer loop
      vertex  3.377626e+001 -3.930164e+000 -1.000000e+001
      vertex -3.400415e+001  7.163439e-015 -1.000000e+001
      vertex  3.400415e+001 -1.365741e-014 -1.000000e+001
    endloop
  endfacet
  facet normal  0.000000e+000  0.000000e+000 -1.000000e+000
    outer loop
      vertex  3.400415e+001 -1.365741e-014 -1.000000e+001
      vertex -3.400415e+001  7.163439e-015 -1.000000e+001
      vertex -3.326108e+001  7.069860e+000 -1.000000e+001
    endloop
  endfacet
  facet normal  0.000000e+000  0.000000e+000 -1.000000e+000
    outer loop
      vertex  3.400415e+001 -1.365741e-014 -1.000000e+001
      vertex -3.326108e+001  7.069860e+000 -1.000000e+001
      vertex  3.326108e+001  7.069860e+000 -1.000000e+001
    endloop
  endfacet
  facet normal  0.000000e+000  0.000000e+000 -1.000000e+000
    outer loop
      vertex  3.326108e+001  7.069860e+000 -1.000000e+001
      vertex -3.326108e+001  7.069860e+000 -1.000000e+001
      vertex -3.106434e+001  1.383073e+001 -1.000000e+001
    endloop
  endfacet
  facet normal  0.000000e+000  0.000000e+000 -1.000000e+000
    outer loop
      vertex  3.326108e+001  7.069860e+000 -1.000000e+001
      vertex -3.106434e+001  1.383073e+001 -1.000000e+001
      vertex  3.106434e+001  1.383073e+001 -1.000000e+001
    endloop
  endfacet
  facet normal  0.000000e+000  0.000000e+000 -1.000000e+000
    outer loop
      vertex  3.106434e+001  1.383073e+001 -1.000000e+001
      vertex -3.106434e+001  1.383073e+001 -1.000000e+001
      vertex -2.750994e+001  1.998714e+001 -1.000000e+001
    endloop
  endfacet
  facet normal  0.000000e+000  0.000000e+000 -1.000000e+000
    outer loop
      vertex  3.106434e+001  1.383073e+001 -1.000000e+001
      vertex -2.750994e+001  1.998714e+001 -1.000000e+001
      vertex  2.750994e+001  1.998714e+001 -1.000000e+001
    endloop
  endfacet
  facet normal  0.000000e+000  0.000000e+000 -1.000000e+000
    outer loop
      vertex  2.750994e+001  1.998714e+001 -1.000000e+001
      vertex -2.750994e+001  1.998714e+001 -1.000000e+001
      vertex -2.275322e+001  2.527001e+001 -1.000000e+001
    endloop
  endfacet
  facet normal  0.000000e+000  0.000000e+000 -1.000000e+000
    outer loop
      vertex  2.750994e+001  1.998714e+001 -1.000000e+001
      vertex -2.275322e+001  2.527001e+001 -1.000000e+001
      vertex  2.275322e+001  2.527001e+001 -1.000000e+001
    endloop
  endfacet
  facet normal  0.000000e+000  0.000000e+000 -9.999999e-001
    outer loop
      vertex  2.275322e+001  2.527001e+001 -1.000000e+001
      vertex -2.275322e+001  2.527001e+001 -1.000000e+001
      vertex -1.700208e+001  2.944846e+001 -1.000000e+001
    endloop
  endfacet
  facet normal  0.000000e+000  0.000000e+000 -1.000000e+000
    outer loop
      vertex  2.275322e+001  2.527001e+001 -1.000000e+001
      vertex -1.700208e+001  2.944846e+001 -1.000000e+001
      vertex  1.700208e+001  2.944846e+001 -1.000000e+001
    endloop
  endfacet
  facet normal  0.000000e+000  0.000000e+000 -1.000000e+000
    outer loop
      vertex  1.700208e+001  2.944846e+001 -1.000000e+001
      vertex -1.700208e+001  2.944846e+001 -1.000000e+001
      vertex -1.050786e+001  3.233987e+001 -1.000000e+001
    endloop
  endfacet
  facet normal  0.000000e+000  0.000000e+000 -1.000000e+000
    outer loop
      vertex  1.700208e+001  2.944846e+001 -1.000000e+001
      vertex -1.050786e+001  3.233987e+001 -1.000000e+001
      vertex  1.050786e+001  3.233987e+001 -1.000000e+001
    endloop
  endfacet
  facet normal  0.000000e+000  0.000000e+000 -9.999999e-001
    outer loop
      vertex  1.050786e+001  3.233987e+001 -1.000000e+001
      vertex -1.050786e+001  3.233987e+001 -1.000000e+001
      vertex -3.554402e+000  3.381787e+001 -1.000000e+001
    endloop
  endfacet
  facet normal  0.000000e+000  0.000000e+000 -9.999999e-001
    outer loop
      vertex  1.050786e+001  3.233987e+001 -1.000000e+001
      vertex -3.554402e+000  3.381787e+001 -1.000000e+001
      vertex  3.554402e+000  3.381787e+001 -1.000000e+001
    endloop
  endfacet
  facet normal  -0.000000e+000  0.000000e+000 -1.000000e+000
    outer loop
      vertex -3.400415e+001  7.163439e-015 -1.000000e+001
      vertex  3.377626e+001 -3.930164e+000 -1.000000e+001
      vertex -3.352485e+001 -5.689130e+000 -1.000000e+001
    endloop
  endfacet
  facet normal  0.000000e+000  0.000000e+000 -9.999999e-001
    outer loop
      vertex -3.352485e+001 -5.689130e+000 -1.000000e+001
      vertex  3.377626e+001 -3.930164e+000 -1.000000e+001
      vertex  3.264264e+001 -9.525771e+000 -1.000000e+001
    endloop
  endfacet
  facet normal  -0.000000e+000  0.000000e+000 -1.000000e+000
    outer loop
      vertex -3.352485e+001 -5.689130e+000 -1.000000e+001
      vertex  3.264264e+001 -9.525771e+000 -1.000000e+001
      vertex -3.210049e+001 -1.121788e+001 -1.000000e+001
    endloop
  endfacet
  facet normal  0.000000e+000  0.000000e+000 -1.000000e+000
    outer loop
      vertex -3.210049e+001 -1.121788e+001 -1.000000e+001
      vertex  3.264264e+001 -9.525771e+000 -1.000000e+001
      vertex  3.058881e+001 -1.485285e+001 -1.000000e+001
    endloop
  endfacet
  facet normal  -0.000000e+000  0.000000e+000 -1.000000e+000
    outer loop
      vertex -3.210049e+001 -1.121788e+001 -1.000000e+001
      vertex  3.058881e+001 -1.485285e+001 -1.000000e+001
      vertex -2.977119e+001 -1.643040e+001 -1.000000e+001
    endloop
  endfacet
  facet normal  0.000000e+000  0.000000e+000 -1.000000e+000
    outer loop
      vertex -2.977119e+001 -1.643040e+001 -1.000000e+001
      vertex  3.058881e+001 -1.485285e+001 -1.000000e+001
      vertex  2.767267e+001 -1.976121e+001 -1.000000e+001
    endloop
  endfacet
  facet normal  -0.000000e+000  0.000000e+000 -1.000000e+000
    outer loop
      vertex -2.977119e+001 -1.643040e+001 -1.000000e+001
      vertex  2.767267e+001 -1.976121e+001 -1.000000e+001
      vertex -2.660265e+001 -2.117974e+001 -1.000000e+001
    endloop
  endfacet
  facet normal  0.000000e+000  0.000000e+000 -1.000000e+000
    outer loop
      vertex -2.660265e+001 -2.117974e+001 -1.000000e+001
      vertex  2.767267e+001 -1.976121e+001 -1.000000e+001
      vertex  2.397643e+001 -2.411251e+001 -1.000000e+001
    endloop
  endfacet
  facet normal  -0.000000e+000  0.000000e+000 -1.000000e+000
    outer loop
      vertex -2.660265e+001 -2.117974e+001 -1.000000e+001
      vertex  2.397643e+001 -2.411251e+001 -1.000000e+001
      vertex -2.268416e+001 -2.533201e+001 -1.000000e+001
    endloop
  endfacet
  facet normal  0.000000e+000  0.000000e+000 -1.000000e+000
    outer loop
      vertex -2.268416e+001 -2.533201e+001 -1.000000e+001
      vertex  2.397643e+001 -2.411251e+001 -1.000000e+001
      vertex  1.960429e+001 -2.778406e+001 -1.000000e+001
    endloop
  endfacet
  facet normal  -0.000000e+000  0.000000e+000 -1.000000e+000
    outer loop
      vertex -2.268416e+001 -2.533201e+001 -1.000000e+001
      vertex  1.960429e+001 -2.778406e+001 -1.000000e+001
      vertex -1.812620e+001 -2.877018e+001 -1.000000e+001
    endloop
  endfacet
  facet normal  0.000000e+000  0.000000e+000 -1.000000e+000
    outer loop
      vertex -1.812620e+001 -2.877018e+001 -1.000000e+001
      vertex  1.960429e+001 -2.778406e+001 -1.000000e+001
      vertex  1.467950e+001 -3.067237e+001 -1.000000e+001
    endloop
  endfacet
  facet normal  -0.000000e+000  0.000000e+000 -1.000000e+000
    outer loop
      vertex -1.812620e+001 -2.877018e+001 -1.000000e+001
      vertex  1.467950e+001 -3.067237e+001 -1.000000e+001
      vertex -1.305726e+001 -3.139729e+001 -1.000000e+001
    endloop
  endfacet
  facet normal  0.000000e+000  0.000000e+000 -1.000000e+000
    outer loop
      vertex -1.305726e+001 -3.139729e+001 -1.000000e+001
      vertex  1.467950e+001 -3.067237e+001 -1.000000e+001
      vertex  9.340885e+000 -3.269602e+001 -1.000000e+001
    endloop
  endfacet
  facet normal  -0.000000e+000  0.000000e+000 -1.000000e+000
    outer loop
      vertex -1.305726e+001 -3.139729e+001 -1.000000e+001
      vertex  9.340885e+000 -3.269602e+001 -1.000000e+001
      vertex -7.620230e+000 -3.313932e+001 -1.000000e+001
    endloop
  endfacet
  facet normal  0.000000e+000  0.000000e+000 -1.000000e+000
    outer loop
      vertex -7.620230e+000 -3.313932e+001 -1.000000e+001
      vertex  9.340885e+000 -3.269602e+001 -1.000000e+001
      vertex  3.738953e+000 -3.379797e+001 -1.000000e+001
    endloop
  endfacet
  facet normal  -0.000000e+000  0.000000e+000 -9.999999e-001
    outer loop
      vertex -7.620230e+000 -3.313932e+001 -1.000000e+001
      vertex  3.738953e+000 -3.379797e+001 -1.000000e+001
      vertex -1.968383e+000 -3.394713e+001 -1.000000e+001
    endloop
  endfacet
  facet normal  0.000000e+000  0.000000e+000  1.000000e+000
    outer loop
      vertex -5.176381e+000  1.931852e+001  1.000000e+001
      vertex  5.176381e+000  1.931852e+001  1.000000e+001
      vertex  1.224606e-015  2.000000e+001  1.000000e+001
    endloop
  endfacet
  facet normal  -0.000000e+000  0.000000e+000  1.000000e+000
    outer loop
      vertex  5.176381e+000  1.931852e+001  1.000000e+001
      vertex -5.176381e+000  1.931852e+001  1.000000e+001
      vertex  1.000000e+001  1.732051e+001  1.000000e+001
    endloop
  endfacet
  facet normal  0.000000e+000  0.000000e+000  1.000000e+000
    outer loop
      vertex  1.000000e+001  1.732051e+001  1.000000e+001
      vertex -5.176381e+000  1.931852e+001  1.000000e+001
      vertex -1.000000e+001  1.732051e+001  1.000000e+001
    endloop
  endfacet
  facet normal  -0.000000e+000  0.000000e+000  1.000000e+000
    outer loop
      vertex  1.000000e+001  1.732051e+001  1.000000e+001
      vertex -1.000000e+001  1.732051e+001  1.000000e+001
      vertex  1.414214e+001  1.414214e+001  1.000000e+001
    endloop
  endfacet
  facet normal  0.000000e+000  0.000000e+000  1.000000e+000
    outer loop
      vertex  1.414214e+001  1.414214e+001  1.000000e+001
      vertex -1.000000e+001  1.732051e+001  1.000000e+001
      vertex -1.414214e+001  1.414214e+001  1.000000e+001
    endloop
  endfacet
  facet normal  -0.000000e+000  0.000000e+000  1.000000e+000
    outer loop
      vertex  1.414214e+001  1.414214e+001  1.000000e+001
      vertex -1.414214e+001  1.414214e+001  1.000000e+001
      vertex  1.732051e+001  1.000000e+001  1.000000e+001
    endloop
  endfacet
  facet normal  0.000000e+000  0.000000e+000  1.000000e+000
    outer loop
      vertex  1.732051e+001  1.000000e+001  1.000000e+001
      vertex -1.414214e+001  1.414214e+001  1.000000e+001
      vertex -1.732051e+001  1.000000e+001  1.000000e+001
    endloop
  endfacet
  facet normal  -0.000000e+000  0.000000e+000  1.000000e+000
    outer loop
      vertex  1.732051e+001  1.000000e+001  1.000000e+001
      vertex -1.732051e+001  1.000000e+001  1.000000e+001
      vertex  1.931852e+001  5.176381e+000  1.000000e+001
    endloop
  endfacet
  facet normal  0.000000e+000  0.000000e+000  1.000000e+000
    outer loop
      vertex  1.931852e+001  5.176381e+000  1.000000e+001
      vertex -1.732051e+001  1.000000e+001  1.000000e+001
      vertex -1.931852e+001  5.176381e+000  1.000000e+001
    endloop
  endfacet
  facet normal  -0.000000e+000  0.000000e+000  1.000000e+000
    outer loop
      vertex  1.931852e+001  5.176381e+000  1.000000e+001
      vertex -1.931852e+001  5.176381e+000  1.000000e+001
      vertex  2.000000e+001  0.000000e+000  1.000000e+001
    endloop
  endfacet
  facet normal  0.000000e+000  0.000000e+000  1.000000e+000
    outer loop
      vertex  2.000000e+001  0.000000e+000  1.000000e+001
      vertex -1.931852e+001  5.176381e+000  1.000000e+001
      vertex -2.000000e+001  2.449213e-015  1.000000e+001
    endloop
  endfacet
  facet normal  0.000000e+000  0.000000e+000  1.000000e+000
    outer loop
      vertex  2.000000e+001  0.000000e+000  1.000000e+001
      vertex -2.000000e+001  2.449213e-015  1.000000e+001
      vertex  1.931852e+001 -5.176381e+000  1.000000e+001
    endloop
  endfacet
  facet normal  0.000000e+000  0.000000e+000  1.000000e+000
    outer loop
      vertex  1.931852e+001 -5.176381e+000  1.000000e+001
      vertex -2.000000e+001  2.449213e-015  1.000000e+001
      vertex -1.931852e+001 -5.176381e+000  1.000000e+001
    endloop
  endfacet
  facet normal  -0.000000e+000  0.000000e+000  1.000000e+000
    outer loop
      vertex  1.931852e+001 -5.176381e+000  1.000000e+001
      vertex -1.931852e+001 -5.176381e+000  1.000000e+001
      vertex  1.732051e+001 -1.000000e+001  1.000000e+001
    endloop
  endfacet
  facet normal  0.000000e+000  0.000000e+000  1.000000e+000
    outer loop
      vertex  1.732051e+001 -1.000000e+001  1.000000e+001
      vertex -1.931852e+001 -5.176381e+000  1.000000e+001
      vertex -1.732051e+001 -1.000000e+001  1.000000e+001
    endloop
  endfacet
  facet normal  -0.000000e+000  0.000000e+000  1.000000e+000
    outer loop
      vertex  1.732051e+001 -1.000000e+001  1.000000e+001
      vertex -1.732051e+001 -1.000000e+001  1.000000e+001
      vertex  1.414214e+001 -1.414214e+001  1.000000e+001
    endloop
  endfacet
  facet normal  0.000000e+000  0.000000e+000  1.000000e+000
    outer loop
      vertex  1.414214e+001 -1.414214e+001  1.000000e+001
      vertex -1.732051e+001 -1.000000e+001  1.000000e+001
      vertex -1.414214e+001 -1.414214e+001  1.000000e+001
    endloop
  endfacet
  facet normal  -0.000000e+000  0.000000e+000  1.000000e+000
    outer loop
      vertex  1.414214e+001 -1.414214e+001  1.000000e+001
      vertex -1.414214e+001 -1.414214e+001  1.000000e+001
      vertex  1.000000e+001 -1.732051e+001  1.000000e+001
    endloop
  endfacet
  facet normal  0.000000e+000  0.000000e+000  1.000000e+000
    outer loop
      vertex  1.000000e+001 -1.732051e+001  1.000000e+001
      vertex -1.414214e+001 -1.414214e+001  1.000000e+001
      vertex -1.000000e+001 -1.732051e+001  1.000000e+001
    endloop
  endfacet
  facet normal  -0.000000e+000  0.000000e+000  1.000000e+000
    outer loop
      vertex  1.000000e+001 -1.732051e+001  1.000000e+001
      vertex -1.000000e+001 -1.732051e+001  1.000000e+001
      vertex  5.176381e+000 -1.931852e+001  1.000000e+001
    endloop
  endfacet
  facet normal  0.000000e+000  0.000000e+000  1.000000e+000
    outer loop
      vertex  5.176381e+000 -1.931852e+001  1.000000e+001
      vertex -1.000000e+001 -1.732051e+001  1.000000e+001
      vertex -5.176381e+000 -1.931852e+001  1.000000e+001
    endloop
  endfacet
  facet normal  -0.000000e+000  0.000000e+000  1.000000e+000
    outer loop
      vertex  5.176381e+000 -1.931852e+001  1.000000e+001
      vertex -5.176381e+000 -1.931852e+001  1.000000e+001
      vertex -3.673819e-015 -2.000000e+001  1.000000e+001
    endloop
  endfacet
  facet normal  0.000000e+000  1.000000e+000  0.000000e+000
    outer loop
      vertex  9.000000e+000  1.000000e+002  2.000000e+000
      vertex  1.000000e+001  1.000000e+002  2.000000e+000
      vertex -5.524866e-001  1.000000e+002  1.498623e+000
    endloop
  endfacet
  facet normal  0.000000e+000  1.000000e+000  0.000000e+000
    outer loop
      vertex -5.524866e-001  1.000000e+002  1.498623e+000
      vertex  1.000000e+001  1.000000e+002  2.000000e+000
      vertex  1.070711e+001  1.000000e+002  1.707107e+000
    endloop
  endfacet
  facet normal  0.000000e+000  1.000000e+000  0.000000e+000
    outer loop
      vertex -5.524866e-001  1.000000e+002  1.498623e+000
      vertex  1.070711e+001  1.000000e+002  1.707107e+000
      vertex -1.000000e+001  1.000000e+002  0.000000e+000
    endloop
  endfacet
  facet normal  0.000000e+000  1.000000e+000  0.000000e+000
    outer loop
      vertex -1.000000e+001  1.000000e+002  0.000000e+000
      vertex  1.070711e+001  1.000000e+002  1.707107e+000
      vertex  1.100000e+001  1.000000e+002  1.000000e+000
    endloop
  endfacet
  facet normal  0.000000e+000  1.000000e+000  0.000000e+000
    outer loop
      vertex -1.000000e+001  1.000000e+002  0.000000e+000
      vertex  1.100000e+001  1.000000e+002  1.000000e+000
      vertex  1.000000e+001  1.000000e+002  0.000000e+000
    endloop
  endfacet
  facet normal  0.000000e+000  1.000000e+000  0.000000e+000
    outer loop
      vertex  1.000000e+001  1.000000e+002  0.000000e+000
      vertex  1.100000e+001  1.000000e+002  1.000000e+000
      vertex  1.070711e+001  1.000000e+002  2.928932e-001
    endloop
  endfacet
endsolid CATIA STL
