solid CATIA STL
  facet normal -9.914448e-001  1.305263e-001  0.000000e+000
    outer loop
      vertex -2.000000e+001  2.449213e-015 -1.000000e+001
      vertex -1.931852e+001  5.176381e+000  1.000000e+000
      vertex -1.931852e+001  5.176381e+000 -1.000000e+001
    endloop
  endfacet
  facet normal -6.087615e-001  7.933532e-001  0.000000e+000
    outer loop
      vertex -1.000000e+001  1.732051e+001  0.000000e+000
      vertex -1.000000e+001  1.732051e+001 -1.000000e+001
      vertex -1.414214e+001  1.414214e+001 -1.000000e+001
    endloop
  endfacet
  facet normal  5.739722e-001  8.184204e-001 -2.727731e-002
    outer loop
      vertex  1.414214e+001  1.414214e+001 -1.000000e+001
      vertex  1.076633e+001  1.685486e+001  3.575505e-001
      vertex  1.092855e+001  1.675013e+001  6.287932e-001
    endloop
  endfacet
  facet normal  1.305259e-001  9.914420e-001 -2.385772e-003
    outer loop
      vertex  1.224606e-015  2.000000e+001  1.000000e+001
      vertex  5.176381e+000  1.931852e+001  1.000000e+001
      vertex  5.315030e+000  1.928083e+001  1.925564e+000
    endloop
  endfacet
  facet normal  1.703263e-001  9.850861e-001  2.437909e-002
    outer loop
      vertex  1.224606e-015  2.000000e+001  1.000000e+001
      vertex  5.315030e+000  1.928083e+001  1.925564e+000
      vertex  1.526246e+000  1.994168e+001  1.693419e+000
    endloop
  endfacet
  facet normal -1.849581e-002  9.997747e-001 -1.041812e-002
    outer loop
      vertex  1.224606e-015  2.000000e+001  1.000000e+001
      vertex  1.526246e+000  1.994168e+001  1.693419e+000
      vertex -2.305652e+000  1.986666e+001  1.296920e+000
    endloop
  endfacet
  facet normal -1.909819e-001  9.809490e-001  3.556598e-002
    outer loop
      vertex  1.224606e-015  2.000000e+001  1.000000e+001
      vertex -2.305652e+000  1.986666e+001  1.296920e+000
      vertex -5.176381e+000  1.931852e+001  1.000000e+000
    endloop
  endfacet
  facet normal -1.305263e-001  9.914449e-001  0.000000e+000
    outer loop
      vertex  1.224606e-015  2.000000e+001  1.000000e+001
      vertex -5.176381e+000  1.931852e+001  1.000000e+000
      vertex -5.176381e+000  1.931852e+001  1.000000e+001
    endloop
  endfacet
  facet normal  6.309508e-001  7.758229e-001  -0.000000e+000
    outer loop
      vertex  1.414214e+001  1.414214e+001  1.000000e+001
      vertex  1.414214e+001  1.414214e+001  1.000000e+000
      vertex  1.096312e+001  1.672752e+001  1.269077e+000
    endloop
  endfacet
  facet normal  5.846799e-001  8.108078e-001  2.720739e-002
    outer loop
      vertex  1.414214e+001  1.414214e+001  1.000000e+001
      vertex  1.096312e+001  1.672752e+001  1.269077e+000
      vertex  1.082335e+001  1.681830e+001  1.567536e+000
    endloop
  endfacet
  facet normal  5.641178e-001  8.247383e-001  3.972108e-002
    outer loop
      vertex  1.414214e+001  1.414214e+001  1.000000e+001
      vertex  1.082335e+001  1.681830e+001  1.567536e+000
      vertex  1.059648e+001  1.696215e+001  1.802628e+000
    endloop
  endfacet
  facet normal  5.290574e-001  8.462960e-001  6.230213e-002
    outer loop
      vertex  1.414214e+001  1.414214e+001  1.000000e+001
      vertex  1.059648e+001  1.696215e+001  1.802628e+000
      vertex  1.000000e+001  1.732051e+001  2.000000e+000
    endloop
  endfacet
  facet normal  6.087615e-001  7.933533e-001  -0.000000e+000
    outer loop
      vertex  1.414214e+001  1.414214e+001  1.000000e+001
      vertex  1.000000e+001  1.732051e+001  2.000000e+000
      vertex  1.000000e+001  1.732051e+001  1.000000e+001
    endloop
  endfacet
  facet normal -3.826832e-001  9.238797e-001  0.000000e+000
    outer loop
      vertex -5.176381e+000  1.931852e+001  1.000000e+001
      vertex -5.176381e+000  1.931852e+001  1.000000e+000
      vertex -1.000000e+001  1.732051e+001  1.000000e+001
    endloop
  endfacet
  facet normal -3.826832e-001  9.238797e-001  0.000000e+000
    outer loop
      vertex -1.000000e+001  1.732051e+001  1.000000e+001
      vertex -5.176381e+000  1.931852e+001  1.000000e+000
      vertex -1.000000e+001  1.732051e+001  1.000000e+000
    endloop
  endfacet
  facet normal -6.087615e-001  7.933533e-001  0.000000e+000
    outer loop
      vertex -1.000000e+001  1.732051e+001  1.000000e+001
      vertex -1.000000e+001  1.732051e+001  1.000000e+000
      vertex -1.414214e+001  1.414214e+001  1.000000e+001
    endloop
  endfacet
  facet normal -6.087615e-001  7.933533e-001  0.000000e+000
    outer loop
      vertex -1.414214e+001  1.414214e+001  1.000000e+001
      vertex -1.000000e+001  1.732051e+001  1.000000e+000
      vertex -1.414214e+001  1.414214e+001  1.000000e+000
    endloop
  endfacet
  facet normal -7.933533e-001  6.087615e-001  0.000000e+000
    outer loop
      vertex -1.414214e+001  1.414214e+001  1.000000e+001
      vertex -1.414214e+001  1.414214e+001  1.000000e+000
      vertex -1.732051e+001  1.000000e+001  1.000000e+001
    endloop
  endfacet
  facet normal -7.933533e-001  6.087615e-001  0.000000e+000
    outer loop
      vertex -1.732051e+001  1.000000e+001  1.000000e+001
      vertex -1.414214e+001  1.414214e+001  1.000000e+000
      vertex -1.732051e+001  1.000000e+001  1.000000e+000
    endloop
  endfacet
  facet normal -9.238797e-001  3.826832e-001  0.000000e+000
    outer loop
      vertex -1.732051e+001  1.000000e+001  1.000000e+001
      vertex -1.732051e+001  1.000000e+001  1.000000e+000
      vertex -1.931852e+001  5.176381e+000  1.000000e+001
    endloop
  endfacet
  facet normal -9.238797e-001  3.826832e-001  0.000000e+000
    outer loop
      vertex -1.931852e+001  5.176381e+000  1.000000e+001
      vertex -1.732051e+001  1.000000e+001  1.000000e+000
      vertex -1.931852e+001  5.176381e+000  1.000000e+000
    endloop
  endfacet
  facet normal -9.914449e-001  1.305263e-001  0.000000e+000
    outer loop
      vertex -1.931852e+001  5.176381e+000  1.000000e+001
      vertex -1.931852e+001  5.176381e+000  1.000000e+000
      vertex -2.000000e+001  2.449213e-015  1.000000e+001
    endloop
  endfacet
  facet normal -9.914448e-001  1.305263e-001  0.000000e+000
    outer loop
      vertex -2.000000e+001  2.449213e-015  1.000000e+001
      vertex -1.931852e+001  5.176381e+000  1.000000e+000
      vertex -2.000000e+001  2.449213e-015 -1.000000e+001
    endloop
  endfacet
  facet normal  6.187578e-001  7.855613e-001 -5.673871e-003
    outer loop
      vertex  1.092855e+001  1.675013e+001  6.287932e-001
      vertex  1.096312e+001  1.672752e+001  1.269077e+000
      vertex  1.414214e+001  1.414214e+001 -1.000000e+001
    endloop
  endfacet
  facet normal  6.309507e-001  7.758228e-001  -0.000000e+000
    outer loop
      vertex  1.414214e+001  1.414214e+001 -1.000000e+001
      vertex  1.096312e+001  1.672752e+001  1.269077e+000
      vertex  1.414214e+001  1.414214e+001  1.000000e+000
    endloop
  endfacet
  facet normal  7.933533e-001  6.087615e-001  0.000000e+000
    outer loop
      vertex  1.414214e+001  1.414214e+001 -1.000000e+001
      vertex  1.414214e+001  1.414214e+001  1.000000e+000
      vertex  1.732051e+001  1.000000e+001 -1.000000e+001
    endloop
  endfacet
  facet normal  7.933533e-001  6.087615e-001  -0.000000e+000
    outer loop
      vertex  1.732051e+001  1.000000e+001 -1.000000e+001
      vertex  1.414214e+001  1.414214e+001  1.000000e+000
      vertex  1.732051e+001  1.000000e+001  1.000000e+000
    endloop
  endfacet
  facet normal  9.238796e-001  3.826832e-001  0.000000e+000
    outer loop
      vertex  1.732051e+001  1.000000e+001 -1.000000e+001
      vertex  1.732051e+001  1.000000e+001  1.000000e+000
      vertex  1.931852e+001  5.176381e+000 -1.000000e+001
    endloop
  endfacet
  facet normal  9.238796e-001  3.826832e-001  -0.000000e+000
    outer loop
      vertex  1.931852e+001  5.176381e+000 -1.000000e+001
      vertex  1.732051e+001  1.000000e+001  1.000000e+000
      vertex  1.931852e+001  5.176381e+000  1.000000e+000
    endloop
  endfacet
  facet normal  9.914448e-001  1.305263e-001  0.000000e+000
    outer loop
      vertex  1.931852e+001  5.176381e+000 -1.000000e+001
      vertex  1.931852e+001  5.176381e+000  1.000000e+000
      vertex  2.000000e+001  0.000000e+000 -1.000000e+001
    endloop
  endfacet
  facet normal  9.914448e-001  1.305263e-001  -0.000000e+000
    outer loop
      vertex  2.000000e+001  0.000000e+000 -1.000000e+001
      vertex  1.931852e+001  5.176381e+000  1.000000e+000
      vertex  2.000000e+001  0.000000e+000  1.000000e+001
    endloop
  endfacet
  facet normal -9.238796e-001  3.826832e-001  0.000000e+000
    outer loop
      vertex -1.931852e+001  5.176381e+000 -1.000000e+001
      vertex -1.931852e+001  5.176381e+000  1.000000e+000
      vertex -1.732051e+001  1.000000e+001 -1.000000e+001
    endloop
  endfacet
  facet normal -9.238796e-001  3.826832e-001  0.000000e+000
    outer loop
      vertex -1.732051e+001  1.000000e+001 -1.000000e+001
      vertex -1.931852e+001  5.176381e+000  1.000000e+000
      vertex -1.732051e+001  1.000000e+001  1.000000e+000
    endloop
  endfacet
  facet normal -7.933533e-001  6.087615e-001  0.000000e+000
    outer loop
      vertex -1.732051e+001  1.000000e+001 -1.000000e+001
      vertex -1.732051e+001  1.000000e+001  1.000000e+000
      vertex -1.414214e+001  1.414214e+001 -1.000000e+001
    endloop
  endfacet
  facet normal -7.933533e-001  6.087615e-001  0.000000e+000
    outer loop
      vertex -1.414214e+001  1.414214e+001 -1.000000e+001
      vertex -1.732051e+001  1.000000e+001  1.000000e+000
      vertex -1.414214e+001  1.414214e+001  1.000000e+000
    endloop
  endfacet
  facet normal -6.087615e-001  7.933533e-001  0.000000e+000
    outer loop
      vertex -1.414214e+001  1.414214e+001 -1.000000e+001
      vertex -1.414214e+001  1.414214e+001  1.000000e+000
      vertex -1.000000e+001  1.732051e+001  0.000000e+000
    endloop
  endfacet
  facet normal -6.087615e-001  7.933533e-001  0.000000e+000
    outer loop
      vertex -1.000000e+001  1.732051e+001  0.000000e+000
      vertex -1.414214e+001  1.414214e+001  1.000000e+000
      vertex -1.000000e+001  1.732051e+001  1.000000e+000
    endloop
  endfacet
  facet normal -4.094246e-001  9.123439e-001  0.000000e+000
    outer loop
      vertex -1.000000e+001  1.732051e+001  0.000000e+000
      vertex -1.000000e+001  1.732051e+001  1.000000e+000
      vertex -6.292275e+000  1.898439e+001  7.094843e-001
    endloop
  endfacet
  facet normal -3.544060e-001  8.556125e-001  3.772579e-001
    outer loop
      vertex -6.292275e+000  1.898439e+001  7.094843e-001
      vertex -1.000000e+001  1.732051e+001  1.000000e+000
      vertex -5.176381e+000  1.931852e+001  1.000000e+000
    endloop
  endfacet
  facet normal -9.777184e-002  8.186210e-001 -5.659508e-001
    outer loop
      vertex -6.292275e+000  1.898439e+001  7.094843e-001
      vertex -5.176381e+000  1.931852e+001  1.000000e+000
      vertex -2.305652e+000  1.986666e+001  1.296920e+000
    endloop
  endfacet
  facet normal -3.826831e-001  9.238796e-001  0.000000e+000
    outer loop
      vertex -1.000000e+001  1.732051e+001 -1.000000e+001
      vertex -1.000000e+001  1.732051e+001  0.000000e+000
      vertex -5.176381e+000  1.931852e+001 -1.000000e+001
    endloop
  endfacet
  facet normal -3.826831e-001  9.238796e-001  0.000000e+000
    outer loop
      vertex -5.176381e+000  1.931852e+001 -1.000000e+001
      vertex -1.000000e+001  1.732051e+001  0.000000e+000
      vertex -5.176381e+000  1.931852e+001  2.449294e-015
    endloop
  endfacet
  facet normal -1.305263e-001  9.914448e-001  0.000000e+000
    outer loop
      vertex -5.176381e+000  1.931852e+001 -1.000000e+001
      vertex -5.176381e+000  1.931852e+001  2.449294e-015
      vertex  1.224606e-015  2.000000e+001 -1.000000e+001
    endloop
  endfacet
  facet normal -1.305263e-001  9.914448e-001 -1.598434e-017
    outer loop
      vertex  1.224606e-015  2.000000e+001 -1.000000e+001
      vertex -5.176381e+000  1.931852e+001  2.449294e-015
      vertex  0.000000e+000  2.000000e+001  2.449294e-015
    endloop
  endfacet
  facet normal  1.305263e-001  9.914448e-001  1.598434e-017
    outer loop
      vertex  1.224606e-015  2.000000e+001 -1.000000e+001
      vertex  0.000000e+000  2.000000e+001  2.449294e-015
      vertex  5.176381e+000  1.931852e+001 -1.000000e+001
    endloop
  endfacet
  facet normal  1.305263e-001  9.914448e-001  -0.000000e+000
    outer loop
      vertex  5.176381e+000  1.931852e+001 -1.000000e+001
      vertex  0.000000e+000  2.000000e+001  2.449294e-015
      vertex  5.176381e+000  1.931852e+001  2.449294e-015
    endloop
  endfacet
  facet normal  3.826831e-001  9.238796e-001  0.000000e+000
    outer loop
      vertex  5.176381e+000  1.931852e+001 -1.000000e+001
      vertex  5.176381e+000  1.931852e+001  2.449294e-015
      vertex  1.000000e+001  1.732051e+001 -1.000000e+001
    endloop
  endfacet
  facet normal  3.826831e-001  9.238796e-001  -0.000000e+000
    outer loop
      vertex  1.000000e+001  1.732051e+001 -1.000000e+001
      vertex  5.176381e+000  1.931852e+001  2.449294e-015
      vertex  1.000000e+001  1.732051e+001  0.000000e+000
    endloop
  endfacet
  facet normal  6.087615e-001  7.933532e-001  0.000000e+000
    outer loop
      vertex  1.000000e+001  1.732051e+001 -1.000000e+001
      vertex  1.000000e+001  1.732051e+001  0.000000e+000
      vertex  1.414214e+001  1.414214e+001 -1.000000e+001
    endloop
  endfacet
  facet normal  5.105968e-001  8.576469e-001 -6.109609e-002
    outer loop
      vertex  1.414214e+001  1.414214e+001 -1.000000e+001
      vertex  1.000000e+001  1.732051e+001  0.000000e+000
      vertex  1.024003e+001  1.717969e+001  2.923353e-002
    endloop
  endfacet
  facet normal  5.437316e-001  8.381919e-001 -4.231186e-002
    outer loop
      vertex  1.414214e+001  1.414214e+001 -1.000000e+001
      vertex  1.024003e+001  1.717969e+001  2.923353e-002
      vertex  1.076633e+001  1.685486e+001  3.575505e-001
    endloop
  endfacet
  facet normal  3.826832e-001  9.238796e-001  -0.000000e+000
    outer loop
      vertex  1.000000e+001  1.732051e+001  1.000000e+001
      vertex  1.000000e+001  1.732051e+001  2.000000e+000
      vertex  5.176381e+000  1.931852e+001  1.000000e+001
    endloop
  endfacet
  facet normal  4.741355e-001  8.779280e-001  6.661785e-002
    outer loop
      vertex  5.176381e+000  1.931852e+001  1.000000e+001
      vertex  1.000000e+001  1.732051e+001  2.000000e+000
      vertex  9.000000e+000  1.786057e+001  2.000000e+000
    endloop
  endfacet
  facet normal  3.596005e-001  9.331046e-001  1.819995e-003
    outer loop
      vertex  5.176381e+000  1.931852e+001  1.000000e+001
      vertex  9.000000e+000  1.786057e+001  2.000000e+000
      vertex  5.315030e+000  1.928083e+001  1.925564e+000
    endloop
  endfacet
  facet normal  7.933533e-001  6.087615e-001  0.000000e+000
    outer loop
      vertex  1.414214e+001  1.414214e+001  1.000000e+000
      vertex  1.414214e+001  1.414214e+001  1.000000e+001
      vertex  1.732051e+001  1.000000e+001  1.000000e+000
    endloop
  endfacet
  facet normal  7.933533e-001  6.087615e-001  -0.000000e+000
    outer loop
      vertex  1.732051e+001  1.000000e+001  1.000000e+000
      vertex  1.414214e+001  1.414214e+001  1.000000e+001
      vertex  1.732051e+001  1.000000e+001  1.000000e+001
    endloop
  endfacet
  facet normal  9.238797e-001  3.826832e-001  0.000000e+000
    outer loop
      vertex  1.732051e+001  1.000000e+001  1.000000e+000
      vertex  1.732051e+001  1.000000e+001  1.000000e+001
      vertex  1.931852e+001  5.176381e+000  1.000000e+000
    endloop
  endfacet
  facet normal  9.238797e-001  3.826832e-001  -0.000000e+000
    outer loop
      vertex  1.931852e+001  5.176381e+000  1.000000e+000
      vertex  1.732051e+001  1.000000e+001  1.000000e+001
      vertex  1.931852e+001  5.176381e+000  1.000000e+001
    endloop
  endfacet
  facet normal  9.914449e-001  1.305263e-001  0.000000e+000
    outer loop
      vertex  1.931852e+001  5.176381e+000  1.000000e+000
      vertex  1.931852e+001  5.176381e+000  1.000000e+001
      vertex  2.000000e+001  0.000000e+000  1.000000e+001
    endloop
  endfacet
  facet normal -1.879431e-001  0.000000e+000  9.821800e-001
    outer loop
      vertex -1.000000e+001  1.732051e+001  0.000000e+000
      vertex -6.292275e+000  1.898439e+001  7.094843e-001
      vertex -1.000000e+001  1.000000e+002  0.000000e+000
    endloop
  endfacet
  facet normal -1.566672e-001  1.479268e-003  9.876503e-001
    outer loop
      vertex -5.524866e-001  1.000000e+002  1.498623e+000
      vertex -1.000000e+001  1.000000e+002  0.000000e+000
      vertex -6.292275e+000  1.898439e+001  7.094843e-001
    endloop
  endfacet
  facet normal -1.459297e-001  7.025272e-004  9.892946e-001
    outer loop
      vertex -5.524866e-001  1.000000e+002  1.498623e+000
      vertex -6.292275e+000  1.898439e+001  7.094843e-001
      vertex -2.305652e+000  1.986666e+001  1.296920e+000
    endloop
  endfacet
  facet normal -1.029189e-001 -2.520490e-004  9.946898e-001
    outer loop
      vertex -5.524866e-001  1.000000e+002  1.498623e+000
      vertex -2.305652e+000  1.986666e+001  1.296920e+000
      vertex  1.526246e+000  1.994168e+001  1.693419e+000
    endloop
  endfacet
  facet normal -6.101017e-002  8.445078e-004  9.981368e-001
    outer loop
      vertex -5.524866e-001  1.000000e+002  1.498623e+000
      vertex  1.526246e+000  1.994168e+001  1.693419e+000
      vertex  5.315030e+000  1.928083e+001  1.925564e+000
    endloop
  endfacet
  facet normal -1.868135e-002  3.930302e-003  9.998177e-001
    outer loop
      vertex -5.524866e-001  1.000000e+002  1.498623e+000
      vertex  5.315030e+000  1.928083e+001  1.925564e+000
      vertex  9.000000e+000  1.786057e+001  2.000000e+000
    endloop
  endfacet
  facet normal -5.241445e-002  0.000000e+000  9.986255e-001
    outer loop
      vertex -5.524866e-001  1.000000e+002  1.498623e+000
      vertex  9.000000e+000  1.786057e+001  2.000000e+000
      vertex  9.000000e+000  1.000000e+002  2.000000e+000
    endloop
  endfacet
  facet normal  -0.000000e+000  0.000000e+000  1.000000e+000
    outer loop
      vertex  1.000000e+001  1.000000e+002  2.000000e+000
      vertex  9.000000e+000  1.000000e+002  2.000000e+000
      vertex  1.000000e+001  1.732051e+001  2.000000e+000
    endloop
  endfacet
  facet normal  0.000000e+000  0.000000e+000  9.999999e-001
    outer loop
      vertex  1.000000e+001  1.732051e+001  2.000000e+000
      vertex  9.000000e+000  1.000000e+002  2.000000e+000
      vertex  9.000000e+000  1.786057e+001  2.000000e+000
    endloop
  endfacet
  facet normal  1.209000e-001  0.000000e+000 -9.926647e-001
    outer loop
      vertex  1.000000e+001  1.732051e+001  0.000000e+000
      vertex  1.000000e+001  1.000000e+002  0.000000e+000
      vertex  1.024003e+001  1.717969e+001  2.923353e-002
    endloop
  endfacet
  facet normal  3.826834e-001  7.829667e-004 -9.238792e-001
    outer loop
      vertex  1.024003e+001  1.717969e+001  2.923353e-002
      vertex  1.000000e+001  1.000000e+002  0.000000e+000
      vertex  1.070711e+001  1.000000e+002  2.928932e-001
    endloop
  endfacet
  facet normal  5.291520e-001 -2.829559e-004 -8.485270e-001
    outer loop
      vertex  1.024003e+001  1.717969e+001  2.923353e-002
      vertex  1.070711e+001  1.000000e+002  2.928932e-001
      vertex  1.076633e+001  1.685486e+001  3.575505e-001
    endloop
  endfacet
  facet normal  8.582591e-001  2.122073e-004 -5.132164e-001
    outer loop
      vertex  1.076633e+001  1.685486e+001  3.575505e-001
      vertex  1.070711e+001  1.000000e+002  2.928932e-001
      vertex  1.092855e+001  1.675013e+001  6.287932e-001
    endloop
  endfacet
  facet normal  9.238791e-001  9.134348e-004 -3.826835e-001
    outer loop
      vertex  1.092855e+001  1.675013e+001  6.287932e-001
      vertex  1.070711e+001  1.000000e+002  2.928932e-001
      vertex  1.100000e+001  1.000000e+002  1.000000e+000
    endloop
  endfacet
  facet normal  9.985443e-001 -6.165289e-004 -5.393296e-002
    outer loop
      vertex  1.092855e+001  1.675013e+001  6.287932e-001
      vertex  1.100000e+001  1.000000e+002  1.000000e+000
      vertex  1.096312e+001  1.672752e+001  1.269077e+000
    endloop
  endfacet
  facet normal  9.057258e-001  9.684747e-004  4.238628e-001
    outer loop
      vertex  1.096312e+001  1.672752e+001  1.269077e+000
      vertex  1.100000e+001  1.000000e+002  1.000000e+000
      vertex  1.082335e+001  1.681830e+001  1.567536e+000
    endloop
  endfacet
  facet normal  9.238793e-001  6.489624e-004  3.826835e-001
    outer loop
      vertex  1.082335e+001  1.681830e+001  1.567536e+000
      vertex  1.100000e+001  1.000000e+002  1.000000e+000
      vertex  1.070711e+001  1.000000e+002  1.707107e+000
    endloop
  endfacet
  facet normal  7.195318e-001 -1.597290e-004  6.944594e-001
    outer loop
      vertex  1.082335e+001  1.681830e+001  1.567536e+000
      vertex  1.070711e+001  1.000000e+002  1.707107e+000
      vertex  1.059648e+001  1.696215e+001  1.802628e+000
    endloop
  endfacet
  facet normal  3.826835e-001  -0.000000e+000  9.238795e-001
    outer loop
      vertex  1.000000e+001  1.000000e+002  2.000000e+000
      vertex  1.000000e+001  1.732051e+001  2.000000e+000
      vertex  1.070711e+001  1.000000e+002  1.707107e+000
    endloop
  endfacet
  facet normal  3.145075e-001  6.729591e-004  9.492548e-001
    outer loop
      vertex  1.070711e+001  1.000000e+002  1.707107e+000
      vertex  1.000000e+001  1.732051e+001  2.000000e+000
      vertex  1.059648e+001  1.696215e+001  1.802628e+000
    endloop
  endfacet
  facet normal -5.077710e-016  0.000000e+000 -1.000000e+000
    outer loop
      vertex  1.000000e+001  1.732051e+001  0.000000e+000
      vertex  5.176381e+000  1.931852e+001  2.449294e-015
      vertex  1.000000e+001  1.000000e+002  0.000000e+000
    endloop
  endfacet
  facet normal  -0.000000e+000 -3.035757e-017 -1.000000e+000
    outer loop
      vertex -1.000000e+001  1.000000e+002  0.000000e+000
      vertex  1.000000e+001  1.000000e+002  0.000000e+000
      vertex  5.176381e+000  1.931852e+001  2.449294e-015
    endloop
  endfacet
  facet normal -4.098141e-018 -3.112844e-017 -1.000000e+000
    outer loop
      vertex -1.000000e+001  1.000000e+002  0.000000e+000
      vertex  5.176381e+000  1.931852e+001  2.449294e-015
      vertex  0.000000e+000  2.000000e+001  2.449294e-015
    endloop
  endfacet
  facet normal  3.965442e-018 -3.012049e-017 -9.999999e-001
    outer loop
      vertex -1.000000e+001  1.000000e+002  0.000000e+000
      vertex  0.000000e+000  2.000000e+001  2.449294e-015
      vertex -5.176381e+000  1.931852e+001  2.449294e-015
    endloop
  endfacet
  facet normal  5.077710e-016  0.000000e+000 -1.000000e+000
    outer loop
      vertex -1.000000e+001  1.000000e+002  0.000000e+000
      vertex -5.176381e+000  1.931852e+001  2.449294e-015
      vertex -1.000000e+001  1.732051e+001  0.000000e+000
    endloop
  endfacet
  facet normal  0.000000e+000  1.000000e+000  0.000000e+000
    outer loop
      vertex  9.000000e+000  1.000000e+002  2.000000e+000
      vertex  1.000000e+001  1.000000e+002  2.000000e+000
      vertex -5.524866e-001  1.000000e+002  1.498623e+000
    endloop
  endfacet
  facet normal  0.000000e+000  1.000000e+000  0.000000e+000
    outer loop
      vertex -5.524866e-001  1.000000e+002  1.498623e+000
      vertex  1.000000e+001  1.000000e+002  2.000000e+000
      vertex  1.070711e+001  1.000000e+002  1.707107e+000
    endloop
  endfacet
  facet normal  0.000000e+000  1.000000e+000  0.000000e+000
    outer loop
      vertex -5.524866e-001  1.000000e+002  1.498623e+000
      vertex  1.070711e+001  1.000000e+002  1.707107e+000
      vertex -1.000000e+001  1.000000e+002  0.000000e+000
    endloop
  endfacet
  facet normal  0.000000e+000  1.000000e+000  0.000000e+000
    outer loop
      vertex -1.000000e+001  1.000000e+002  0.000000e+000
      vertex  1.070711e+001  1.000000e+002  1.707107e+000
      vertex  1.100000e+001  1.000000e+002  1.000000e+000
    endloop
  endfacet
  facet normal  0.000000e+000  1.000000e+000  0.000000e+000
    outer loop
      vertex -1.000000e+001  1.000000e+002  0.000000e+000
      vertex  1.100000e+001  1.000000e+002  1.000000e+000
      vertex  1.000000e+001  1.000000e+002  0.000000e+000
    endloop
  endfacet
  facet normal  0.000000e+000  1.000000e+000  0.000000e+000
    outer loop
      vertex  1.000000e+001  1.000000e+002  0.000000e+000
      vertex  1.100000e+001  1.000000e+002  1.000000e+000
      vertex  1.070711e+001  1.000000e+002  2.928932e-001
    endloop
  endfacet
  facet normal  0.000000e+000  0.000000e+000  1.000000e+000
    outer loop
      vertex -5.176381e+000  1.931852e+001  1.000000e+001
      vertex  5.176381e+000  1.931852e+001  1.000000e+001
      vertex  1.224606e-015  2.000000e+001  1.000000e+001
    endloop
  endfacet
  facet normal  -0.000000e+000  0.000000e+000  1.000000e+000
    outer loop
      vertex  5.176381e+000  1.931852e+001  1.000000e+001
      vertex -5.176381e+000  1.931852e+001  1.000000e+001
      vertex  1.000000e+001  1.732051e+001  1.000000e+001
    endloop
  endfacet
  facet normal  0.000000e+000  0.000000e+000  1.000000e+000
    outer loop
      vertex  1.000000e+001  1.732051e+001  1.000000e+001
      vertex -5.176381e+000  1.931852e+001  1.000000e+001
      vertex -1.000000e+001  1.732051e+001  1.000000e+001
    endloop
  endfacet
  facet normal  -0.000000e+000  0.000000e+000  1.000000e+000
    outer loop
      vertex  1.000000e+001  1.732051e+001  1.000000e+001
      vertex -1.000000e+001  1.732051e+001  1.000000e+001
      vertex  1.414214e+001  1.414214e+001  1.000000e+001
    endloop
  endfacet
  facet normal  0.000000e+000  0.000000e+000  1.000000e+000
    outer loop
      vertex  1.414214e+001  1.414214e+001  1.000000e+001
      vertex -1.000000e+001  1.732051e+001  1.000000e+001
      vertex -1.414214e+001  1.414214e+001  1.000000e+001
    endloop
  endfacet
  facet normal  -0.000000e+000  0.000000e+000  1.000000e+000
    outer loop
      vertex  1.414214e+001  1.414214e+001  1.000000e+001
      vertex -1.414214e+001  1.414214e+001  1.000000e+001
      vertex  1.732051e+001  1.000000e+001  1.000000e+001
    endloop
  endfacet
  facet normal  0.000000e+000  0.000000e+000  1.000000e+000
    outer loop
      vertex  1.732051e+001  1.000000e+001  1.000000e+001
      vertex -1.414214e+001  1.414214e+001  1.000000e+001
      vertex -1.732051e+001  1.000000e+001  1.000000e+001
    endloop
  endfacet
  facet normal  -0.000000e+000  0.000000e+000  1.000000e+000
    outer loop
      vertex  1.732051e+001  1.000000e+001  1.000000e+001
      vertex -1.732051e+001  1.000000e+001  1.000000e+001
      vertex  1.931852e+001  5.176381e+000  1.000000e+001
    endloop
  endfacet
  facet normal  0.000000e+000  0.000000e+000  1.000000e+000
    outer loop
      vertex  1.931852e+001  5.176381e+000  1.000000e+001
      vertex -1.732051e+001  1.000000e+001  1.000000e+001
      vertex -1.931852e+001  5.176381e+000  1.000000e+001
    endloop
  endfacet
  facet normal  -0.000000e+000  0.000000e+000  1.000000e+000
    outer loop
      vertex  1.931852e+001  5.176381e+000  1.000000e+001
      vertex -1.931852e+001  5.176381e+000  1.000000e+001
      vertex  2.000000e+001  0.000000e+000  1.000000e+001
    endloop
  endfacet
  facet normal  0.000000e+000  0.000000e+000  1.000000e+000
    outer loop
      vertex  2.000000e+001  0.000000e+000  1.000000e+001
      vertex -1.931852e+001  5.176381e+000  1.000000e+001
      vertex -2.000000e+001  2.449213e-015  1.000000e+001
    endloop
  endfacet
  facet normal  0.000000e+000  0.000000e+000  1.000000e+000
    outer loop
      vertex  2.000000e+001  0.000000e+000  1.000000e+001
      vertex -2.000000e+001  2.449213e-015  1.000000e+001
      vertex  1.931852e+001 -5.176381e+000  1.000000e+001
    endloop
  endfacet
  facet normal  0.000000e+000  0.000000e+000  1.000000e+000
    outer loop
      vertex  1.931852e+001 -5.176381e+000  1.000000e+001
      vertex -2.000000e+001  2.449213e-015  1.000000e+001
      vertex -1.931852e+001 -5.176381e+000  1.000000e+001
    endloop
  endfacet
  facet normal  -0.000000e+000  0.000000e+000  1.000000e+000
    outer loop
      vertex  1.931852e+001 -5.176381e+000  1.000000e+001
      vertex -1.931852e+001 -5.176381e+000  1.000000e+001
      vertex  1.732051e+001 -1.000000e+001  1.000000e+001
    endloop
  endfacet
  facet normal  0.000000e+000  0.000000e+000  1.000000e+000
    outer loop
      vertex  1.732051e+001 -1.000000e+001  1.000000e+001
      vertex -1.931852e+001 -5.176381e+000  1.000000e+001
      vertex -1.732051e+001 -1.000000e+001  1.000000e+001
    endloop
  endfacet
  facet normal  -0.000000e+000  0.000000e+000  1.000000e+000
    outer loop
      vertex  1.732051e+001 -1.000000e+001  1.000000e+001
      vertex -1.732051e+001 -1.000000e+001  1.000000e+001
      vertex  1.414214e+001 -1.414214e+001  1.000000e+001
    endloop
  endfacet
  facet normal  0.000000e+000  0.000000e+000  1.000000e+000
    outer loop
      vertex  1.414214e+001 -1.414214e+001  1.000000e+001
      vertex -1.732051e+001 -1.000000e+001  1.000000e+001
      vertex -1.414214e+001 -1.414214e+001  1.000000e+001
    endloop
  endfacet
  facet normal  -0.000000e+000  0.000000e+000  1.000000e+000
    outer loop
      vertex  1.414214e+001 -1.414214e+001  1.000000e+001
      vertex -1.414214e+001 -1.414214e+001  1.000000e+001
      vertex  1.000000e+001 -1.732051e+001  1.000000e+001
    endloop
  endfacet
  facet normal  0.000000e+000  0.000000e+000  1.000000e+000
    outer loop
      vertex  1.000000e+001 -1.732051e+001  1.000000e+001
      vertex -1.414214e+001 -1.414214e+001  1.000000e+001
      vertex -1.000000e+001 -1.732051e+001  1.000000e+001
    endloop
  endfacet
  facet normal  -0.000000e+000  0.000000e+000  1.000000e+000
    outer loop
      vertex  1.000000e+001 -1.732051e+001  1.000000e+001
      vertex -1.000000e+001 -1.732051e+001  1.000000e+001
      vertex  5.176381e+000 -1.931852e+001  1.000000e+001
    endloop
  endfacet
  facet normal  0.000000e+000  0.000000e+000  1.000000e+000
    outer loop
      vertex  5.176381e+000 -1.931852e+001  1.000000e+001
      vertex -1.000000e+001 -1.732051e+001  1.000000e+001
      vertex -5.176381e+000 -1.931852e+001  1.000000e+001
    endloop
  endfacet
  facet normal  -0.000000e+000  0.000000e+000  1.000000e+000
    outer loop
      vertex  5.176381e+000 -1.931852e+001  1.000000e+001
      vertex -5.176381e+000 -1.931852e+001  1.000000e+001
      vertex -3.673819e-015 -2.000000e+001  1.000000e+001
    endloop
  endfacet
  facet normal  0.000000e+000  0.000000e+000 -1.000000e+000
    outer loop
      vertex  1.224606e-015  2.000000e+001 -1.000000e+001
      vertex  5.176381e+000  1.931852e+001 -1.000000e+001
      vertex -5.176381e+000  1.931852e+001 -1.000000e+001
    endloop
  endfacet
  facet normal  0.000000e+000  0.000000e+000 -1.000000e+000
    outer loop
      vertex -3.673819e-015 -2.000000e+001 -1.000000e+001
      vertex -5.176381e+000 -1.931852e+001 -1.000000e+001
      vertex  5.176381e+000 -1.931852e+001 -1.000000e+001
    endloop
  endfacet
  facet normal  0.000000e+000  0.000000e+000 -1.000000e+000
    outer loop
      vertex  5.176381e+000 -1.931852e+001 -1.000000e+001
      vertex -5.176381e+000 -1.931852e+001 -1.000000e+001
      vertex -1.000000e+001 -1.732051e+001 -1.000000e+001
    endloop
  endfacet
  facet normal  0.000000e+000  0.000000e+000 -1.000000e+000
    outer loop
      vertex  5.176381e+000 -1.931852e+001 -1.000000e+001
      vertex -1.000000e+001 -1.732051e+001 -1.000000e+001
      vertex  1.000000e+001 -1.732051e+001 -1.000000e+001
    endloop
  endfacet
  facet normal  0.000000e+000  0.000000e+000 -1.000000e+000
    outer loop
      vertex  1.000000e+001 -1.732051e+001 -1.000000e+001
      vertex -1.000000e+001 -1.732051e+001 -1.000000e+001
      vertex -1.414214e+001 -1.414214e+001 -1.000000e+001
    endloop
  endfacet
  facet normal  0.000000e+000  0.000000e+000 -1.000000e+000
    outer loop
      vertex  1.000000e+001 -1.732051e+001 -1.000000e+001
      vertex -1.414214e+001 -1.414214e+001 -1.000000e+001
      vertex  1.414214e+001 -1.414214e+001 -1.000000e+001
    endloop
  endfacet
  facet normal  0.000000e+000  0.000000e+000 -1.000000e+000
    outer loop
      vertex  1.414214e+001 -1.414214e+001 -1.000000e+001
      vertex -1.414214e+001 -1.414214e+001 -1.000000e+001
      vertex -1.732051e+001 -1.000000e+001 -1.000000e+001
    endloop
  endfacet
  facet normal  0.000000e+000  0.000000e+000 -1.000000e+000
    outer loop
      vertex  1.414214e+001 -1.414214e+001 -1.000000e+001
      vertex -1.732051e+001 -1.000000e+001 -1.000000e+001
      vertex  1.732051e+001 -1.000000e+001 -1.000000e+001
    endloop
  endfacet
  facet normal  0.000000e+000  0.000000e+000 -1.000000e+000
    outer loop
      vertex  1.732051e+001 -1.000000e+001 -1.000000e+001
      vertex -1.732051e+001 -1.000000e+001 -1.000000e+001
      vertex -1.931852e+001 -5.176381e+000 -1.000000e+001
    endloop
  endfacet
  facet normal  0.000000e+000  0.000000e+000 -1.000000e+000
    outer loop
      vertex  1.732051e+001 -1.000000e+001 -1.000000e+001
      vertex -1.931852e+001 -5.176381e+000 -1.000000e+001
      vertex  1.931852e+001 -5.176381e+000 -1.000000e+001
    endloop
  endfacet
  facet normal  0.000000e+000  0.000000e+000 -1.000000e+000
    outer loop
      vertex  1.931852e+001 -5.176381e+000 -1.000000e+001
      vertex -1.931852e+001 -5.176381e+000 -1.000000e+001
      vertex -2.000000e+001  2.449213e-015 -1.000000e+001
    endloop
  endfacet
  facet normal  0.000000e+000  0.000000e+000 -1.000000e+000
    outer loop
      vertex  1.931852e+001 -5.176381e+000 -1.000000e+001
      vertex -2.000000e+001  2.449213e-015 -1.000000e+001
      vertex  2.000000e+001  0.000000e+000 -1.000000e+001
    endloop
  endfacet
  facet normal  0.000000e+000  0.000000e+000 -1.000000e+000
    outer loop
      vertex  2.000000e+001  0.000000e+000 -1.000000e+001
      vertex -2.000000e+001  2.449213e-015 -1.000000e+001
      vertex -1.931852e+001  5.176381e+000 -1.000000e+001
    endloop
  endfacet
  facet normal  0.000000e+000  0.000000e+000 -1.000000e+000
    outer loop
      vertex  2.000000e+001  0.000000e+000 -1.000000e+001
      vertex -1.931852e+001  5.176381e+000 -1.000000e+001
      vertex  1.931852e+001  5.176381e+000 -1.000000e+001
    endloop
  endfacet
  facet normal  0.000000e+000  0.000000e+000 -1.000000e+000
    outer loop
      vertex  1.931852e+001  5.176381e+000 -1.000000e+001
      vertex -1.931852e+001  5.176381e+000 -1.000000e+001
      vertex -1.732051e+001  1.000000e+001 -1.000000e+001
    endloop
  endfacet
  facet normal  0.000000e+000  0.000000e+000 -1.000000e+000
    outer loop
      vertex  1.931852e+001  5.176381e+000 -1.000000e+001
      vertex -1.732051e+001  1.000000e+001 -1.000000e+001
      vertex  1.732051e+001  1.000000e+001 -1.000000e+001
    endloop
  endfacet
  facet normal  0.000000e+000  0.000000e+000 -1.000000e+000
    outer loop
      vertex  1.732051e+001  1.000000e+001 -1.000000e+001
      vertex -1.732051e+001  1.000000e+001 -1.000000e+001
      vertex -1.414214e+001  1.414214e+001 -1.000000e+001
    endloop
  endfacet
  facet normal  0.000000e+000  0.000000e+000 -1.000000e+000
    outer loop
      vertex  1.732051e+001  1.000000e+001 -1.000000e+001
      vertex -1.414214e+001  1.414214e+001 -1.000000e+001
      vertex  1.414214e+001  1.414214e+001 -1.000000e+001
    endloop
  endfacet
  facet normal  0.000000e+000  0.000000e+000 -1.000000e+000
    outer loop
      vertex  1.414214e+001  1.414214e+001 -1.000000e+001
      vertex -1.414214e+001  1.414214e+001 -1.000000e+001
      vertex -1.000000e+001  1.732051e+001 -1.000000e+001
    endloop
  endfacet
  facet normal  0.000000e+000  0.000000e+000 -1.000000e+000
    outer loop
      vertex  1.414214e+001  1.414214e+001 -1.000000e+001
      vertex -1.000000e+001  1.732051e+001 -1.000000e+001
      vertex  1.000000e+001  1.732051e+001 -1.000000e+001
    endloop
  endfacet
  facet normal  0.000000e+000  0.000000e+000 -1.000000e+000
    outer loop
      vertex  1.000000e+001  1.732051e+001 -1.000000e+001
      vertex -1.000000e+001  1.732051e+001 -1.000000e+001
      vertex -5.176381e+000  1.931852e+001 -1.000000e+001
    endloop
  endfacet
  facet normal  0.000000e+000  0.000000e+000 -1.000000e+000
    outer loop
      vertex  1.000000e+001  1.732051e+001 -1.000000e+001
      vertex -5.176381e+000  1.931852e+001 -1.000000e+001
      vertex  5.176381e+000  1.931852e+001 -1.000000e+001
    endloop
  endfacet
  facet normal  9.914448e-001 -1.305263e-001  0.000000e+000
    outer loop
      vertex  2.000000e+001  0.000000e+000 -1.000000e+001
      vertex  2.000000e+001  0.000000e+000  1.000000e+001
      vertex  1.931852e+001 -5.176381e+000 -1.000000e+001
    endloop
  endfacet
  facet normal  9.914448e-001 -1.305263e-001  0.000000e+000
    outer loop
      vertex  1.931852e+001 -5.176381e+000 -1.000000e+001
      vertex  2.000000e+001  0.000000e+000  1.000000e+001
      vertex  1.931852e+001 -5.176381e+000  1.000000e+001
    endloop
  endfacet
  facet normal  9.238796e-001 -3.826831e-001  0.000000e+000
    outer loop
      vertex  1.931852e+001 -5.176381e+000 -1.000000e+001
      vertex  1.931852e+001 -5.176381e+000  1.000000e+001
      vertex  1.732051e+001 -1.000000e+001 -1.000000e+001
    endloop
  endfacet
  facet normal  9.238796e-001 -3.826831e-001  0.000000e+000
    outer loop
      vertex  1.732051e+001 -1.000000e+001 -1.000000e+001
      vertex  1.931852e+001 -5.176381e+000  1.000000e+001
      vertex  1.732051e+001 -1.000000e+001  1.000000e+001
    endloop
  endfacet
  facet normal  7.933532e-001 -6.087615e-001  0.000000e+000
    outer loop
      vertex  1.732051e+001 -1.000000e+001 -1.000000e+001
      vertex  1.732051e+001 -1.000000e+001  1.000000e+001
      vertex  1.414214e+001 -1.414214e+001 -1.000000e+001
    endloop
  endfacet
  facet normal  7.933532e-001 -6.087615e-001  0.000000e+000
    outer loop
      vertex  1.414214e+001 -1.414214e+001 -1.000000e+001
      vertex  1.732051e+001 -1.000000e+001  1.000000e+001
      vertex  1.414214e+001 -1.414214e+001  1.000000e+001
    endloop
  endfacet
  facet normal  6.087615e-001 -7.933532e-001  0.000000e+000
    outer loop
      vertex  1.414214e+001 -1.414214e+001 -1.000000e+001
      vertex  1.414214e+001 -1.414214e+001  1.000000e+001
      vertex  1.000000e+001 -1.732051e+001 -1.000000e+001
    endloop
  endfacet
  facet normal  6.087615e-001 -7.933532e-001  0.000000e+000
    outer loop
      vertex  1.000000e+001 -1.732051e+001 -1.000000e+001
      vertex  1.414214e+001 -1.414214e+001  1.000000e+001
      vertex  1.000000e+001 -1.732051e+001  1.000000e+001
    endloop
  endfacet
  facet normal  3.826831e-001 -9.238796e-001  0.000000e+000
    outer loop
      vertex  1.000000e+001 -1.732051e+001 -1.000000e+001
      vertex  1.000000e+001 -1.732051e+001  1.000000e+001
      vertex  5.176381e+000 -1.931852e+001 -1.000000e+001
    endloop
  endfacet
  facet normal  3.826831e-001 -9.238796e-001  0.000000e+000
    outer loop
      vertex  5.176381e+000 -1.931852e+001 -1.000000e+001
      vertex  1.000000e+001 -1.732051e+001  1.000000e+001
      vertex  5.176381e+000 -1.931852e+001  1.000000e+001
    endloop
  endfacet
  facet normal  1.305263e-001 -9.914448e-001  0.000000e+000
    outer loop
      vertex  5.176381e+000 -1.931852e+001 -1.000000e+001
      vertex  5.176381e+000 -1.931852e+001  1.000000e+001
      vertex -3.673819e-015 -2.000000e+001 -1.000000e+001
    endloop
  endfacet
  facet normal  1.305263e-001 -9.914448e-001  0.000000e+000
    outer loop
      vertex -3.673819e-015 -2.000000e+001 -1.000000e+001
      vertex  5.176381e+000 -1.931852e+001  1.000000e+001
      vertex -3.673819e-015 -2.000000e+001  1.000000e+001
    endloop
  endfacet
  facet normal -1.305263e-001 -9.914448e-001  -0.000000e+000
    outer loop
      vertex -3.673819e-015 -2.000000e+001 -1.000000e+001
      vertex -3.673819e-015 -2.000000e+001  1.000000e+001
      vertex -5.176381e+000 -1.931852e+001 -1.000000e+001
    endloop
  endfacet
  facet normal -1.305263e-001 -9.914448e-001  0.000000e+000
    outer loop
      vertex -5.176381e+000 -1.931852e+001 -1.000000e+001
      vertex -3.673819e-015 -2.000000e+001  1.000000e+001
      vertex -5.176381e+000 -1.931852e+001  1.000000e+001
    endloop
  endfacet
  facet normal -3.826831e-001 -9.238796e-001  -0.000000e+000
    outer loop
      vertex -5.176381e+000 -1.931852e+001 -1.000000e+001
      vertex -5.176381e+000 -1.931852e+001  1.000000e+001
      vertex -1.000000e+001 -1.732051e+001 -1.000000e+001
    endloop
  endfacet
  facet normal -3.826831e-001 -9.238796e-001  0.000000e+000
    outer loop
      vertex -1.000000e+001 -1.732051e+001 -1.000000e+001
      vertex -5.176381e+000 -1.931852e+001  1.000000e+001
      vertex -1.000000e+001 -1.732051e+001  1.000000e+001
    endloop
  endfacet
  facet normal -6.087615e-001 -7.933532e-001  -0.000000e+000
    outer loop
      vertex -1.000000e+001 -1.732051e+001 -1.000000e+001
      vertex -1.000000e+001 -1.732051e+001  1.000000e+001
      vertex -1.414214e+001 -1.414214e+001 -1.000000e+001
    endloop
  endfacet
  facet normal -6.087615e-001 -7.933532e-001  0.000000e+000
    outer loop
      vertex -1.414214e+001 -1.414214e+001 -1.000000e+001
      vertex -1.000000e+001 -1.732051e+001  1.000000e+001
      vertex -1.414214e+001 -1.414214e+001  1.000000e+001
    endloop
  endfacet
  facet normal -7.933532e-001 -6.087615e-001  -0.000000e+000
    outer loop
      vertex -1.414214e+001 -1.414214e+001 -1.000000e+001
      vertex -1.414214e+001 -1.414214e+001  1.000000e+001
      vertex -1.732051e+001 -1.000000e+001 -1.000000e+001
    endloop
  endfacet
  facet normal -7.933532e-001 -6.087615e-001  0.000000e+000
    outer loop
      vertex -1.732051e+001 -1.000000e+001 -1.000000e+001
      vertex -1.414214e+001 -1.414214e+001  1.000000e+001
      vertex -1.732051e+001 -1.000000e+001  1.000000e+001
    endloop
  endfacet
  facet normal -9.238796e-001 -3.826831e-001  -0.000000e+000
    outer loop
      vertex -1.732051e+001 -1.000000e+001 -1.000000e+001
      vertex -1.732051e+001 -1.000000e+001  1.000000e+001
      vertex -1.931852e+001 -5.176381e+000 -1.000000e+001
    endloop
  endfacet
  facet normal -9.238796e-001 -3.826831e-001  0.000000e+000
    outer loop
      vertex -1.931852e+001 -5.176381e+000 -1.000000e+001
      vertex -1.732051e+001 -1.000000e+001  1.000000e+001
      vertex -1.931852e+001 -5.176381e+000  1.000000e+001
    endloop
  endfacet
  facet normal -9.914448e-001 -1.305263e-001  -0.000000e+000
    outer loop
      vertex -1.931852e+001 -5.176381e+000 -1.000000e+001
      vertex -1.931852e+001 -5.176381e+000  1.000000e+001
      vertex -2.000000e+001  2.449213e-015 -1.000000e+001
    endloop
  endfacet
  facet normal -9.914448e-001 -1.305263e-001  0.000000e+000
    outer loop
      vertex -2.000000e+001  2.449213e-015 -1.000000e+001
      vertex -1.931852e+001 -5.176381e+000  1.000000e+001
      vertex -2.000000e+001  2.449213e-015  1.000000e+001
    endloop
  endfacet
endsolid CATIA STL
