solid CATIA STL
  facet normal  9.914448e-001 -1.305263e-001  0.000000e+000
    outer loop
      vertex  2.000000e+001  0.000000e+000 -1.000000e+001
      vertex  1.931852e+001 -5.176381e+000  1.000000e+000
      vertex  1.931852e+001 -5.176381e+000 -1.000000e+001
    endloop
  endfacet
  facet normal -3.596004e-001 -9.331046e-001  1.819995e-003
    outer loop
      vertex -9.000000e+000 -1.786057e+001  2.000000e+000
      vertex -5.315030e+000 -1.928083e+001  1.925564e+000
      vertex -5.176381e+000 -1.931852e+001  1.000000e+001
    endloop
  endfacet
  facet normal -5.782508e-001 -8.152679e-001  3.105341e-002
    outer loop
      vertex -1.414214e+001 -1.414214e+001  1.000000e+001
      vertex -1.092855e+001 -1.675013e+001  1.371207e+000
      vertex -1.076633e+001 -1.685486e+001  1.642449e+000
    endloop
  endfacet
  facet normal -1.305259e-001 -9.914420e-001 -2.385772e-003
    outer loop
      vertex -3.673819e-015 -2.000000e+001  1.000000e+001
      vertex -5.176381e+000 -1.931852e+001  1.000000e+001
      vertex -5.315030e+000 -1.928083e+001  1.925564e+000
    endloop
  endfacet
  facet normal -1.703263e-001 -9.850861e-001  2.437909e-002
    outer loop
      vertex -3.673819e-015 -2.000000e+001  1.000000e+001
      vertex -5.315030e+000 -1.928083e+001  1.925564e+000
      vertex -1.526246e+000 -1.994168e+001  1.693419e+000
    endloop
  endfacet
  facet normal  1.849581e-002 -9.997747e-001 -1.041812e-002
    outer loop
      vertex -3.673819e-015 -2.000000e+001  1.000000e+001
      vertex -1.526246e+000 -1.994168e+001  1.693419e+000
      vertex  2.305652e+000 -1.986666e+001  1.296920e+000
    endloop
  endfacet
  facet normal  1.909819e-001 -9.809490e-001  3.556598e-002
    outer loop
      vertex -3.673819e-015 -2.000000e+001  1.000000e+001
      vertex  2.305652e+000 -1.986666e+001  1.296920e+000
      vertex  5.176381e+000 -1.931852e+001  1.000000e+000
    endloop
  endfacet
  facet normal  1.305263e-001 -9.914449e-001  0.000000e+000
    outer loop
      vertex -3.673819e-015 -2.000000e+001  1.000000e+001
      vertex  5.176381e+000 -1.931852e+001  1.000000e+000
      vertex  5.176381e+000 -1.931852e+001  1.000000e+001
    endloop
  endfacet
  facet normal -6.087615e-001 -7.933532e-001  0.000000e+000
    outer loop
      vertex -1.414214e+001 -1.414214e+001 -1.000000e+001
      vertex -1.000000e+001 -1.732051e+001 -1.000000e+001
      vertex -1.000000e+001 -1.732051e+001  3.552714e-015
    endloop
  endfacet
  facet normal -5.267681e-001 -8.484491e-001 -5.147431e-002
    outer loop
      vertex -1.414214e+001 -1.414214e+001 -1.000000e+001
      vertex -1.000000e+001 -1.732051e+001  3.552714e-015
      vertex -1.059648e+001 -1.696215e+001  1.973721e-001
    endloop
  endfacet
  facet normal -5.601705e-001 -8.276745e-001 -3.411512e-002
    outer loop
      vertex -1.414214e+001 -1.414214e+001 -1.000000e+001
      vertex -1.059648e+001 -1.696215e+001  1.973721e-001
      vertex -1.082335e+001 -1.681830e+001  4.324635e-001
    endloop
  endfacet
  facet normal -5.803359e-001 -8.140177e-001 -2.419680e-002
    outer loop
      vertex -1.414214e+001 -1.414214e+001 -1.000000e+001
      vertex -1.082335e+001 -1.681830e+001  4.324635e-001
      vertex -1.096312e+001 -1.672752e+001  7.309229e-001
    endloop
  endfacet
  facet normal -6.309507e-001 -7.758228e-001  0.000000e+000
    outer loop
      vertex -1.414214e+001 -1.414214e+001 -1.000000e+001
      vertex -1.096312e+001 -1.672752e+001  7.309229e-001
      vertex -1.414214e+001 -1.414214e+001  1.000000e+000
    endloop
  endfacet
  facet normal  3.826832e-001 -9.238797e-001  0.000000e+000
    outer loop
      vertex  5.176381e+000 -1.931852e+001  1.000000e+001
      vertex  5.176381e+000 -1.931852e+001  1.000000e+000
      vertex  1.000000e+001 -1.732051e+001  1.000000e+001
    endloop
  endfacet
  facet normal  3.826832e-001 -9.238797e-001  0.000000e+000
    outer loop
      vertex  1.000000e+001 -1.732051e+001  1.000000e+001
      vertex  5.176381e+000 -1.931852e+001  1.000000e+000
      vertex  1.000000e+001 -1.732051e+001  1.000000e+000
    endloop
  endfacet
  facet normal  6.087615e-001 -7.933533e-001  0.000000e+000
    outer loop
      vertex  1.000000e+001 -1.732051e+001  1.000000e+001
      vertex  1.000000e+001 -1.732051e+001  1.000000e+000
      vertex  1.414214e+001 -1.414214e+001  1.000000e+001
    endloop
  endfacet
  facet normal  6.087615e-001 -7.933533e-001  0.000000e+000
    outer loop
      vertex  1.414214e+001 -1.414214e+001  1.000000e+001
      vertex  1.000000e+001 -1.732051e+001  1.000000e+000
      vertex  1.414214e+001 -1.414214e+001  1.000000e+000
    endloop
  endfacet
  facet normal  7.933533e-001 -6.087615e-001  0.000000e+000
    outer loop
      vertex  1.414214e+001 -1.414214e+001  1.000000e+001
      vertex  1.414214e+001 -1.414214e+001  1.000000e+000
      vertex  1.732051e+001 -1.000000e+001  1.000000e+001
    endloop
  endfacet
  facet normal  7.933533e-001 -6.087615e-001  0.000000e+000
    outer loop
      vertex  1.732051e+001 -1.000000e+001  1.000000e+001
      vertex  1.414214e+001 -1.414214e+001  1.000000e+000
      vertex  1.732051e+001 -1.000000e+001  1.000000e+000
    endloop
  endfacet
  facet normal  9.238797e-001 -3.826832e-001  0.000000e+000
    outer loop
      vertex  1.732051e+001 -1.000000e+001  1.000000e+001
      vertex  1.732051e+001 -1.000000e+001  1.000000e+000
      vertex  1.931852e+001 -5.176381e+000  1.000000e+001
    endloop
  endfacet
  facet normal  9.238797e-001 -3.826832e-001  0.000000e+000
    outer loop
      vertex  1.931852e+001 -5.176381e+000  1.000000e+001
      vertex  1.732051e+001 -1.000000e+001  1.000000e+000
      vertex  1.931852e+001 -5.176381e+000  1.000000e+000
    endloop
  endfacet
  facet normal  9.914449e-001 -1.305263e-001  0.000000e+000
    outer loop
      vertex  1.931852e+001 -5.176381e+000  1.000000e+001
      vertex  1.931852e+001 -5.176381e+000  1.000000e+000
      vertex  2.000000e+001  0.000000e+000  1.000000e+001
    endloop
  endfacet
  facet normal  9.914448e-001 -1.305263e-001  0.000000e+000
    outer loop
      vertex  2.000000e+001  0.000000e+000  1.000000e+001
      vertex  1.931852e+001 -5.176381e+000  1.000000e+000
      vertex  2.000000e+001  0.000000e+000 -1.000000e+001
    endloop
  endfacet
  facet normal -6.305981e-001 -7.760810e-001  6.647806e-003
    outer loop
      vertex -1.096312e+001 -1.672752e+001  7.309229e-001
      vertex -1.092855e+001 -1.675013e+001  1.371207e+000
      vertex -1.414214e+001 -1.414214e+001  1.000000e+000
    endloop
  endfacet
  facet normal -6.301492e-001 -7.764741e-001  0.000000e+000
    outer loop
      vertex -1.414214e+001 -1.414214e+001  1.000000e+000
      vertex -1.092855e+001 -1.675013e+001  1.371207e+000
      vertex -1.414214e+001 -1.414214e+001  1.000000e+001
    endloop
  endfacet
  facet normal -7.933533e-001 -6.087615e-001  -0.000000e+000
    outer loop
      vertex -1.414214e+001 -1.414214e+001  1.000000e+000
      vertex -1.414214e+001 -1.414214e+001  1.000000e+001
      vertex -1.732051e+001 -1.000000e+001  1.000000e+000
    endloop
  endfacet
  facet normal -7.933533e-001 -6.087615e-001  0.000000e+000
    outer loop
      vertex -1.732051e+001 -1.000000e+001  1.000000e+000
      vertex -1.414214e+001 -1.414214e+001  1.000000e+001
      vertex -1.732051e+001 -1.000000e+001  1.000000e+001
    endloop
  endfacet
  facet normal -9.238797e-001 -3.826832e-001  -0.000000e+000
    outer loop
      vertex -1.732051e+001 -1.000000e+001  1.000000e+000
      vertex -1.732051e+001 -1.000000e+001  1.000000e+001
      vertex -1.931852e+001 -5.176381e+000  1.000000e+000
    endloop
  endfacet
  facet normal -9.238797e-001 -3.826832e-001  0.000000e+000
    outer loop
      vertex -1.931852e+001 -5.176381e+000  1.000000e+000
      vertex -1.732051e+001 -1.000000e+001  1.000000e+001
      vertex -1.931852e+001 -5.176381e+000  1.000000e+001
    endloop
  endfacet
  facet normal -9.914449e-001 -1.305263e-001  -0.000000e+000
    outer loop
      vertex -1.931852e+001 -5.176381e+000  1.000000e+000
      vertex -1.931852e+001 -5.176381e+000  1.000000e+001
      vertex -2.000000e+001  2.449213e-015  1.000000e+001
    endloop
  endfacet
  facet normal -9.914448e-001 -1.305263e-001  0.000000e+000
    outer loop
      vertex -2.000000e+001  2.449213e-015  1.000000e+001
      vertex -2.000000e+001  2.449213e-015 -1.000000e+001
      vertex -1.931852e+001 -5.176381e+000  1.000000e+000
    endloop
  endfacet
  facet normal -9.914448e-001 -1.305263e-001  -0.000000e+000
    outer loop
      vertex -1.931852e+001 -5.176381e+000  1.000000e+000
      vertex -2.000000e+001  2.449213e-015 -1.000000e+001
      vertex -1.931852e+001 -5.176381e+000 -1.000000e+001
    endloop
  endfacet
  facet normal -9.238796e-001 -3.826832e-001  0.000000e+000
    outer loop
      vertex -1.931852e+001 -5.176381e+000  1.000000e+000
      vertex -1.931852e+001 -5.176381e+000 -1.000000e+001
      vertex -1.732051e+001 -1.000000e+001  1.000000e+000
    endloop
  endfacet
  facet normal -9.238796e-001 -3.826832e-001  -0.000000e+000
    outer loop
      vertex -1.732051e+001 -1.000000e+001  1.000000e+000
      vertex -1.931852e+001 -5.176381e+000 -1.000000e+001
      vertex -1.732051e+001 -1.000000e+001 -1.000000e+001
    endloop
  endfacet
  facet normal -7.933533e-001 -6.087615e-001  0.000000e+000
    outer loop
      vertex -1.732051e+001 -1.000000e+001  1.000000e+000
      vertex -1.732051e+001 -1.000000e+001 -1.000000e+001
      vertex -1.414214e+001 -1.414214e+001  1.000000e+000
    endloop
  endfacet
  facet normal -7.933533e-001 -6.087615e-001  -0.000000e+000
    outer loop
      vertex -1.414214e+001 -1.414214e+001  1.000000e+000
      vertex -1.732051e+001 -1.000000e+001 -1.000000e+001
      vertex -1.414214e+001 -1.414214e+001 -1.000000e+001
    endloop
  endfacet
  facet normal  9.238796e-001 -3.826832e-001  0.000000e+000
    outer loop
      vertex  1.931852e+001 -5.176381e+000 -1.000000e+001
      vertex  1.931852e+001 -5.176381e+000  1.000000e+000
      vertex  1.732051e+001 -1.000000e+001 -1.000000e+001
    endloop
  endfacet
  facet normal  9.238796e-001 -3.826832e-001  0.000000e+000
    outer loop
      vertex  1.732051e+001 -1.000000e+001 -1.000000e+001
      vertex  1.931852e+001 -5.176381e+000  1.000000e+000
      vertex  1.732051e+001 -1.000000e+001  1.000000e+000
    endloop
  endfacet
  facet normal  7.933533e-001 -6.087615e-001  0.000000e+000
    outer loop
      vertex  1.732051e+001 -1.000000e+001 -1.000000e+001
      vertex  1.732051e+001 -1.000000e+001  1.000000e+000
      vertex  1.414214e+001 -1.414214e+001 -1.000000e+001
    endloop
  endfacet
  facet normal  7.933533e-001 -6.087615e-001  0.000000e+000
    outer loop
      vertex  1.414214e+001 -1.414214e+001 -1.000000e+001
      vertex  1.732051e+001 -1.000000e+001  1.000000e+000
      vertex  1.414214e+001 -1.414214e+001  1.000000e+000
    endloop
  endfacet
  facet normal  6.087615e-001 -7.933533e-001  0.000000e+000
    outer loop
      vertex  1.414214e+001 -1.414214e+001 -1.000000e+001
      vertex  1.414214e+001 -1.414214e+001  1.000000e+000
      vertex  1.000000e+001 -1.732051e+001  0.000000e+000
    endloop
  endfacet
  facet normal  6.087615e-001 -7.933533e-001  0.000000e+000
    outer loop
      vertex  1.000000e+001 -1.732051e+001  0.000000e+000
      vertex  1.414214e+001 -1.414214e+001  1.000000e+000
      vertex  1.000000e+001 -1.732051e+001  1.000000e+000
    endloop
  endfacet
  facet normal  4.094246e-001 -9.123439e-001  0.000000e+000
    outer loop
      vertex  1.000000e+001 -1.732051e+001  0.000000e+000
      vertex  1.000000e+001 -1.732051e+001  1.000000e+000
      vertex  6.292275e+000 -1.898439e+001  7.094843e-001
    endloop
  endfacet
  facet normal  3.544060e-001 -8.556125e-001  3.772579e-001
    outer loop
      vertex  6.292275e+000 -1.898439e+001  7.094843e-001
      vertex  1.000000e+001 -1.732051e+001  1.000000e+000
      vertex  5.176381e+000 -1.931852e+001  1.000000e+000
    endloop
  endfacet
  facet normal  9.777184e-002 -8.186210e-001 -5.659508e-001
    outer loop
      vertex  6.292275e+000 -1.898439e+001  7.094843e-001
      vertex  5.176381e+000 -1.931852e+001  1.000000e+000
      vertex  2.305652e+000 -1.986666e+001  1.296920e+000
    endloop
  endfacet
  facet normal -3.826831e-001 -9.238796e-001  0.000000e+000
    outer loop
      vertex -1.000000e+001 -1.732051e+001  3.552714e-015
      vertex -1.000000e+001 -1.732051e+001 -1.000000e+001
      vertex -5.176381e+000 -1.931852e+001  2.449294e-015
    endloop
  endfacet
  facet normal -3.826831e-001 -9.238796e-001  -0.000000e+000
    outer loop
      vertex -5.176381e+000 -1.931852e+001  2.449294e-015
      vertex -1.000000e+001 -1.732051e+001 -1.000000e+001
      vertex -5.176381e+000 -1.931852e+001 -1.000000e+001
    endloop
  endfacet
  facet normal -1.305263e-001 -9.914448e-001  0.000000e+000
    outer loop
      vertex -5.176381e+000 -1.931852e+001  2.449294e-015
      vertex -5.176381e+000 -1.931852e+001 -1.000000e+001
      vertex -3.552714e-015 -2.000000e+001  2.449294e-015
    endloop
  endfacet
  facet normal -1.305263e-001 -9.914448e-001  1.580744e-018
    outer loop
      vertex -3.552714e-015 -2.000000e+001  2.449294e-015
      vertex -5.176381e+000 -1.931852e+001 -1.000000e+001
      vertex -3.673819e-015 -2.000000e+001 -1.000000e+001
    endloop
  endfacet
  facet normal  1.305263e-001 -9.914448e-001 -1.580744e-018
    outer loop
      vertex -3.552714e-015 -2.000000e+001  2.449294e-015
      vertex -3.673819e-015 -2.000000e+001 -1.000000e+001
      vertex  5.176381e+000 -1.931852e+001  2.449294e-015
    endloop
  endfacet
  facet normal  1.305263e-001 -9.914448e-001  0.000000e+000
    outer loop
      vertex  5.176381e+000 -1.931852e+001  2.449294e-015
      vertex -3.673819e-015 -2.000000e+001 -1.000000e+001
      vertex  5.176381e+000 -1.931852e+001 -1.000000e+001
    endloop
  endfacet
  facet normal  3.826831e-001 -9.238796e-001  0.000000e+000
    outer loop
      vertex  5.176381e+000 -1.931852e+001  2.449294e-015
      vertex  5.176381e+000 -1.931852e+001 -1.000000e+001
      vertex  1.000000e+001 -1.732051e+001  0.000000e+000
    endloop
  endfacet
  facet normal  3.826831e-001 -9.238796e-001  0.000000e+000
    outer loop
      vertex  1.000000e+001 -1.732051e+001  0.000000e+000
      vertex  5.176381e+000 -1.931852e+001 -1.000000e+001
      vertex  1.000000e+001 -1.732051e+001 -1.000000e+001
    endloop
  endfacet
  facet normal  6.087615e-001 -7.933532e-001  0.000000e+000
    outer loop
      vertex  1.000000e+001 -1.732051e+001  0.000000e+000
      vertex  1.000000e+001 -1.732051e+001 -1.000000e+001
      vertex  1.414214e+001 -1.414214e+001 -1.000000e+001
    endloop
  endfacet
  facet normal -4.741355e-001 -8.779280e-001  6.661785e-002
    outer loop
      vertex -9.000000e+000 -1.786057e+001  2.000000e+000
      vertex -5.176381e+000 -1.931852e+001  1.000000e+001
      vertex -1.000000e+001 -1.732051e+001  2.000000e+000
    endloop
  endfacet
  facet normal -3.826832e-001 -9.238796e-001  0.000000e+000
    outer loop
      vertex -1.000000e+001 -1.732051e+001  2.000000e+000
      vertex -5.176381e+000 -1.931852e+001  1.000000e+001
      vertex -1.000000e+001 -1.732051e+001  1.000000e+001
    endloop
  endfacet
  facet normal -5.060167e-001 -8.625238e-001  -0.000000e+000
    outer loop
      vertex -1.000000e+001 -1.732051e+001  2.000000e+000
      vertex -1.000000e+001 -1.732051e+001  1.000000e+001
      vertex -1.024003e+001 -1.717969e+001  1.970766e+000
    endloop
  endfacet
  facet normal -6.087559e-001 -7.933460e-001  4.284514e-003
    outer loop
      vertex -1.024003e+001 -1.717969e+001  1.970766e+000
      vertex -1.000000e+001 -1.732051e+001  1.000000e+001
      vertex -1.414214e+001 -1.414214e+001  1.000000e+001
    endloop
  endfacet
  facet normal -5.470666e-001 -8.355799e-001  5.024238e-002
    outer loop
      vertex -1.024003e+001 -1.717969e+001  1.970766e+000
      vertex -1.414214e+001 -1.414214e+001  1.000000e+001
      vertex -1.076633e+001 -1.685486e+001  1.642449e+000
    endloop
  endfacet
  facet normal -3.826835e-001  0.000000e+000  9.238795e-001
    outer loop
      vertex -1.000000e+001 -1.000000e+002  2.000000e+000
      vertex -1.000000e+001 -1.732051e+001  2.000000e+000
      vertex -1.070711e+001 -1.000000e+002  1.707107e+000
    endloop
  endfacet
  facet normal -1.223275e-001 -2.469706e-003  9.924868e-001
    outer loop
      vertex -1.070711e+001 -1.000000e+002  1.707107e+000
      vertex -1.000000e+001 -1.732051e+001  2.000000e+000
      vertex -1.024003e+001 -1.717969e+001  1.970766e+000
    endloop
  endfacet
  facet normal -5.291519e-001  2.829564e-004  8.485271e-001
    outer loop
      vertex -1.070711e+001 -1.000000e+002  1.707107e+000
      vertex -1.024003e+001 -1.717969e+001  1.970766e+000
      vertex -1.076633e+001 -1.685486e+001  1.642449e+000
    endloop
  endfacet
  facet normal -9.238794e-001 -3.604541e-004  3.826837e-001
    outer loop
      vertex -1.070711e+001 -1.000000e+002  1.707107e+000
      vertex -1.076633e+001 -1.685486e+001  1.642449e+000
      vertex -1.100000e+001 -1.000000e+002  1.000000e+000
    endloop
  endfacet
  facet normal -8.584856e-001 -1.549900e-003  5.128353e-001
    outer loop
      vertex -1.100000e+001 -1.000000e+002  1.000000e+000
      vertex -1.076633e+001 -1.685486e+001  1.642449e+000
      vertex -1.092855e+001 -1.675013e+001  1.371207e+000
    endloop
  endfacet
  facet normal -9.985443e-001  6.165289e-004  5.393296e-002
    outer loop
      vertex -1.100000e+001 -1.000000e+002  1.000000e+000
      vertex -1.092855e+001 -1.675013e+001  1.371207e+000
      vertex -1.096312e+001 -1.672752e+001  7.309229e-001
    endloop
  endfacet
  facet normal -9.238791e-001 -8.273725e-004 -3.826835e-001
    outer loop
      vertex -1.100000e+001 -1.000000e+002  1.000000e+000
      vertex -1.096312e+001 -1.672752e+001  7.309229e-001
      vertex -1.070711e+001 -1.000000e+002  2.928932e-001
    endloop
  endfacet
  facet normal -9.056779e-001 -5.542594e-004 -4.239662e-001
    outer loop
      vertex -1.070711e+001 -1.000000e+002  2.928932e-001
      vertex -1.096312e+001 -1.672752e+001  7.309229e-001
      vertex -1.082335e+001 -1.681830e+001  4.324635e-001
    endloop
  endfacet
  facet normal -7.195317e-001  1.597285e-004 -6.944596e-001
    outer loop
      vertex -1.070711e+001 -1.000000e+002  2.928932e-001
      vertex -1.082335e+001 -1.681830e+001  4.324635e-001
      vertex -1.059648e+001 -1.696215e+001  1.973721e-001
    endloop
  endfacet
  facet normal -3.145075e-001 -6.729594e-004 -9.492547e-001
    outer loop
      vertex -1.059648e+001 -1.696215e+001  1.973721e-001
      vertex -1.000000e+001 -1.732051e+001  3.552714e-015
      vertex -1.070711e+001 -1.000000e+002  2.928932e-001
    endloop
  endfacet
  facet normal -3.826835e-001  0.000000e+000 -9.238794e-001
    outer loop
      vertex -1.070711e+001 -1.000000e+002  2.928932e-001
      vertex -1.000000e+001 -1.732051e+001  3.552714e-015
      vertex -1.000000e+001 -1.000000e+002  3.552714e-015
    endloop
  endfacet
  facet normal  0.000000e+000  0.000000e+000  9.999999e-001
    outer loop
      vertex -9.000000e+000 -1.786057e+001  2.000000e+000
      vertex -1.000000e+001 -1.732051e+001  2.000000e+000
      vertex -9.000000e+000 -1.000000e+002  2.000000e+000
    endloop
  endfacet
  facet normal  0.000000e+000  0.000000e+000  1.000000e+000
    outer loop
      vertex -9.000000e+000 -1.000000e+002  2.000000e+000
      vertex -1.000000e+001 -1.732051e+001  2.000000e+000
      vertex -1.000000e+001 -1.000000e+002  2.000000e+000
    endloop
  endfacet
  facet normal  5.241440e-002  1.366896e-003  9.986245e-001
    outer loop
      vertex -9.000000e+000 -1.000000e+002  2.000000e+000
      vertex  5.524866e-001 -1.000000e+002  1.498623e+000
      vertex  2.305652e+000 -1.986666e+001  1.296920e+000
    endloop
  endfacet
  facet normal  1.030346e-001 -5.809654e-003  9.946609e-001
    outer loop
      vertex -9.000000e+000 -1.000000e+002  2.000000e+000
      vertex  2.305652e+000 -1.986666e+001  1.296920e+000
      vertex -1.526246e+000 -1.994168e+001  1.693419e+000
    endloop
  endfacet
  facet normal  6.083419e-002 -1.856738e-003  9.981461e-001
    outer loop
      vertex -9.000000e+000 -1.000000e+002  2.000000e+000
      vertex -1.526246e+000 -1.994168e+001  1.693419e+000
      vertex -5.315030e+000 -1.928083e+001  1.925564e+000
    endloop
  endfacet
  facet normal  2.019573e-002  0.000000e+000  9.997961e-001
    outer loop
      vertex -9.000000e+000 -1.000000e+002  2.000000e+000
      vertex -5.315030e+000 -1.928083e+001  1.925564e+000
      vertex -9.000000e+000 -1.786057e+001  2.000000e+000
    endloop
  endfacet
  facet normal  1.566673e-001  0.000000e+000  9.876515e-001
    outer loop
      vertex  1.000000e+001 -1.000000e+002  0.000000e+000
      vertex  1.000000e+001 -1.732051e+001  0.000000e+000
      vertex  5.524866e-001 -1.000000e+002  1.498623e+000
    endloop
  endfacet
  facet normal  1.896169e-001 -3.870180e-003  9.818505e-001
    outer loop
      vertex  5.524866e-001 -1.000000e+002  1.498623e+000
      vertex  1.000000e+001 -1.732051e+001  0.000000e+000
      vertex  6.292275e+000 -1.898439e+001  7.094843e-001
    endloop
  endfacet
  facet normal  1.459297e-001 -7.025272e-004  9.892946e-001
    outer loop
      vertex  5.524866e-001 -1.000000e+002  1.498623e+000
      vertex  6.292275e+000 -1.898439e+001  7.094843e-001
      vertex  2.305652e+000 -1.986666e+001  1.296920e+000
    endloop
  endfacet
  facet normal -1.776357e-016  0.000000e+000 -1.000000e+000
    outer loop
      vertex  1.000000e+001 -1.000000e+002  0.000000e+000
      vertex -1.000000e+001 -1.000000e+002  3.552714e-015
      vertex -1.000000e+001 -1.732051e+001  3.552714e-015
    endloop
  endfacet
  facet normal -2.344458e-016 -1.374225e-017 -9.999999e-001
    outer loop
      vertex  1.000000e+001 -1.000000e+002  0.000000e+000
      vertex -1.000000e+001 -1.732051e+001  3.552714e-015
      vertex -5.176381e+000 -1.931852e+001  2.449294e-015
    endloop
  endfacet
  facet normal  4.098141e-018  3.112844e-017 -1.000000e+000
    outer loop
      vertex  1.000000e+001 -1.000000e+002  0.000000e+000
      vertex -5.176381e+000 -1.931852e+001  2.449294e-015
      vertex -3.552714e-015 -2.000000e+001  2.449294e-015
    endloop
  endfacet
  facet normal -3.965442e-018  3.012049e-017 -9.999999e-001
    outer loop
      vertex  1.000000e+001 -1.000000e+002  0.000000e+000
      vertex -3.552714e-015 -2.000000e+001  2.449294e-015
      vertex  5.176381e+000 -1.931852e+001  2.449294e-015
    endloop
  endfacet
  facet normal -5.077710e-016  0.000000e+000 -1.000000e+000
    outer loop
      vertex  1.000000e+001 -1.000000e+002  0.000000e+000
      vertex  5.176381e+000 -1.931852e+001  2.449294e-015
      vertex  1.000000e+001 -1.732051e+001  0.000000e+000
    endloop
  endfacet
  facet normal  -0.000000e+000 -1.000000e+000  0.000000e+000
    outer loop
      vertex -1.070711e+001 -1.000000e+002  1.707107e+000
      vertex -9.000000e+000 -1.000000e+002  2.000000e+000
      vertex -1.000000e+001 -1.000000e+002  2.000000e+000
    endloop
  endfacet
  facet normal  0.000000e+000 -1.000000e+000  0.000000e+000
    outer loop
      vertex -9.000000e+000 -1.000000e+002  2.000000e+000
      vertex -1.070711e+001 -1.000000e+002  1.707107e+000
      vertex  5.524866e-001 -1.000000e+002  1.498623e+000
    endloop
  endfacet
  facet normal  -0.000000e+000 -1.000000e+000  0.000000e+000
    outer loop
      vertex  5.524866e-001 -1.000000e+002  1.498623e+000
      vertex -1.070711e+001 -1.000000e+002  1.707107e+000
      vertex -1.100000e+001 -1.000000e+002  1.000000e+000
    endloop
  endfacet
  facet normal  0.000000e+000 -1.000000e+000  0.000000e+000
    outer loop
      vertex  5.524866e-001 -1.000000e+002  1.498623e+000
      vertex -1.100000e+001 -1.000000e+002  1.000000e+000
      vertex  1.000000e+001 -1.000000e+002  0.000000e+000
    endloop
  endfacet
  facet normal  0.000000e+000 -1.000000e+000  0.000000e+000
    outer loop
      vertex  1.000000e+001 -1.000000e+002  0.000000e+000
      vertex -1.100000e+001 -1.000000e+002  1.000000e+000
      vertex -1.070711e+001 -1.000000e+002  2.928932e-001
    endloop
  endfacet
  facet normal  0.000000e+000 -1.000000e+000  0.000000e+000
    outer loop
      vertex  1.000000e+001 -1.000000e+002  0.000000e+000
      vertex -1.070711e+001 -1.000000e+002  2.928932e-001
      vertex -1.000000e+001 -1.000000e+002  3.552714e-015
    endloop
  endfacet
  facet normal -9.914448e-001  1.305263e-001  0.000000e+000
    outer loop
      vertex -2.000000e+001  2.449213e-015 -1.000000e+001
      vertex -1.931852e+001  5.176381e+000  1.000000e+000
      vertex -1.931852e+001  5.176381e+000 -1.000000e+001
    endloop
  endfacet
  facet normal -6.087615e-001  7.933532e-001  0.000000e+000
    outer loop
      vertex -1.000000e+001  1.732051e+001  0.000000e+000
      vertex -1.000000e+001  1.732051e+001 -1.000000e+001
      vertex -1.414214e+001  1.414214e+001 -1.000000e+001
    endloop
  endfacet
  facet normal  5.739722e-001  8.184204e-001 -2.727731e-002
    outer loop
      vertex  1.414214e+001  1.414214e+001 -1.000000e+001
      vertex  1.076633e+001  1.685486e+001  3.575505e-001
      vertex  1.092855e+001  1.675013e+001  6.287932e-001
    endloop
  endfacet
  facet normal  1.305259e-001  9.914420e-001 -2.385772e-003
    outer loop
      vertex  1.224606e-015  2.000000e+001  1.000000e+001
      vertex  5.176381e+000  1.931852e+001  1.000000e+001
      vertex  5.315030e+000  1.928083e+001  1.925564e+000
    endloop
  endfacet
  facet normal  1.703263e-001  9.850861e-001  2.437909e-002
    outer loop
      vertex  1.224606e-015  2.000000e+001  1.000000e+001
      vertex  5.315030e+000  1.928083e+001  1.925564e+000
      vertex  1.526246e+000  1.994168e+001  1.693419e+000
    endloop
  endfacet
  facet normal -1.849581e-002  9.997747e-001 -1.041812e-002
    outer loop
      vertex  1.224606e-015  2.000000e+001  1.000000e+001
      vertex  1.526246e+000  1.994168e+001  1.693419e+000
      vertex -2.305652e+000  1.986666e+001  1.296920e+000
    endloop
  endfacet
  facet normal -1.909819e-001  9.809490e-001  3.556598e-002
    outer loop
      vertex  1.224606e-015  2.000000e+001  1.000000e+001
      vertex -2.305652e+000  1.986666e+001  1.296920e+000
      vertex -5.176381e+000  1.931852e+001  1.000000e+000
    endloop
  endfacet
  facet normal -1.305263e-001  9.914449e-001  0.000000e+000
    outer loop
      vertex  1.224606e-015  2.000000e+001  1.000000e+001
      vertex -5.176381e+000  1.931852e+001  1.000000e+000
      vertex -5.176381e+000  1.931852e+001  1.000000e+001
    endloop
  endfacet
  facet normal  6.309508e-001  7.758229e-001  -0.000000e+000
    outer loop
      vertex  1.414214e+001  1.414214e+001  1.000000e+001
      vertex  1.414214e+001  1.414214e+001  1.000000e+000
      vertex  1.096312e+001  1.672752e+001  1.269077e+000
    endloop
  endfacet
  facet normal  5.846799e-001  8.108078e-001  2.720739e-002
    outer loop
      vertex  1.414214e+001  1.414214e+001  1.000000e+001
      vertex  1.096312e+001  1.672752e+001  1.269077e+000
      vertex  1.082335e+001  1.681830e+001  1.567536e+000
    endloop
  endfacet
  facet normal  5.641178e-001  8.247383e-001  3.972108e-002
    outer loop
      vertex  1.414214e+001  1.414214e+001  1.000000e+001
      vertex  1.082335e+001  1.681830e+001  1.567536e+000
      vertex  1.059648e+001  1.696215e+001  1.802628e+000
    endloop
  endfacet
  facet normal  5.290574e-001  8.462960e-001  6.230213e-002
    outer loop
      vertex  1.414214e+001  1.414214e+001  1.000000e+001
      vertex  1.059648e+001  1.696215e+001  1.802628e+000
      vertex  1.000000e+001  1.732051e+001  2.000000e+000
    endloop
  endfacet
  facet normal  6.087615e-001  7.933533e-001  -0.000000e+000
    outer loop
      vertex  1.414214e+001  1.414214e+001  1.000000e+001
      vertex  1.000000e+001  1.732051e+001  2.000000e+000
      vertex  1.000000e+001  1.732051e+001  1.000000e+001
    endloop
  endfacet
  facet normal -3.826832e-001  9.238797e-001  0.000000e+000
    outer loop
      vertex -5.176381e+000  1.931852e+001  1.000000e+001
      vertex -5.176381e+000  1.931852e+001  1.000000e+000
      vertex -1.000000e+001  1.732051e+001  1.000000e+001
    endloop
  endfacet
  facet normal -3.826832e-001  9.238797e-001  0.000000e+000
    outer loop
      vertex -1.000000e+001  1.732051e+001  1.000000e+001
      vertex -5.176381e+000  1.931852e+001  1.000000e+000
      vertex -1.000000e+001  1.732051e+001  1.000000e+000
    endloop
  endfacet
  facet normal -6.087615e-001  7.933533e-001  0.000000e+000
    outer loop
      vertex -1.000000e+001  1.732051e+001  1.000000e+001
      vertex -1.000000e+001  1.732051e+001  1.000000e+000
      vertex -1.414214e+001  1.414214e+001  1.000000e+001
    endloop
  endfacet
  facet normal -6.087615e-001  7.933533e-001  0.000000e+000
    outer loop
      vertex -1.414214e+001  1.414214e+001  1.000000e+001
      vertex -1.000000e+001  1.732051e+001  1.000000e+000
      vertex -1.414214e+001  1.414214e+001  1.000000e+000
    endloop
  endfacet
  facet normal -7.933533e-001  6.087615e-001  0.000000e+000
    outer loop
      vertex -1.414214e+001  1.414214e+001  1.000000e+001
      vertex -1.414214e+001  1.414214e+001  1.000000e+000
      vertex -1.732051e+001  1.000000e+001  1.000000e+001
    endloop
  endfacet
  facet normal -7.933533e-001  6.087615e-001  0.000000e+000
    outer loop
      vertex -1.732051e+001  1.000000e+001  1.000000e+001
      vertex -1.414214e+001  1.414214e+001  1.000000e+000
      vertex -1.732051e+001  1.000000e+001  1.000000e+000
    endloop
  endfacet
  facet normal -9.238797e-001  3.826832e-001  0.000000e+000
    outer loop
      vertex -1.732051e+001  1.000000e+001  1.000000e+001
      vertex -1.732051e+001  1.000000e+001  1.000000e+000
      vertex -1.931852e+001  5.176381e+000  1.000000e+001
    endloop
  endfacet
  facet normal -9.238797e-001  3.826832e-001  0.000000e+000
    outer loop
      vertex -1.931852e+001  5.176381e+000  1.000000e+001
      vertex -1.732051e+001  1.000000e+001  1.000000e+000
      vertex -1.931852e+001  5.176381e+000  1.000000e+000
    endloop
  endfacet
  facet normal -9.914449e-001  1.305263e-001  0.000000e+000
    outer loop
      vertex -1.931852e+001  5.176381e+000  1.000000e+001
      vertex -1.931852e+001  5.176381e+000  1.000000e+000
      vertex -2.000000e+001  2.449213e-015  1.000000e+001
    endloop
  endfacet
  facet normal -9.914448e-001  1.305263e-001  0.000000e+000
    outer loop
      vertex -2.000000e+001  2.449213e-015  1.000000e+001
      vertex -1.931852e+001  5.176381e+000  1.000000e+000
      vertex -2.000000e+001  2.449213e-015 -1.000000e+001
    endloop
  endfacet
  facet normal  6.187578e-001  7.855613e-001 -5.673871e-003
    outer loop
      vertex  1.092855e+001  1.675013e+001  6.287932e-001
      vertex  1.096312e+001  1.672752e+001  1.269077e+000
      vertex  1.414214e+001  1.414214e+001 -1.000000e+001
    endloop
  endfacet
  facet normal  6.309507e-001  7.758228e-001  -0.000000e+000
    outer loop
      vertex  1.414214e+001  1.414214e+001 -1.000000e+001
      vertex  1.096312e+001  1.672752e+001  1.269077e+000
      vertex  1.414214e+001  1.414214e+001  1.000000e+000
    endloop
  endfacet
  facet normal  7.933533e-001  6.087615e-001  0.000000e+000
    outer loop
      vertex  1.414214e+001  1.414214e+001 -1.000000e+001
      vertex  1.414214e+001  1.414214e+001  1.000000e+000
      vertex  1.732051e+001  1.000000e+001 -1.000000e+001
    endloop
  endfacet
  facet normal  7.933533e-001  6.087615e-001  -0.000000e+000
    outer loop
      vertex  1.732051e+001  1.000000e+001 -1.000000e+001
      vertex  1.414214e+001  1.414214e+001  1.000000e+000
      vertex  1.732051e+001  1.000000e+001  1.000000e+000
    endloop
  endfacet
  facet normal  9.238796e-001  3.826832e-001  0.000000e+000
    outer loop
      vertex  1.732051e+001  1.000000e+001 -1.000000e+001
      vertex  1.732051e+001  1.000000e+001  1.000000e+000
      vertex  1.931852e+001  5.176381e+000 -1.000000e+001
    endloop
  endfacet
  facet normal  9.238796e-001  3.826832e-001  -0.000000e+000
    outer loop
      vertex  1.931852e+001  5.176381e+000 -1.000000e+001
      vertex  1.732051e+001  1.000000e+001  1.000000e+000
      vertex  1.931852e+001  5.176381e+000  1.000000e+000
    endloop
  endfacet
  facet normal  9.914448e-001  1.305263e-001  0.000000e+000
    outer loop
      vertex  1.931852e+001  5.176381e+000 -1.000000e+001
      vertex  1.931852e+001  5.176381e+000  1.000000e+000
      vertex  2.000000e+001  0.000000e+000 -1.000000e+001
    endloop
  endfacet
  facet normal  9.914448e-001  1.305263e-001  -0.000000e+000
    outer loop
      vertex  2.000000e+001  0.000000e+000 -1.000000e+001
      vertex  1.931852e+001  5.176381e+000  1.000000e+000
      vertex  2.000000e+001  0.000000e+000  1.000000e+001
    endloop
  endfacet
  facet normal -9.238796e-001  3.826832e-001  0.000000e+000
    outer loop
      vertex -1.931852e+001  5.176381e+000 -1.000000e+001
      vertex -1.931852e+001  5.176381e+000  1.000000e+000
      vertex -1.732051e+001  1.000000e+001 -1.000000e+001
    endloop
  endfacet
  facet normal -9.238796e-001  3.826832e-001  0.000000e+000
    outer loop
      vertex -1.732051e+001  1.000000e+001 -1.000000e+001
      vertex -1.931852e+001  5.176381e+000  1.000000e+000
      vertex -1.732051e+001  1.000000e+001  1.000000e+000
    endloop
  endfacet
  facet normal -7.933533e-001  6.087615e-001  0.000000e+000
    outer loop
      vertex -1.732051e+001  1.000000e+001 -1.000000e+001
      vertex -1.732051e+001  1.000000e+001  1.000000e+000
      vertex -1.414214e+001  1.414214e+001 -1.000000e+001
    endloop
  endfacet
  facet normal -7.933533e-001  6.087615e-001  0.000000e+000
    outer loop
      vertex -1.414214e+001  1.414214e+001 -1.000000e+001
      vertex -1.732051e+001  1.000000e+001  1.000000e+000
      vertex -1.414214e+001  1.414214e+001  1.000000e+000
    endloop
  endfacet
  facet normal -6.087615e-001  7.933533e-001  0.000000e+000
    outer loop
      vertex -1.414214e+001  1.414214e+001 -1.000000e+001
      vertex -1.414214e+001  1.414214e+001  1.000000e+000
      vertex -1.000000e+001  1.732051e+001  0.000000e+000
    endloop
  endfacet
  facet normal -6.087615e-001  7.933533e-001  0.000000e+000
    outer loop
      vertex -1.000000e+001  1.732051e+001  0.000000e+000
      vertex -1.414214e+001  1.414214e+001  1.000000e+000
      vertex -1.000000e+001  1.732051e+001  1.000000e+000
    endloop
  endfacet
  facet normal -4.094246e-001  9.123439e-001  0.000000e+000
    outer loop
      vertex -1.000000e+001  1.732051e+001  0.000000e+000
      vertex -1.000000e+001  1.732051e+001  1.000000e+000
      vertex -6.292275e+000  1.898439e+001  7.094843e-001
    endloop
  endfacet
  facet normal -3.544060e-001  8.556125e-001  3.772579e-001
    outer loop
      vertex -6.292275e+000  1.898439e+001  7.094843e-001
      vertex -1.000000e+001  1.732051e+001  1.000000e+000
      vertex -5.176381e+000  1.931852e+001  1.000000e+000
    endloop
  endfacet
  facet normal -9.777184e-002  8.186210e-001 -5.659508e-001
    outer loop
      vertex -6.292275e+000  1.898439e+001  7.094843e-001
      vertex -5.176381e+000  1.931852e+001  1.000000e+000
      vertex -2.305652e+000  1.986666e+001  1.296920e+000
    endloop
  endfacet
  facet normal -3.826831e-001  9.238796e-001  0.000000e+000
    outer loop
      vertex -1.000000e+001  1.732051e+001 -1.000000e+001
      vertex -1.000000e+001  1.732051e+001  0.000000e+000
      vertex -5.176381e+000  1.931852e+001 -1.000000e+001
    endloop
  endfacet
  facet normal -3.826831e-001  9.238796e-001  0.000000e+000
    outer loop
      vertex -5.176381e+000  1.931852e+001 -1.000000e+001
      vertex -1.000000e+001  1.732051e+001  0.000000e+000
      vertex -5.176381e+000  1.931852e+001  2.449294e-015
    endloop
  endfacet
  facet normal -1.305263e-001  9.914448e-001  0.000000e+000
    outer loop
      vertex -5.176381e+000  1.931852e+001 -1.000000e+001
      vertex -5.176381e+000  1.931852e+001  2.449294e-015
      vertex  1.224606e-015  2.000000e+001 -1.000000e+001
    endloop
  endfacet
  facet normal -1.305263e-001  9.914448e-001 -2.478457e-016
    outer loop
      vertex  1.224606e-015  2.000000e+001 -1.000000e+001
      vertex -5.176381e+000  1.931852e+001  2.449294e-015
      vertex -1.776357e-014  2.000000e+001  2.449294e-015
    endloop
  endfacet
  facet normal  1.305263e-001  9.914448e-001  2.478457e-016
    outer loop
      vertex  1.224606e-015  2.000000e+001 -1.000000e+001
      vertex -1.776357e-014  2.000000e+001  2.449294e-015
      vertex  5.176381e+000  1.931852e+001 -1.000000e+001
    endloop
  endfacet
  facet normal  1.305263e-001  9.914448e-001  -0.000000e+000
    outer loop
      vertex  5.176381e+000  1.931852e+001 -1.000000e+001
      vertex -1.776357e-014  2.000000e+001  2.449294e-015
      vertex  5.176381e+000  1.931852e+001  2.449294e-015
    endloop
  endfacet
  facet normal  3.826831e-001  9.238796e-001  0.000000e+000
    outer loop
      vertex  5.176381e+000  1.931852e+001 -1.000000e+001
      vertex  5.176381e+000  1.931852e+001  2.449294e-015
      vertex  1.000000e+001  1.732051e+001 -1.000000e+001
    endloop
  endfacet
  facet normal  3.826831e-001  9.238796e-001  -0.000000e+000
    outer loop
      vertex  1.000000e+001  1.732051e+001 -1.000000e+001
      vertex  5.176381e+000  1.931852e+001  2.449294e-015
      vertex  1.000000e+001  1.732051e+001  0.000000e+000
    endloop
  endfacet
  facet normal  6.087615e-001  7.933532e-001  0.000000e+000
    outer loop
      vertex  1.000000e+001  1.732051e+001 -1.000000e+001
      vertex  1.000000e+001  1.732051e+001  0.000000e+000
      vertex  1.414214e+001  1.414214e+001 -1.000000e+001
    endloop
  endfacet
  facet normal  5.105968e-001  8.576469e-001 -6.109609e-002
    outer loop
      vertex  1.414214e+001  1.414214e+001 -1.000000e+001
      vertex  1.000000e+001  1.732051e+001  0.000000e+000
      vertex  1.024003e+001  1.717969e+001  2.923353e-002
    endloop
  endfacet
  facet normal  5.437316e-001  8.381919e-001 -4.231186e-002
    outer loop
      vertex  1.414214e+001  1.414214e+001 -1.000000e+001
      vertex  1.024003e+001  1.717969e+001  2.923353e-002
      vertex  1.076633e+001  1.685486e+001  3.575505e-001
    endloop
  endfacet
  facet normal  3.826832e-001  9.238796e-001  -0.000000e+000
    outer loop
      vertex  1.000000e+001  1.732051e+001  1.000000e+001
      vertex  1.000000e+001  1.732051e+001  2.000000e+000
      vertex  5.176381e+000  1.931852e+001  1.000000e+001
    endloop
  endfacet
  facet normal  4.741355e-001  8.779280e-001  6.661785e-002
    outer loop
      vertex  5.176381e+000  1.931852e+001  1.000000e+001
      vertex  1.000000e+001  1.732051e+001  2.000000e+000
      vertex  9.000000e+000  1.786057e+001  2.000000e+000
    endloop
  endfacet
  facet normal  3.596005e-001  9.331046e-001  1.819995e-003
    outer loop
      vertex  5.176381e+000  1.931852e+001  1.000000e+001
      vertex  9.000000e+000  1.786057e+001  2.000000e+000
      vertex  5.315030e+000  1.928083e+001  1.925564e+000
    endloop
  endfacet
  facet normal  7.933533e-001  6.087615e-001  0.000000e+000
    outer loop
      vertex  1.414214e+001  1.414214e+001  1.000000e+000
      vertex  1.414214e+001  1.414214e+001  1.000000e+001
      vertex  1.732051e+001  1.000000e+001  1.000000e+000
    endloop
  endfacet
  facet normal  7.933533e-001  6.087615e-001  -0.000000e+000
    outer loop
      vertex  1.732051e+001  1.000000e+001  1.000000e+000
      vertex  1.414214e+001  1.414214e+001  1.000000e+001
      vertex  1.732051e+001  1.000000e+001  1.000000e+001
    endloop
  endfacet
  facet normal  9.238797e-001  3.826832e-001  0.000000e+000
    outer loop
      vertex  1.732051e+001  1.000000e+001  1.000000e+000
      vertex  1.732051e+001  1.000000e+001  1.000000e+001
      vertex  1.931852e+001  5.176381e+000  1.000000e+000
    endloop
  endfacet
  facet normal  9.238797e-001  3.826832e-001  -0.000000e+000
    outer loop
      vertex  1.931852e+001  5.176381e+000  1.000000e+000
      vertex  1.732051e+001  1.000000e+001  1.000000e+001
      vertex  1.931852e+001  5.176381e+000  1.000000e+001
    endloop
  endfacet
  facet normal  9.914449e-001  1.305263e-001  0.000000e+000
    outer loop
      vertex  1.931852e+001  5.176381e+000  1.000000e+000
      vertex  1.931852e+001  5.176381e+000  1.000000e+001
      vertex  2.000000e+001  0.000000e+000  1.000000e+001
    endloop
  endfacet
  facet normal -1.879431e-001  0.000000e+000  9.821800e-001
    outer loop
      vertex -1.000000e+001  1.732051e+001  0.000000e+000
      vertex -6.292275e+000  1.898439e+001  7.094843e-001
      vertex -1.000000e+001  1.000000e+002  0.000000e+000
    endloop
  endfacet
  facet normal -1.566672e-001  1.479268e-003  9.876503e-001
    outer loop
      vertex -5.524866e-001  1.000000e+002  1.498623e+000
      vertex -1.000000e+001  1.000000e+002  0.000000e+000
      vertex -6.292275e+000  1.898439e+001  7.094843e-001
    endloop
  endfacet
  facet normal -1.459297e-001  7.025272e-004  9.892946e-001
    outer loop
      vertex -5.524866e-001  1.000000e+002  1.498623e+000
      vertex -6.292275e+000  1.898439e+001  7.094843e-001
      vertex -2.305652e+000  1.986666e+001  1.296920e+000
    endloop
  endfacet
  facet normal -1.029189e-001 -2.520490e-004  9.946898e-001
    outer loop
      vertex -5.524866e-001  1.000000e+002  1.498623e+000
      vertex -2.305652e+000  1.986666e+001  1.296920e+000
      vertex  1.526246e+000  1.994168e+001  1.693419e+000
    endloop
  endfacet
  facet normal -6.101017e-002  8.445078e-004  9.981368e-001
    outer loop
      vertex -5.524866e-001  1.000000e+002  1.498623e+000
      vertex  1.526246e+000  1.994168e+001  1.693419e+000
      vertex  5.315030e+000  1.928083e+001  1.925564e+000
    endloop
  endfacet
  facet normal -1.868135e-002  3.930302e-003  9.998177e-001
    outer loop
      vertex -5.524866e-001  1.000000e+002  1.498623e+000
      vertex  5.315030e+000  1.928083e+001  1.925564e+000
      vertex  9.000000e+000  1.786057e+001  2.000000e+000
    endloop
  endfacet
  facet normal -5.241445e-002  0.000000e+000  9.986255e-001
    outer loop
      vertex -5.524866e-001  1.000000e+002  1.498623e+000
      vertex  9.000000e+000  1.786057e+001  2.000000e+000
      vertex  9.000000e+000  1.000000e+002  2.000000e+000
    endloop
  endfacet
  facet normal  -0.000000e+000  0.000000e+000  1.000000e+000
    outer loop
      vertex  1.000000e+001  1.000000e+002  2.000000e+000
      vertex  9.000000e+000  1.000000e+002  2.000000e+000
      vertex  1.000000e+001  1.732051e+001  2.000000e+000
    endloop
  endfacet
  facet normal  0.000000e+000  0.000000e+000  9.999999e-001
    outer loop
      vertex  1.000000e+001  1.732051e+001  2.000000e+000
      vertex  9.000000e+000  1.000000e+002  2.000000e+000
      vertex  9.000000e+000  1.786057e+001  2.000000e+000
    endloop
  endfacet
  facet normal  1.209000e-001  0.000000e+000 -9.926647e-001
    outer loop
      vertex  1.000000e+001  1.732051e+001  0.000000e+000
      vertex  1.000000e+001  1.000000e+002  0.000000e+000
      vertex  1.024003e+001  1.717969e+001  2.923353e-002
    endloop
  endfacet
  facet normal  3.826834e-001  7.829667e-004 -9.238792e-001
    outer loop
      vertex  1.024003e+001  1.717969e+001  2.923353e-002
      vertex  1.000000e+001  1.000000e+002  0.000000e+000
      vertex  1.070711e+001  1.000000e+002  2.928932e-001
    endloop
  endfacet
  facet normal  5.291520e-001 -2.829559e-004 -8.485270e-001
    outer loop
      vertex  1.024003e+001  1.717969e+001  2.923353e-002
      vertex  1.070711e+001  1.000000e+002  2.928932e-001
      vertex  1.076633e+001  1.685486e+001  3.575505e-001
    endloop
  endfacet
  facet normal  8.582591e-001  2.122073e-004 -5.132164e-001
    outer loop
      vertex  1.076633e+001  1.685486e+001  3.575505e-001
      vertex  1.070711e+001  1.000000e+002  2.928932e-001
      vertex  1.092855e+001  1.675013e+001  6.287932e-001
    endloop
  endfacet
  facet normal  9.238791e-001  9.134348e-004 -3.826835e-001
    outer loop
      vertex  1.092855e+001  1.675013e+001  6.287932e-001
      vertex  1.070711e+001  1.000000e+002  2.928932e-001
      vertex  1.100000e+001  1.000000e+002  1.000000e+000
    endloop
  endfacet
  facet normal  9.985443e-001 -6.165289e-004 -5.393296e-002
    outer loop
      vertex  1.092855e+001  1.675013e+001  6.287932e-001
      vertex  1.100000e+001  1.000000e+002  1.000000e+000
      vertex  1.096312e+001  1.672752e+001  1.269077e+000
    endloop
  endfacet
  facet normal  9.057258e-001  9.684747e-004  4.238628e-001
    outer loop
      vertex  1.096312e+001  1.672752e+001  1.269077e+000
      vertex  1.100000e+001  1.000000e+002  1.000000e+000
      vertex  1.082335e+001  1.681830e+001  1.567536e+000
    endloop
  endfacet
  facet normal  9.238793e-001  6.489624e-004  3.826835e-001
    outer loop
      vertex  1.082335e+001  1.681830e+001  1.567536e+000
      vertex  1.100000e+001  1.000000e+002  1.000000e+000
      vertex  1.070711e+001  1.000000e+002  1.707107e+000
    endloop
  endfacet
  facet normal  7.195318e-001 -1.597290e-004  6.944594e-001
    outer loop
      vertex  1.082335e+001  1.681830e+001  1.567536e+000
      vertex  1.070711e+001  1.000000e+002  1.707107e+000
      vertex  1.059648e+001  1.696215e+001  1.802628e+000
    endloop
  endfacet
  facet normal  3.826835e-001  -0.000000e+000  9.238795e-001
    outer loop
      vertex  1.000000e+001  1.000000e+002  2.000000e+000
      vertex  1.000000e+001  1.732051e+001  2.000000e+000
      vertex  1.070711e+001  1.000000e+002  1.707107e+000
    endloop
  endfacet
  facet normal  3.145075e-001  6.729591e-004  9.492548e-001
    outer loop
      vertex  1.070711e+001  1.000000e+002  1.707107e+000
      vertex  1.000000e+001  1.732051e+001  2.000000e+000
      vertex  1.059648e+001  1.696215e+001  1.802628e+000
    endloop
  endfacet
  facet normal -5.077710e-016  0.000000e+000 -1.000000e+000
    outer loop
      vertex  1.000000e+001  1.732051e+001  0.000000e+000
      vertex  5.176381e+000  1.931852e+001  2.449294e-015
      vertex  1.000000e+001  1.000000e+002  0.000000e+000
    endloop
  endfacet
  facet normal  -0.000000e+000 -3.035757e-017 -1.000000e+000
    outer loop
      vertex -1.000000e+001  1.000000e+002  0.000000e+000
      vertex  1.000000e+001  1.000000e+002  0.000000e+000
      vertex  5.176381e+000  1.931852e+001  2.449294e-015
    endloop
  endfacet
  facet normal -4.098141e-018 -3.112844e-017 -1.000000e+000
    outer loop
      vertex -1.000000e+001  1.000000e+002  0.000000e+000
      vertex  5.176381e+000  1.931852e+001  2.449294e-015
      vertex -1.776357e-014  2.000000e+001  2.449294e-015
    endloop
  endfacet
  facet normal  3.965442e-018 -3.012049e-017 -9.999999e-001
    outer loop
      vertex -1.000000e+001  1.000000e+002  0.000000e+000
      vertex -1.776357e-014  2.000000e+001  2.449294e-015
      vertex -5.176381e+000  1.931852e+001  2.449294e-015
    endloop
  endfacet
  facet normal  5.077710e-016  0.000000e+000 -1.000000e+000
    outer loop
      vertex -1.000000e+001  1.000000e+002  0.000000e+000
      vertex -5.176381e+000  1.931852e+001  2.449294e-015
      vertex -1.000000e+001  1.732051e+001  0.000000e+000
    endloop
  endfacet
  facet normal  0.000000e+000  1.000000e+000  0.000000e+000
    outer loop
      vertex  9.000000e+000  1.000000e+002  2.000000e+000
      vertex  1.000000e+001  1.000000e+002  2.000000e+000
      vertex -5.524866e-001  1.000000e+002  1.498623e+000
    endloop
  endfacet
  facet normal  0.000000e+000  1.000000e+000  0.000000e+000
    outer loop
      vertex -5.524866e-001  1.000000e+002  1.498623e+000
      vertex  1.000000e+001  1.000000e+002  2.000000e+000
      vertex  1.070711e+001  1.000000e+002  1.707107e+000
    endloop
  endfacet
  facet normal  0.000000e+000  1.000000e+000  0.000000e+000
    outer loop
      vertex -5.524866e-001  1.000000e+002  1.498623e+000
      vertex  1.070711e+001  1.000000e+002  1.707107e+000
      vertex -1.000000e+001  1.000000e+002  0.000000e+000
    endloop
  endfacet
  facet normal  0.000000e+000  1.000000e+000  0.000000e+000
    outer loop
      vertex -1.000000e+001  1.000000e+002  0.000000e+000
      vertex  1.070711e+001  1.000000e+002  1.707107e+000
      vertex  1.100000e+001  1.000000e+002  1.000000e+000
    endloop
  endfacet
  facet normal  0.000000e+000  1.000000e+000  0.000000e+000
    outer loop
      vertex -1.000000e+001  1.000000e+002  0.000000e+000
      vertex  1.100000e+001  1.000000e+002  1.000000e+000
      vertex  1.000000e+001  1.000000e+002  0.000000e+000
    endloop
  endfacet
  facet normal  0.000000e+000  1.000000e+000  0.000000e+000
    outer loop
      vertex  1.000000e+001  1.000000e+002  0.000000e+000
      vertex  1.100000e+001  1.000000e+002  1.000000e+000
      vertex  1.070711e+001  1.000000e+002  2.928932e-001
    endloop
  endfacet
  facet normal  0.000000e+000  -0.000000e+000 -9.999999e-001
    outer loop
      vertex -1.414214e+001  1.414214e+001 -1.000000e+001
      vertex -1.000000e+001  1.732051e+001 -1.000000e+001
      vertex -2.477641e-001  1.049708e+001 -1.000000e+001
    endloop
  endfacet
  facet normal  0.000000e+000  0.000000e+000 -1.000000e+000
    outer loop
      vertex -1.732051e+001 -1.000000e+001 -1.000000e+001
      vertex -1.931852e+001 -5.176381e+000 -1.000000e+001
      vertex -8.966853e+000 -5.463108e+000 -1.000000e+001
    endloop
  endfacet
  facet normal  0.000000e+000  -0.000000e+000 -1.000000e+000
    outer loop
      vertex -1.732051e+001 -1.000000e+001 -1.000000e+001
      vertex -8.966853e+000 -5.463108e+000 -1.000000e+001
      vertex -6.557592e+000 -8.200487e+000 -1.000000e+001
    endloop
  endfacet
  facet normal  0.000000e+000  -0.000000e+000 -9.999999e-001
    outer loop
      vertex -1.732051e+001 -1.000000e+001 -1.000000e+001
      vertex -6.557592e+000 -8.200487e+000 -1.000000e+001
      vertex -3.357389e+000 -9.948766e+000 -1.000000e+001
    endloop
  endfacet
  facet normal  0.000000e+000  0.000000e+000 -1.000000e+000
    outer loop
      vertex -1.732051e+001 -1.000000e+001 -1.000000e+001
      vertex -3.357389e+000 -9.948766e+000 -1.000000e+001
      vertex -1.414214e+001 -1.414214e+001 -1.000000e+001
    endloop
  endfacet
  facet normal  0.000000e+000  0.000000e+000 -1.000000e+000
    outer loop
      vertex  2.477641e-001 -1.049708e+001 -1.000000e+001
      vertex -3.673819e-015 -2.000000e+001 -1.000000e+001
      vertex -3.357389e+000 -9.948766e+000 -1.000000e+001
    endloop
  endfacet
  facet normal  0.000000e+000  -0.000000e+000 -1.000000e+000
    outer loop
      vertex -3.357389e+000 -9.948766e+000 -1.000000e+001
      vertex -3.673819e-015 -2.000000e+001 -1.000000e+001
      vertex -1.414214e+001 -1.414214e+001 -1.000000e+001
    endloop
  endfacet
  facet normal  0.000000e+000  0.000000e+000 -1.000000e+000
    outer loop
      vertex -3.673819e-015 -2.000000e+001 -1.000000e+001
      vertex -5.176381e+000 -1.931852e+001 -1.000000e+001
      vertex -1.414214e+001 -1.414214e+001 -1.000000e+001
    endloop
  endfacet
  facet normal  0.000000e+000  0.000000e+000 -9.999999e-001
    outer loop
      vertex -1.414214e+001 -1.414214e+001 -1.000000e+001
      vertex -5.176381e+000 -1.931852e+001 -1.000000e+001
      vertex -1.000000e+001 -1.732051e+001 -1.000000e+001
    endloop
  endfacet
  facet normal  0.000000e+000  0.000000e+000 -1.000000e+000
    outer loop
      vertex  1.000000e+001  1.732051e+001 -1.000000e+001
      vertex  3.357389e+000  9.948766e+000 -1.000000e+001
      vertex  5.176381e+000  1.931852e+001 -1.000000e+001
    endloop
  endfacet
  facet normal  0.000000e+000  0.000000e+000 -1.000000e+000
    outer loop
      vertex  5.176381e+000  1.931852e+001 -1.000000e+001
      vertex  3.357389e+000  9.948766e+000 -1.000000e+001
      vertex -2.477641e-001  1.049708e+001 -1.000000e+001
    endloop
  endfacet
  facet normal  0.000000e+000  0.000000e+000 -1.000000e+000
    outer loop
      vertex  5.176381e+000  1.931852e+001 -1.000000e+001
      vertex -2.477641e-001  1.049708e+001 -1.000000e+001
      vertex  1.224606e-015  2.000000e+001 -1.000000e+001
    endloop
  endfacet
  facet normal  0.000000e+000  0.000000e+000 -1.000000e+000
    outer loop
      vertex  1.224606e-015  2.000000e+001 -1.000000e+001
      vertex -2.477641e-001  1.049708e+001 -1.000000e+001
      vertex -1.000000e+001  1.732051e+001 -1.000000e+001
    endloop
  endfacet
  facet normal  0.000000e+000  0.000000e+000 -1.000000e+000
    outer loop
      vertex  1.224606e-015  2.000000e+001 -1.000000e+001
      vertex -1.000000e+001  1.732051e+001 -1.000000e+001
      vertex -5.176381e+000  1.931852e+001 -1.000000e+001
    endloop
  endfacet
  facet normal  0.000000e+000  0.000000e+000 -9.999999e-001
    outer loop
      vertex  8.966853e+000  5.463108e+000 -1.000000e+001
      vertex  6.557592e+000  8.200487e+000 -1.000000e+001
      vertex  1.931852e+001  5.176381e+000 -1.000000e+001
    endloop
  endfacet
  facet normal  0.000000e+000  0.000000e+000 -1.000000e+000
    outer loop
      vertex  1.931852e+001  5.176381e+000 -1.000000e+001
      vertex  6.557592e+000  8.200487e+000 -1.000000e+001
      vertex  3.357389e+000  9.948766e+000 -1.000000e+001
    endloop
  endfacet
  facet normal  0.000000e+000  0.000000e+000 -1.000000e+000
    outer loop
      vertex  1.931852e+001  5.176381e+000 -1.000000e+001
      vertex  3.357389e+000  9.948766e+000 -1.000000e+001
      vertex  1.732051e+001  1.000000e+001 -1.000000e+001
    endloop
  endfacet
  facet normal  -0.000000e+000  0.000000e+000 -9.999999e-001
    outer loop
      vertex  1.732051e+001  1.000000e+001 -1.000000e+001
      vertex  3.357389e+000  9.948766e+000 -1.000000e+001
      vertex  1.000000e+001  1.732051e+001 -1.000000e+001
    endloop
  endfacet
  facet normal  0.000000e+000  0.000000e+000 -1.000000e+000
    outer loop
      vertex  1.732051e+001  1.000000e+001 -1.000000e+001
      vertex  1.000000e+001  1.732051e+001 -1.000000e+001
      vertex  1.414214e+001  1.414214e+001 -1.000000e+001
    endloop
  endfacet
  facet normal  0.000000e+000  0.000000e+000 -1.000000e+000
    outer loop
      vertex -9.214617e+000  5.033968e+000 -1.000000e+001
      vertex -1.931852e+001  5.176381e+000 -1.000000e+001
      vertex -6.937189e+000  7.881968e+000 -1.000000e+001
    endloop
  endfacet
  facet normal  -0.000000e+000  0.000000e+000 -1.000000e+000
    outer loop
      vertex -6.937189e+000  7.881968e+000 -1.000000e+001
      vertex -1.931852e+001  5.176381e+000 -1.000000e+001
      vertex -1.732051e+001  1.000000e+001 -1.000000e+001
    endloop
  endfacet
  facet normal  0.000000e+000  0.000000e+000 -1.000000e+000
    outer loop
      vertex -6.937189e+000  7.881968e+000 -1.000000e+001
      vertex -1.732051e+001  1.000000e+001 -1.000000e+001
      vertex -3.823034e+000  9.779284e+000 -1.000000e+001
    endloop
  endfacet
  facet normal  0.000000e+000  0.000000e+000 -9.999999e-001
    outer loop
      vertex -3.823034e+000  9.779284e+000 -1.000000e+001
      vertex -1.732051e+001  1.000000e+001 -1.000000e+001
      vertex -1.414214e+001  1.414214e+001 -1.000000e+001
    endloop
  endfacet
  facet normal  0.000000e+000  0.000000e+000 -1.000000e+000
    outer loop
      vertex -3.823034e+000  9.779284e+000 -1.000000e+001
      vertex -1.414214e+001  1.414214e+001 -1.000000e+001
      vertex -2.477641e-001  1.049708e+001 -1.000000e+001
    endloop
  endfacet
  facet normal  0.000000e+000  0.000000e+000 -1.000000e+000
    outer loop
      vertex -8.966853e+000 -5.463108e+000 -1.000000e+001
      vertex -1.931852e+001 -5.176381e+000 -1.000000e+001
      vertex -1.029458e+001 -2.066798e+000 -1.000000e+001
    endloop
  endfacet
  facet normal  -0.000000e+000  0.000000e+000 -1.000000e+000
    outer loop
      vertex -1.029458e+001 -2.066798e+000 -1.000000e+001
      vertex -1.931852e+001 -5.176381e+000 -1.000000e+001
      vertex -2.000000e+001  2.449213e-015 -1.000000e+001
    endloop
  endfacet
  facet normal  0.000000e+000  0.000000e+000 -1.000000e+000
    outer loop
      vertex -1.029458e+001 -2.066798e+000 -1.000000e+001
      vertex -2.000000e+001  2.449213e-015 -1.000000e+001
      vertex -1.038063e+001  1.578798e+000 -1.000000e+001
    endloop
  endfacet
  facet normal  -0.000000e+000  0.000000e+000 -1.000000e+000
    outer loop
      vertex -1.038063e+001  1.578798e+000 -1.000000e+001
      vertex -2.000000e+001  2.449213e-015 -1.000000e+001
      vertex -1.931852e+001  5.176381e+000 -1.000000e+001
    endloop
  endfacet
  facet normal  0.000000e+000  0.000000e+000 -1.000000e+000
    outer loop
      vertex -1.038063e+001  1.578798e+000 -1.000000e+001
      vertex -1.931852e+001  5.176381e+000 -1.000000e+001
      vertex -9.214617e+000  5.033968e+000 -1.000000e+001
    endloop
  endfacet
  facet normal  0.000000e+000  0.000000e+000 -1.000000e+000
    outer loop
      vertex  1.038063e+001 -1.578798e+000 -1.000000e+001
      vertex  1.029458e+001  2.066798e+000 -1.000000e+001
      vertex  2.000000e+001  0.000000e+000 -1.000000e+001
    endloop
  endfacet
  facet normal  0.000000e+000  0.000000e+000 -9.999999e-001
    outer loop
      vertex  2.000000e+001  0.000000e+000 -1.000000e+001
      vertex  1.029458e+001  2.066798e+000 -1.000000e+001
      vertex  8.966853e+000  5.463108e+000 -1.000000e+001
    endloop
  endfacet
  facet normal  0.000000e+000  0.000000e+000 -1.000000e+000
    outer loop
      vertex  2.000000e+001  0.000000e+000 -1.000000e+001
      vertex  8.966853e+000  5.463108e+000 -1.000000e+001
      vertex  1.931852e+001  5.176381e+000 -1.000000e+001
    endloop
  endfacet
  facet normal  0.000000e+000  -0.000000e+000 -1.000000e+000
    outer loop
      vertex  3.823034e+000 -9.779284e+000 -1.000000e+001
      vertex  6.937189e+000 -7.881968e+000 -1.000000e+001
      vertex  1.732051e+001 -1.000000e+001 -1.000000e+001
    endloop
  endfacet
  facet normal  0.000000e+000  0.000000e+000 -1.000000e+000
    outer loop
      vertex  1.732051e+001 -1.000000e+001 -1.000000e+001
      vertex  6.937189e+000 -7.881968e+000 -1.000000e+001
      vertex  9.214617e+000 -5.033968e+000 -1.000000e+001
    endloop
  endfacet
  facet normal  0.000000e+000  0.000000e+000 -9.999999e-001
    outer loop
      vertex  1.732051e+001 -1.000000e+001 -1.000000e+001
      vertex  9.214617e+000 -5.033968e+000 -1.000000e+001
      vertex  1.931852e+001 -5.176381e+000 -1.000000e+001
    endloop
  endfacet
  facet normal  0.000000e+000  0.000000e+000 -1.000000e+000
    outer loop
      vertex  1.931852e+001 -5.176381e+000 -1.000000e+001
      vertex  9.214617e+000 -5.033968e+000 -1.000000e+001
      vertex  1.038063e+001 -1.578798e+000 -1.000000e+001
    endloop
  endfacet
  facet normal  0.000000e+000  0.000000e+000 -1.000000e+000
    outer loop
      vertex  1.931852e+001 -5.176381e+000 -1.000000e+001
      vertex  1.038063e+001 -1.578798e+000 -1.000000e+001
      vertex  2.000000e+001  0.000000e+000 -1.000000e+001
    endloop
  endfacet
  facet normal  0.000000e+000  0.000000e+000 -1.000000e+000
    outer loop
      vertex  5.176381e+000 -1.931852e+001 -1.000000e+001
      vertex -3.673819e-015 -2.000000e+001 -1.000000e+001
      vertex  1.000000e+001 -1.732051e+001 -1.000000e+001
    endloop
  endfacet
  facet normal  -0.000000e+000  0.000000e+000 -1.000000e+000
    outer loop
      vertex  1.000000e+001 -1.732051e+001 -1.000000e+001
      vertex -3.673819e-015 -2.000000e+001 -1.000000e+001
      vertex  2.477641e-001 -1.049708e+001 -1.000000e+001
    endloop
  endfacet
  facet normal  0.000000e+000  0.000000e+000 -9.999999e-001
    outer loop
      vertex  1.000000e+001 -1.732051e+001 -1.000000e+001
      vertex  2.477641e-001 -1.049708e+001 -1.000000e+001
      vertex  1.414214e+001 -1.414214e+001 -1.000000e+001
    endloop
  endfacet
  facet normal  0.000000e+000  0.000000e+000 -1.000000e+000
    outer loop
      vertex  1.414214e+001 -1.414214e+001 -1.000000e+001
      vertex  2.477641e-001 -1.049708e+001 -1.000000e+001
      vertex  3.823034e+000 -9.779284e+000 -1.000000e+001
    endloop
  endfacet
  facet normal  0.000000e+000  0.000000e+000 -9.999999e-001
    outer loop
      vertex  1.414214e+001 -1.414214e+001 -1.000000e+001
      vertex  3.823034e+000 -9.779284e+000 -1.000000e+001
      vertex  1.732051e+001 -1.000000e+001 -1.000000e+001
    endloop
  endfacet
  facet normal  0.000000e+000  0.000000e+000  9.999999e-001
    outer loop
      vertex -2.477641e-001  1.049708e+001  1.000000e+001
      vertex -1.000000e+001  1.732051e+001  1.000000e+001
      vertex -1.414214e+001  1.414214e+001  1.000000e+001
    endloop
  endfacet
  facet normal  0.000000e+000  -0.000000e+000  1.000000e+000
    outer loop
      vertex -1.732051e+001 -1.000000e+001  1.000000e+001
      vertex -1.414214e+001 -1.414214e+001  1.000000e+001
      vertex -3.357389e+000 -9.948766e+000  1.000000e+001
    endloop
  endfacet
  facet normal  0.000000e+000  0.000000e+000  9.999999e-001
    outer loop
      vertex -1.732051e+001 -1.000000e+001  1.000000e+001
      vertex -3.357389e+000 -9.948766e+000  1.000000e+001
      vertex -6.557592e+000 -8.200487e+000  1.000000e+001
    endloop
  endfacet
  facet normal  0.000000e+000  0.000000e+000  1.000000e+000
    outer loop
      vertex -1.732051e+001 -1.000000e+001  1.000000e+001
      vertex -6.557592e+000 -8.200487e+000  1.000000e+001
      vertex -8.966853e+000 -5.463108e+000  1.000000e+001
    endloop
  endfacet
  facet normal  0.000000e+000  0.000000e+000  1.000000e+000
    outer loop
      vertex -1.732051e+001 -1.000000e+001  1.000000e+001
      vertex -8.966853e+000 -5.463108e+000  1.000000e+001
      vertex -1.931852e+001 -5.176381e+000  1.000000e+001
    endloop
  endfacet
  facet normal  0.000000e+000  0.000000e+000  1.000000e+000
    outer loop
      vertex  2.477641e-001 -1.049708e+001  1.000000e+001
      vertex -3.357389e+000 -9.948766e+000  1.000000e+001
      vertex -3.673819e-015 -2.000000e+001  1.000000e+001
    endloop
  endfacet
  facet normal  0.000000e+000  0.000000e+000  1.000000e+000
    outer loop
      vertex -3.673819e-015 -2.000000e+001  1.000000e+001
      vertex -3.357389e+000 -9.948766e+000  1.000000e+001
      vertex -1.414214e+001 -1.414214e+001  1.000000e+001
    endloop
  endfacet
  facet normal  0.000000e+000  0.000000e+000  1.000000e+000
    outer loop
      vertex -3.673819e-015 -2.000000e+001  1.000000e+001
      vertex -1.414214e+001 -1.414214e+001  1.000000e+001
      vertex -5.176381e+000 -1.931852e+001  1.000000e+001
    endloop
  endfacet
  facet normal  0.000000e+000  0.000000e+000  9.999999e-001
    outer loop
      vertex -5.176381e+000 -1.931852e+001  1.000000e+001
      vertex -1.414214e+001 -1.414214e+001  1.000000e+001
      vertex -1.000000e+001 -1.732051e+001  1.000000e+001
    endloop
  endfacet
  facet normal  0.000000e+000  0.000000e+000  1.000000e+000
    outer loop
      vertex -5.176381e+000  1.931852e+001  1.000000e+001
      vertex -1.000000e+001  1.732051e+001  1.000000e+001
      vertex  1.224606e-015  2.000000e+001  1.000000e+001
    endloop
  endfacet
  facet normal  0.000000e+000  0.000000e+000  1.000000e+000
    outer loop
      vertex  1.224606e-015  2.000000e+001  1.000000e+001
      vertex -1.000000e+001  1.732051e+001  1.000000e+001
      vertex -2.477641e-001  1.049708e+001  1.000000e+001
    endloop
  endfacet
  facet normal  0.000000e+000  0.000000e+000  1.000000e+000
    outer loop
      vertex  1.224606e-015  2.000000e+001  1.000000e+001
      vertex -2.477641e-001  1.049708e+001  1.000000e+001
      vertex  5.176381e+000  1.931852e+001  1.000000e+001
    endloop
  endfacet
  facet normal  0.000000e+000  0.000000e+000  1.000000e+000
    outer loop
      vertex  5.176381e+000  1.931852e+001  1.000000e+001
      vertex -2.477641e-001  1.049708e+001  1.000000e+001
      vertex  3.357389e+000  9.948766e+000  1.000000e+001
    endloop
  endfacet
  facet normal  0.000000e+000  0.000000e+000  1.000000e+000
    outer loop
      vertex  5.176381e+000  1.931852e+001  1.000000e+001
      vertex  3.357389e+000  9.948766e+000  1.000000e+001
      vertex  1.000000e+001  1.732051e+001  1.000000e+001
    endloop
  endfacet
  facet normal  0.000000e+000  0.000000e+000  1.000000e+000
    outer loop
      vertex  1.414214e+001  1.414214e+001  1.000000e+001
      vertex  1.000000e+001  1.732051e+001  1.000000e+001
      vertex  1.732051e+001  1.000000e+001  1.000000e+001
    endloop
  endfacet
  facet normal  0.000000e+000  0.000000e+000  9.999999e-001
    outer loop
      vertex  1.732051e+001  1.000000e+001  1.000000e+001
      vertex  1.000000e+001  1.732051e+001  1.000000e+001
      vertex  3.357389e+000  9.948766e+000  1.000000e+001
    endloop
  endfacet
  facet normal  -0.000000e+000  0.000000e+000  1.000000e+000
    outer loop
      vertex  1.732051e+001  1.000000e+001  1.000000e+001
      vertex  3.357389e+000  9.948766e+000  1.000000e+001
      vertex  1.931852e+001  5.176381e+000  1.000000e+001
    endloop
  endfacet
  facet normal  0.000000e+000  0.000000e+000  1.000000e+000
    outer loop
      vertex  1.931852e+001  5.176381e+000  1.000000e+001
      vertex  3.357389e+000  9.948766e+000  1.000000e+001
      vertex  6.557592e+000  8.200487e+000  1.000000e+001
    endloop
  endfacet
  facet normal  0.000000e+000  0.000000e+000  9.999999e-001
    outer loop
      vertex  1.931852e+001  5.176381e+000  1.000000e+001
      vertex  6.557592e+000  8.200487e+000  1.000000e+001
      vertex  8.966853e+000  5.463108e+000  1.000000e+001
    endloop
  endfacet
  facet normal  0.000000e+000  0.000000e+000  1.000000e+000
    outer loop
      vertex -2.477641e-001  1.049708e+001  1.000000e+001
      vertex -1.414214e+001  1.414214e+001  1.000000e+001
      vertex -3.823034e+000  9.779284e+000  1.000000e+001
    endloop
  endfacet
  facet normal  0.000000e+000  0.000000e+000  9.999999e-001
    outer loop
      vertex -3.823034e+000  9.779284e+000  1.000000e+001
      vertex -1.414214e+001  1.414214e+001  1.000000e+001
      vertex -1.732051e+001  1.000000e+001  1.000000e+001
    endloop
  endfacet
  facet normal  0.000000e+000  0.000000e+000  1.000000e+000
    outer loop
      vertex -3.823034e+000  9.779284e+000  1.000000e+001
      vertex -1.732051e+001  1.000000e+001  1.000000e+001
      vertex -6.937189e+000  7.881968e+000  1.000000e+001
    endloop
  endfacet
  facet normal  0.000000e+000  0.000000e+000  1.000000e+000
    outer loop
      vertex -6.937189e+000  7.881968e+000  1.000000e+001
      vertex -1.732051e+001  1.000000e+001  1.000000e+001
      vertex -1.931852e+001  5.176381e+000  1.000000e+001
    endloop
  endfacet
  facet normal  -0.000000e+000  0.000000e+000  1.000000e+000
    outer loop
      vertex -6.937189e+000  7.881968e+000  1.000000e+001
      vertex -1.931852e+001  5.176381e+000  1.000000e+001
      vertex -9.214617e+000  5.033968e+000  1.000000e+001
    endloop
  endfacet
  facet normal  0.000000e+000  0.000000e+000  1.000000e+000
    outer loop
      vertex -9.214617e+000  5.033968e+000  1.000000e+001
      vertex -1.931852e+001  5.176381e+000  1.000000e+001
      vertex -1.038063e+001  1.578798e+000  1.000000e+001
    endloop
  endfacet
  facet normal  0.000000e+000  0.000000e+000  1.000000e+000
    outer loop
      vertex -1.038063e+001  1.578798e+000  1.000000e+001
      vertex -1.931852e+001  5.176381e+000  1.000000e+001
      vertex -2.000000e+001  2.449213e-015  1.000000e+001
    endloop
  endfacet
  facet normal  -0.000000e+000  0.000000e+000  1.000000e+000
    outer loop
      vertex -1.038063e+001  1.578798e+000  1.000000e+001
      vertex -2.000000e+001  2.449213e-015  1.000000e+001
      vertex -1.029458e+001 -2.066798e+000  1.000000e+001
    endloop
  endfacet
  facet normal  0.000000e+000  0.000000e+000  1.000000e+000
    outer loop
      vertex -1.029458e+001 -2.066798e+000  1.000000e+001
      vertex -2.000000e+001  2.449213e-015  1.000000e+001
      vertex -1.931852e+001 -5.176381e+000  1.000000e+001
    endloop
  endfacet
  facet normal  -0.000000e+000  0.000000e+000  1.000000e+000
    outer loop
      vertex -1.029458e+001 -2.066798e+000  1.000000e+001
      vertex -1.931852e+001 -5.176381e+000  1.000000e+001
      vertex -8.966853e+000 -5.463108e+000  1.000000e+001
    endloop
  endfacet
  facet normal  0.000000e+000  0.000000e+000  1.000000e+000
    outer loop
      vertex  1.931852e+001  5.176381e+000  1.000000e+001
      vertex  8.966853e+000  5.463108e+000  1.000000e+001
      vertex  2.000000e+001  0.000000e+000  1.000000e+001
    endloop
  endfacet
  facet normal  0.000000e+000  0.000000e+000  9.999999e-001
    outer loop
      vertex  2.000000e+001  0.000000e+000  1.000000e+001
      vertex  8.966853e+000  5.463108e+000  1.000000e+001
      vertex  1.029458e+001  2.066798e+000  1.000000e+001
    endloop
  endfacet
  facet normal  0.000000e+000  0.000000e+000  1.000000e+000
    outer loop
      vertex  2.000000e+001  0.000000e+000  1.000000e+001
      vertex  1.029458e+001  2.066798e+000  1.000000e+001
      vertex  1.038063e+001 -1.578798e+000  1.000000e+001
    endloop
  endfacet
  facet normal  -0.000000e+000  0.000000e+000  1.000000e+000
    outer loop
      vertex  2.000000e+001  0.000000e+000  1.000000e+001
      vertex  1.038063e+001 -1.578798e+000  1.000000e+001
      vertex  1.931852e+001 -5.176381e+000  1.000000e+001
    endloop
  endfacet
  facet normal  0.000000e+000  0.000000e+000  1.000000e+000
    outer loop
      vertex  1.931852e+001 -5.176381e+000  1.000000e+001
      vertex  1.038063e+001 -1.578798e+000  1.000000e+001
      vertex  9.214617e+000 -5.033968e+000  1.000000e+001
    endloop
  endfacet
  facet normal  0.000000e+000  0.000000e+000  9.999999e-001
    outer loop
      vertex  1.931852e+001 -5.176381e+000  1.000000e+001
      vertex  9.214617e+000 -5.033968e+000  1.000000e+001
      vertex  1.732051e+001 -1.000000e+001  1.000000e+001
    endloop
  endfacet
  facet normal  0.000000e+000  0.000000e+000  1.000000e+000
    outer loop
      vertex  1.732051e+001 -1.000000e+001  1.000000e+001
      vertex  9.214617e+000 -5.033968e+000  1.000000e+001
      vertex  6.937189e+000 -7.881968e+000  1.000000e+001
    endloop
  endfacet
  facet normal  0.000000e+000  0.000000e+000  1.000000e+000
    outer loop
      vertex  1.732051e+001 -1.000000e+001  1.000000e+001
      vertex  6.937189e+000 -7.881968e+000  1.000000e+001
      vertex  3.823034e+000 -9.779284e+000  1.000000e+001
    endloop
  endfacet
  facet normal  0.000000e+000  0.000000e+000  9.999999e-001
    outer loop
      vertex  1.732051e+001 -1.000000e+001  1.000000e+001
      vertex  3.823034e+000 -9.779284e+000  1.000000e+001
      vertex  1.414214e+001 -1.414214e+001  1.000000e+001
    endloop
  endfacet
  facet normal  0.000000e+000  0.000000e+000  1.000000e+000
    outer loop
      vertex  1.414214e+001 -1.414214e+001  1.000000e+001
      vertex  3.823034e+000 -9.779284e+000  1.000000e+001
      vertex  2.477641e-001 -1.049708e+001  1.000000e+001
    endloop
  endfacet
  facet normal  0.000000e+000  0.000000e+000  9.999999e-001
    outer loop
      vertex  1.414214e+001 -1.414214e+001  1.000000e+001
      vertex  2.477641e-001 -1.049708e+001  1.000000e+001
      vertex  1.000000e+001 -1.732051e+001  1.000000e+001
    endloop
  endfacet
  facet normal  0.000000e+000  0.000000e+000  1.000000e+000
    outer loop
      vertex  1.000000e+001 -1.732051e+001  1.000000e+001
      vertex  2.477641e-001 -1.049708e+001  1.000000e+001
      vertex -3.673819e-015 -2.000000e+001  1.000000e+001
    endloop
  endfacet
  facet normal  0.000000e+000  0.000000e+000  1.000000e+000
    outer loop
      vertex  1.000000e+001 -1.732051e+001  1.000000e+001
      vertex -3.673819e-015 -2.000000e+001  1.000000e+001
      vertex  5.176381e+000 -1.931852e+001  1.000000e+001
    endloop
  endfacet
  facet normal  7.506636e-001  6.606846e-001  -0.000000e+000
    outer loop
      vertex -6.557592e+000 -8.200487e+000  1.000000e+001
      vertex -8.966853e+000 -5.463108e+000 -1.000000e+001
      vertex -8.966853e+000 -5.463108e+000  1.000000e+001
    endloop
  endfacet
  facet normal  9.313604e-001  3.640984e-001  0.000000e+000
    outer loop
      vertex -8.966853e+000 -5.463108e+000  1.000000e+001
      vertex -8.966853e+000 -5.463108e+000 -1.000000e+001
      vertex -1.029458e+001 -2.066798e+000 -1.000000e+001
    endloop
  endfacet
  facet normal  9.313604e-001  3.640984e-001  -0.000000e+000
    outer loop
      vertex -8.966853e+000 -5.463108e+000  1.000000e+001
      vertex -1.029458e+001 -2.066798e+000 -1.000000e+001
      vertex -1.029458e+001 -2.066798e+000  1.000000e+001
    endloop
  endfacet
  facet normal  9.997215e-001  2.359647e-002  0.000000e+000
    outer loop
      vertex -1.029458e+001 -2.066798e+000  1.000000e+001
      vertex -1.029458e+001 -2.066798e+000 -1.000000e+001
      vertex -1.038063e+001  1.578798e+000 -1.000000e+001
    endloop
  endfacet
  facet normal  9.997215e-001  2.359647e-002  -0.000000e+000
    outer loop
      vertex -1.029458e+001 -2.066798e+000  1.000000e+001
      vertex -1.038063e+001  1.578798e+000 -1.000000e+001
      vertex -1.038063e+001  1.578798e+000  1.000000e+001
    endloop
  endfacet
  facet normal  9.475015e-001 -3.197514e-001  0.000000e+000
    outer loop
      vertex -1.038063e+001  1.578798e+000  1.000000e+001
      vertex -1.038063e+001  1.578798e+000 -1.000000e+001
      vertex -9.214617e+000  5.033968e+000 -1.000000e+001
    endloop
  endfacet
  facet normal  9.475015e-001 -3.197514e-001  0.000000e+000
    outer loop
      vertex -1.038063e+001  1.578798e+000  1.000000e+001
      vertex -9.214617e+000  5.033968e+000 -1.000000e+001
      vertex -9.214617e+000  5.033968e+000  1.000000e+001
    endloop
  endfacet
  facet normal  7.506636e-001  6.606846e-001  0.000000e+000
    outer loop
      vertex -8.966853e+000 -5.463108e+000 -1.000000e+001
      vertex -6.557592e+000 -8.200487e+000  1.000000e+001
      vertex -6.557592e+000 -8.200487e+000 -1.000000e+001
    endloop
  endfacet
  facet normal  4.794255e-001  8.775826e-001  -0.000000e+000
    outer loop
      vertex -6.557592e+000 -8.200487e+000 -1.000000e+001
      vertex -6.557592e+000 -8.200487e+000  1.000000e+001
      vertex -3.357389e+000 -9.948766e+000  1.000000e+001
    endloop
  endfacet
  facet normal  4.794255e-001  8.775826e-001  0.000000e+000
    outer loop
      vertex -6.557592e+000 -8.200487e+000 -1.000000e+001
      vertex -3.357389e+000 -9.948766e+000  1.000000e+001
      vertex -3.357389e+000 -9.948766e+000 -1.000000e+001
    endloop
  endfacet
  facet normal  1.503616e-001  9.886311e-001  -0.000000e+000
    outer loop
      vertex -3.357389e+000 -9.948766e+000 -1.000000e+001
      vertex -3.357389e+000 -9.948766e+000  1.000000e+001
      vertex  2.477641e-001 -1.049708e+001  1.000000e+001
    endloop
  endfacet
  facet normal  1.503616e-001  9.886311e-001  0.000000e+000
    outer loop
      vertex -3.357389e+000 -9.948766e+000 -1.000000e+001
      vertex  2.477641e-001 -1.049708e+001  1.000000e+001
      vertex  2.477641e-001 -1.049708e+001 -1.000000e+001
    endloop
  endfacet
  facet normal -1.968379e-001  9.804361e-001  0.000000e+000
    outer loop
      vertex  2.477641e-001 -1.049708e+001 -1.000000e+001
      vertex  2.477641e-001 -1.049708e+001  1.000000e+001
      vertex  3.823034e+000 -9.779284e+000  1.000000e+001
    endloop
  endfacet
  facet normal -1.968379e-001  9.804361e-001  0.000000e+000
    outer loop
      vertex  2.477641e-001 -1.049708e+001 -1.000000e+001
      vertex  3.823034e+000 -9.779284e+000  1.000000e+001
      vertex  3.823034e+000 -9.779284e+000 -1.000000e+001
    endloop
  endfacet
  facet normal -5.202959e-001  8.539860e-001  0.000000e+000
    outer loop
      vertex  3.823034e+000 -9.779284e+000 -1.000000e+001
      vertex  3.823034e+000 -9.779284e+000  1.000000e+001
      vertex  6.937189e+000 -7.881968e+000  1.000000e+001
    endloop
  endfacet
  facet normal -5.202959e-001  8.539860e-001  0.000000e+000
    outer loop
      vertex  3.823034e+000 -9.779284e+000 -1.000000e+001
      vertex  6.937189e+000 -7.881968e+000  1.000000e+001
      vertex  6.937189e+000 -7.881968e+000 -1.000000e+001
    endloop
  endfacet
  facet normal -7.809989e-001  6.245325e-001  0.000000e+000
    outer loop
      vertex  6.937189e+000 -7.881968e+000 -1.000000e+001
      vertex  6.937189e+000 -7.881968e+000  1.000000e+001
      vertex  9.214617e+000 -5.033968e+000  1.000000e+001
    endloop
  endfacet
  facet normal -7.809989e-001  6.245325e-001  0.000000e+000
    outer loop
      vertex  6.937189e+000 -7.881968e+000 -1.000000e+001
      vertex  9.214617e+000 -5.033968e+000  1.000000e+001
      vertex  9.214617e+000 -5.033968e+000 -1.000000e+001
    endloop
  endfacet
  facet normal -7.506636e-001 -6.606846e-001  0.000000e+000
    outer loop
      vertex  6.557592e+000  8.200487e+000  1.000000e+001
      vertex  8.966853e+000  5.463108e+000 -1.000000e+001
      vertex  8.966853e+000  5.463108e+000  1.000000e+001
    endloop
  endfacet
  facet normal -9.313604e-001 -3.640984e-001  -0.000000e+000
    outer loop
      vertex  8.966853e+000  5.463108e+000  1.000000e+001
      vertex  8.966853e+000  5.463108e+000 -1.000000e+001
      vertex  1.029458e+001  2.066798e+000 -1.000000e+001
    endloop
  endfacet
  facet normal -9.313604e-001 -3.640984e-001  0.000000e+000
    outer loop
      vertex  8.966853e+000  5.463108e+000  1.000000e+001
      vertex  1.029458e+001  2.066798e+000 -1.000000e+001
      vertex  1.029458e+001  2.066798e+000  1.000000e+001
    endloop
  endfacet
  facet normal -9.997215e-001 -2.359647e-002  -0.000000e+000
    outer loop
      vertex  1.029458e+001  2.066798e+000  1.000000e+001
      vertex  1.029458e+001  2.066798e+000 -1.000000e+001
      vertex  1.038063e+001 -1.578798e+000 -1.000000e+001
    endloop
  endfacet
  facet normal -9.997215e-001 -2.359647e-002  0.000000e+000
    outer loop
      vertex  1.029458e+001  2.066798e+000  1.000000e+001
      vertex  1.038063e+001 -1.578798e+000 -1.000000e+001
      vertex  1.038063e+001 -1.578798e+000  1.000000e+001
    endloop
  endfacet
  facet normal -9.475015e-001  3.197514e-001  0.000000e+000
    outer loop
      vertex  1.038063e+001 -1.578798e+000  1.000000e+001
      vertex  1.038063e+001 -1.578798e+000 -1.000000e+001
      vertex  9.214617e+000 -5.033968e+000 -1.000000e+001
    endloop
  endfacet
  facet normal -9.475015e-001  3.197514e-001  0.000000e+000
    outer loop
      vertex  1.038063e+001 -1.578798e+000  1.000000e+001
      vertex  9.214617e+000 -5.033968e+000 -1.000000e+001
      vertex  9.214617e+000 -5.033968e+000  1.000000e+001
    endloop
  endfacet
  facet normal -7.506636e-001 -6.606846e-001  -0.000000e+000
    outer loop
      vertex  8.966853e+000  5.463108e+000 -1.000000e+001
      vertex  6.557592e+000  8.200487e+000  1.000000e+001
      vertex  6.557592e+000  8.200487e+000 -1.000000e+001
    endloop
  endfacet
  facet normal -4.794255e-001 -8.775826e-001  0.000000e+000
    outer loop
      vertex  6.557592e+000  8.200487e+000 -1.000000e+001
      vertex  6.557592e+000  8.200487e+000  1.000000e+001
      vertex  3.357389e+000  9.948766e+000  1.000000e+001
    endloop
  endfacet
  facet normal -4.794255e-001 -8.775826e-001  -0.000000e+000
    outer loop
      vertex  6.557592e+000  8.200487e+000 -1.000000e+001
      vertex  3.357389e+000  9.948766e+000  1.000000e+001
      vertex  3.357389e+000  9.948766e+000 -1.000000e+001
    endloop
  endfacet
  facet normal -1.503616e-001 -9.886311e-001  0.000000e+000
    outer loop
      vertex  3.357389e+000  9.948766e+000 -1.000000e+001
      vertex  3.357389e+000  9.948766e+000  1.000000e+001
      vertex -2.477641e-001  1.049708e+001  1.000000e+001
    endloop
  endfacet
  facet normal -1.503616e-001 -9.886311e-001  -0.000000e+000
    outer loop
      vertex  3.357389e+000  9.948766e+000 -1.000000e+001
      vertex -2.477641e-001  1.049708e+001  1.000000e+001
      vertex -2.477641e-001  1.049708e+001 -1.000000e+001
    endloop
  endfacet
  facet normal  1.968379e-001 -9.804361e-001  0.000000e+000
    outer loop
      vertex -2.477641e-001  1.049708e+001 -1.000000e+001
      vertex -2.477641e-001  1.049708e+001  1.000000e+001
      vertex -3.823034e+000  9.779284e+000  1.000000e+001
    endloop
  endfacet
  facet normal  1.968379e-001 -9.804361e-001  0.000000e+000
    outer loop
      vertex -2.477641e-001  1.049708e+001 -1.000000e+001
      vertex -3.823034e+000  9.779284e+000  1.000000e+001
      vertex -3.823034e+000  9.779284e+000 -1.000000e+001
    endloop
  endfacet
  facet normal  5.202959e-001 -8.539860e-001  0.000000e+000
    outer loop
      vertex -3.823034e+000  9.779284e+000 -1.000000e+001
      vertex -3.823034e+000  9.779284e+000  1.000000e+001
      vertex -6.937189e+000  7.881968e+000  1.000000e+001
    endloop
  endfacet
  facet normal  5.202959e-001 -8.539860e-001  0.000000e+000
    outer loop
      vertex -3.823034e+000  9.779284e+000 -1.000000e+001
      vertex -6.937189e+000  7.881968e+000  1.000000e+001
      vertex -6.937189e+000  7.881968e+000 -1.000000e+001
    endloop
  endfacet
  facet normal  7.809989e-001 -6.245325e-001  0.000000e+000
    outer loop
      vertex -6.937189e+000  7.881968e+000 -1.000000e+001
      vertex -6.937189e+000  7.881968e+000  1.000000e+001
      vertex -9.214617e+000  5.033968e+000  1.000000e+001
    endloop
  endfacet
  facet normal  7.809989e-001 -6.245325e-001  0.000000e+000
    outer loop
      vertex -6.937189e+000  7.881968e+000 -1.000000e+001
      vertex -9.214617e+000  5.033968e+000  1.000000e+001
      vertex -9.214617e+000  5.033968e+000 -1.000000e+001
    endloop
  endfacet
endsolid CATIA STL
